<svg width="304" height="362" viewBox="0 0 304 362" fill="none" xmlns="http://www.w3.org/2000/svg">
<path d="M8.17376 168.186H8.16633L4.93796 165.336C4.76707 165.314 4.59618 165.303 4.42157 165.303C2.27428 165.303 0.535645 167.044 0.535645 169.194C0.535645 171.344 2.27428 173.085 4.42157 173.085C6.56515 173.085 8.3075 171.344 8.3075 169.194C8.30379 168.844 8.25921 168.51 8.17376 168.186ZM4.42157 170.567C3.66371 170.567 3.04701 169.949 3.04701 169.19C3.04701 168.431 3.66371 167.814 4.42157 167.814C5.17944 167.814 5.79242 168.431 5.79242 169.19C5.79242 169.949 5.17944 170.567 4.42157 170.567Z" fill="#F4F4F4"/>
<path d="M35.0336 168.186H35.0262L31.7978 165.336C31.6269 165.314 31.456 165.303 31.2814 165.303C29.1341 165.303 27.3955 167.044 27.3955 169.194C27.3955 171.344 29.1341 173.085 31.2814 173.085C33.425 173.085 35.1674 171.344 35.1674 169.194C35.1637 168.844 35.1191 168.51 35.0336 168.186ZM31.2814 170.567C30.5236 170.567 29.9069 169.949 29.9069 169.19C29.9069 168.431 30.5236 167.814 31.2814 167.814C32.0393 167.814 32.6523 168.431 32.6523 169.19C32.6523 169.949 32.0356 170.567 31.2814 170.567Z" fill="#F4F4F4"/>
<path d="M61.893 168.186H61.8856L58.6572 165.336C58.4863 165.314 58.3154 165.303 58.1408 165.303C55.9935 165.303 54.2549 167.044 54.2549 169.194C54.2549 171.344 55.9935 173.085 58.1408 173.085C60.2881 173.085 62.0267 171.344 62.0267 169.194C62.023 168.844 61.9784 168.51 61.893 168.186ZM58.1408 170.567C57.3829 170.567 56.7662 169.949 56.7662 169.19C56.7662 168.431 57.3829 167.814 58.1408 167.814C58.8987 167.814 59.5154 168.431 59.5154 169.19C59.5117 169.949 58.8987 170.567 58.1408 170.567Z" fill="#F4F4F4"/>
<path d="M88.7529 168.186H88.7454L85.5171 165.336C85.3462 165.314 85.1753 165.303 85.0007 165.303C82.8534 165.303 81.1147 167.044 81.1147 169.194C81.1147 171.344 82.8534 173.085 85.0007 173.085C87.148 173.085 88.8866 171.344 88.8866 169.194C88.8829 168.844 88.8383 168.51 88.7529 168.186ZM84.997 170.567C84.2391 170.567 83.6224 169.949 83.6224 169.19C83.6224 168.431 84.2391 167.814 84.997 167.814C85.7548 167.814 86.3678 168.431 86.3678 169.19C86.3715 169.949 85.7548 170.567 84.997 170.567Z" fill="#F4F4F4"/>
<path d="M115.613 168.186H115.605L112.377 165.336C112.206 165.314 112.035 165.303 111.861 165.303C109.713 165.303 107.975 167.044 107.975 169.194C107.975 171.344 109.713 173.085 111.861 173.085C114.004 173.085 115.746 171.344 115.746 169.194C115.743 168.844 115.698 168.51 115.613 168.186ZM111.857 170.567C111.099 170.567 110.482 169.949 110.482 169.19C110.482 168.431 111.099 167.814 111.857 167.814C112.615 167.814 113.228 168.431 113.228 169.19C113.231 169.949 112.615 170.567 111.857 170.567Z" fill="#F4F4F4"/>
<path d="M142.473 168.186H142.465L139.237 165.336C139.066 165.314 138.895 165.303 138.72 165.303C136.573 165.303 134.834 167.044 134.834 169.194C134.834 171.344 136.573 173.085 138.72 173.085C140.864 173.085 142.606 171.344 142.606 169.194C142.603 168.844 142.558 168.51 142.473 168.186ZM138.717 170.567C137.959 170.567 137.342 169.949 137.342 169.19C137.342 168.431 137.959 167.814 138.717 167.814C139.475 167.814 140.088 168.431 140.088 169.19C140.091 169.949 139.475 170.567 138.717 170.567Z" fill="#F4F4F4"/>
<path d="M8.17376 144.574H8.16633L4.93796 141.724C4.76707 141.702 4.59618 141.69 4.42157 141.69C2.27428 141.687 0.535645 143.428 0.535645 145.578C0.535645 147.728 2.27428 149.469 4.42157 149.469C6.56515 149.469 8.3075 147.728 8.3075 145.578C8.30379 145.228 8.25921 144.894 8.17376 144.574ZM4.42157 146.954C3.66371 146.954 3.04701 146.337 3.04701 145.578C3.04701 144.819 3.66371 144.202 4.42157 144.202C5.17944 144.202 5.79242 144.819 5.79242 145.578C5.79242 146.337 5.17944 146.954 4.42157 146.954Z" fill="#F4F4F4"/>
<path d="M35.0336 144.574H35.0262L31.7978 141.724C31.6269 141.702 31.456 141.69 31.2814 141.69C29.1341 141.69 27.3955 143.431 27.3955 145.582C27.3955 147.732 29.1341 149.473 31.2814 149.473C33.425 149.473 35.1674 147.732 35.1674 145.582C35.1637 145.228 35.1191 144.894 35.0336 144.574ZM31.2814 146.954C30.5236 146.954 29.9069 146.337 29.9069 145.578C29.9069 144.819 30.5236 144.202 31.2814 144.202C32.0393 144.202 32.6523 144.819 32.6523 145.578C32.6523 146.337 32.0356 146.954 31.2814 146.954Z" fill="#F4F4F4"/>
<path d="M61.893 144.574H61.8856L58.6572 141.724C58.4863 141.702 58.3154 141.69 58.1408 141.69C55.9935 141.69 54.2549 143.431 54.2549 145.582C54.2549 147.732 55.9935 149.473 58.1408 149.473C60.2881 149.473 62.0267 147.732 62.0267 145.582C62.023 145.228 61.9784 144.894 61.893 144.574ZM58.1408 146.954C57.3829 146.954 56.7662 146.337 56.7662 145.578C56.7662 144.819 57.3829 144.202 58.1408 144.202C58.8987 144.202 59.5154 144.819 59.5154 145.578C59.5117 146.337 58.8987 146.954 58.1408 146.954Z" fill="#F4F4F4"/>
<path d="M88.7529 144.574H88.7454L85.5171 141.724C85.3462 141.702 85.1753 141.69 85.0007 141.69C82.8534 141.69 81.1147 143.431 81.1147 145.582C81.1147 147.732 82.8534 149.473 85.0007 149.473C87.148 149.473 88.8866 147.732 88.8866 145.582C88.8829 145.228 88.8383 144.894 88.7529 144.574ZM84.997 146.954C84.2391 146.954 83.6224 146.337 83.6224 145.578C83.6224 144.819 84.2391 144.202 84.997 144.202C85.7548 144.202 86.3678 144.819 86.3678 145.578C86.3715 146.337 85.7548 146.954 84.997 146.954Z" fill="#F4F4F4"/>
<path d="M115.613 144.574H115.605L112.377 141.724C112.206 141.702 112.035 141.69 111.861 141.69C109.713 141.69 107.975 143.431 107.975 145.582C107.975 147.732 109.713 149.473 111.861 149.473C114.004 149.473 115.746 147.732 115.746 145.582C115.743 145.228 115.698 144.894 115.613 144.574ZM111.857 146.954C111.099 146.954 110.482 146.337 110.482 145.578C110.482 144.819 111.099 144.202 111.857 144.202C112.615 144.202 113.228 144.819 113.228 145.578C113.231 146.337 112.615 146.954 111.857 146.954Z" fill="#F4F4F4"/>
<path d="M142.473 144.574H142.465L139.237 141.724C139.066 141.702 138.895 141.69 138.72 141.69C136.573 141.69 134.834 143.431 134.834 145.582C134.834 147.732 136.573 149.473 138.72 149.473C140.864 149.473 142.606 147.732 142.606 145.582C142.603 145.228 142.558 144.894 142.473 144.574ZM138.717 146.954C137.959 146.954 137.342 146.337 137.342 145.578C137.342 144.819 137.959 144.202 138.717 144.202C139.475 144.202 140.088 144.819 140.088 145.578C140.091 146.337 139.475 146.954 138.717 146.954Z" fill="#F4F4F4"/>
<path d="M8.17376 120.958H8.16633L4.93796 118.109C4.76707 118.086 4.59618 118.075 4.42157 118.075C2.27428 118.075 0.535645 119.816 0.535645 121.963C0.535645 124.113 2.27428 125.854 4.42157 125.854C6.56515 125.854 8.3075 124.113 8.3075 121.963C8.30379 121.617 8.25921 121.278 8.17376 120.958ZM4.42157 123.339C3.66371 123.339 3.04701 122.722 3.04701 121.963C3.04701 121.204 3.66371 120.586 4.42157 120.586C5.17944 120.586 5.79242 121.204 5.79242 121.963C5.79242 122.722 5.17944 123.339 4.42157 123.339Z" fill="#F4F4F4"/>
<path d="M35.0336 120.958H35.0262L31.7978 118.109C31.6269 118.086 31.456 118.075 31.2814 118.075C29.1341 118.075 27.3955 119.816 27.3955 121.967C27.3955 124.117 29.1341 125.858 31.2814 125.858C33.425 125.858 35.1674 124.117 35.1674 121.967C35.1637 121.617 35.1191 121.278 35.0336 120.958ZM31.2814 123.339C30.5236 123.339 29.9069 122.722 29.9069 121.963C29.9069 121.204 30.5236 120.586 31.2814 120.586C32.0393 120.586 32.6523 121.204 32.6523 121.963C32.6523 122.722 32.0356 123.339 31.2814 123.339Z" fill="#F4F4F4"/>
<path d="M61.893 120.958H61.8856L58.6572 118.109C58.4863 118.086 58.3154 118.075 58.1408 118.075C55.9935 118.075 54.2549 119.816 54.2549 121.967C54.2549 124.117 55.9935 125.858 58.1408 125.858C60.2881 125.858 62.0267 124.117 62.0267 121.967C62.023 121.617 61.9784 121.278 61.893 120.958ZM58.1408 123.339C57.3829 123.339 56.7662 122.722 56.7662 121.963C56.7662 121.204 57.3829 120.586 58.1408 120.586C58.8987 120.586 59.5154 121.204 59.5154 121.963C59.5117 122.722 58.8987 123.339 58.1408 123.339Z" fill="#F4F4F4"/>
<path d="M88.7529 120.958H88.7454L85.5171 118.109C85.3462 118.086 85.1753 118.075 85.0007 118.075C82.8534 118.075 81.1147 119.816 81.1147 121.967C81.1147 124.117 82.8534 125.858 85.0007 125.858C87.148 125.858 88.8866 124.117 88.8866 121.967C88.8829 121.617 88.8383 121.278 88.7529 120.958ZM84.997 123.339C84.2391 123.339 83.6224 122.722 83.6224 121.963C83.6224 121.204 84.2391 120.586 84.997 120.586C85.7548 120.586 86.3678 121.204 86.3678 121.963C86.3715 122.722 85.7548 123.339 84.997 123.339Z" fill="#F4F4F4"/>
<path d="M115.613 120.958H115.605L112.377 118.109C112.206 118.086 112.035 118.075 111.861 118.075C109.713 118.075 107.975 119.816 107.975 121.967C107.975 124.117 109.713 125.858 111.861 125.858C114.004 125.858 115.746 124.117 115.746 121.967C115.743 121.617 115.698 121.278 115.613 120.958ZM111.857 123.339C111.099 123.339 110.482 122.722 110.482 121.963C110.482 121.204 111.099 120.586 111.857 120.586C112.615 120.586 113.228 121.204 113.228 121.963C113.231 122.722 112.615 123.339 111.857 123.339Z" fill="#F4F4F4"/>
<path d="M142.473 120.958H142.465L139.237 118.109C139.066 118.086 138.895 118.075 138.72 118.075C136.573 118.075 134.834 119.816 134.834 121.967C134.834 124.117 136.573 125.858 138.72 125.858C140.864 125.858 142.606 124.117 142.606 121.967C142.603 121.617 142.558 121.278 142.473 120.958ZM138.717 123.339C137.959 123.339 137.342 122.722 137.342 121.963C137.342 121.204 137.959 120.586 138.717 120.586C139.475 120.586 140.088 121.204 140.088 121.963C140.091 122.722 139.475 123.339 138.717 123.339Z" fill="#F4F4F4"/>
<path d="M8.17376 97.3421H8.16633L4.93796 94.4925C4.76707 94.4701 4.59618 94.459 4.42157 94.459C2.27428 94.459 0.535645 96.2 0.535645 98.3466C0.535645 100.497 2.27428 102.238 4.42157 102.238C6.56515 102.238 8.3075 100.497 8.3075 98.3466C8.30379 98.0006 8.25921 97.6658 8.17376 97.3421ZM4.42157 99.723C3.66371 99.723 3.04701 99.1055 3.04701 98.3466C3.04701 97.5877 3.66371 96.9701 4.42157 96.9701C5.17944 96.9701 5.79242 97.5877 5.79242 98.3466C5.79242 99.1055 5.17944 99.723 4.42157 99.723Z" fill="#F4F4F4"/>
<path d="M35.0336 97.3421H35.0262L31.7978 94.4925C31.6269 94.4701 31.456 94.459 31.2814 94.459C29.1341 94.459 27.3955 96.2 27.3955 98.3503C27.3955 100.501 29.1341 102.242 31.2814 102.242C33.425 102.242 35.1674 100.501 35.1674 98.3503C35.1637 98.0006 35.1191 97.6658 35.0336 97.3421ZM31.2814 99.723C30.5236 99.723 29.9069 99.1055 29.9069 98.3466C29.9069 97.5877 30.5236 96.9701 31.2814 96.9701C32.0393 96.9701 32.6523 97.5877 32.6523 98.3466C32.6523 99.1055 32.0356 99.723 31.2814 99.723Z" fill="#F4F4F4"/>
<path d="M61.893 97.3421H61.8856L58.6572 94.4925C58.4863 94.4701 58.3154 94.459 58.1408 94.459C55.9935 94.459 54.2549 96.2 54.2549 98.3503C54.2549 100.501 55.9935 102.242 58.1408 102.242C60.2881 102.242 62.0267 100.501 62.0267 98.3503C62.023 98.0006 61.9784 97.6658 61.893 97.3421ZM58.1408 99.723C57.3829 99.723 56.7662 99.1055 56.7662 98.3466C56.7662 97.5877 57.3829 96.9701 58.1408 96.9701C58.8987 96.9701 59.5154 97.5877 59.5154 98.3466C59.5117 99.1055 58.8987 99.723 58.1408 99.723Z" fill="#F4F4F4"/>
<path d="M88.7529 97.3421H88.7454L85.5171 94.4925C85.3462 94.4701 85.1753 94.459 85.0007 94.459C82.8534 94.459 81.1147 96.2 81.1147 98.3503C81.1147 100.501 82.8534 102.242 85.0007 102.242C87.148 102.242 88.8866 100.501 88.8866 98.3503C88.8829 98.0006 88.8383 97.6658 88.7529 97.3421ZM84.997 99.723C84.2391 99.723 83.6224 99.1055 83.6224 98.3466C83.6224 97.5877 84.2391 96.9701 84.997 96.9701C85.7548 96.9701 86.3678 97.5877 86.3678 98.3466C86.3715 99.1055 85.7548 99.723 84.997 99.723Z" fill="#F4F4F4"/>
<path d="M115.613 97.3421H115.605L112.377 94.4925C112.206 94.4701 112.035 94.459 111.861 94.459C109.713 94.459 107.975 96.2 107.975 98.3503C107.975 100.501 109.713 102.242 111.861 102.242C114.004 102.242 115.746 100.501 115.746 98.3503C115.743 98.0006 115.698 97.6658 115.613 97.3421ZM111.857 99.723C111.099 99.723 110.482 99.1055 110.482 98.3466C110.482 97.5877 111.099 96.9701 111.857 96.9701C112.615 96.9701 113.228 97.5877 113.228 98.3466C113.231 99.1055 112.615 99.723 111.857 99.723Z" fill="#F4F4F4"/>
<path d="M142.473 97.3421H142.465L139.237 94.4925C139.066 94.4701 138.895 94.459 138.72 94.459C136.573 94.459 134.834 96.2 134.834 98.3503C134.834 100.501 136.573 102.242 138.72 102.242C140.864 102.242 142.606 100.501 142.606 98.3503C142.603 98.0006 142.558 97.6658 142.473 97.3421ZM138.717 99.723C137.959 99.723 137.342 99.1055 137.342 98.3466C137.342 97.5877 137.959 96.9701 138.717 96.9701C139.475 96.9701 140.088 97.5877 140.088 98.3466C140.091 99.1055 139.475 99.723 138.717 99.723Z" fill="#F4F4F4"/>
<path d="M8.17376 73.7269H8.16633L4.93796 70.8772C4.76707 70.8549 4.59618 70.8438 4.42157 70.8438C2.27428 70.8438 0.535645 72.5848 0.535645 74.7351C0.535645 76.8853 2.27428 78.6264 4.42157 78.6264C6.56515 78.6264 8.3075 76.8853 8.3075 74.7351C8.30379 74.3854 8.25921 74.0505 8.17376 73.7269ZM4.42157 76.1078C3.66371 76.1078 3.04701 75.4903 3.04701 74.7313C3.04701 73.9724 3.66371 73.3549 4.42157 73.3549C5.17944 73.3549 5.79242 73.9724 5.79242 74.7313C5.79242 75.494 5.17944 76.1078 4.42157 76.1078Z" fill="#F4F4F4"/>
<path d="M35.0336 73.7269H35.0262L31.7978 70.8772C31.6269 70.8549 31.456 70.8438 31.2814 70.8438C29.1341 70.8438 27.3955 72.5848 27.3955 74.7351C27.3955 76.8853 29.1341 78.6264 31.2814 78.6264C33.425 78.6264 35.1674 76.8853 35.1674 74.7351C35.1637 74.3854 35.1191 74.0505 35.0336 73.7269ZM31.2814 76.1078C30.5236 76.1078 29.9069 75.4903 29.9069 74.7313C29.9069 73.9724 30.5236 73.3549 31.2814 73.3549C32.0393 73.3549 32.6523 73.9724 32.6523 74.7313C32.6523 75.494 32.0356 76.1078 31.2814 76.1078Z" fill="#F4F4F4"/>
<path d="M61.893 73.7269H61.8856L58.6572 70.8772C58.4863 70.8549 58.3154 70.8438 58.1408 70.8438C55.9935 70.8438 54.2549 72.5848 54.2549 74.7351C54.2549 76.8853 55.9935 78.6264 58.1408 78.6264C60.2881 78.6264 62.0267 76.8853 62.0267 74.7351C62.023 74.3854 61.9784 74.0505 61.893 73.7269ZM58.1408 76.1078C57.3829 76.1078 56.7662 75.4903 56.7662 74.7313C56.7662 73.9724 57.3829 73.3549 58.1408 73.3549C58.8987 73.3549 59.5154 73.9724 59.5154 74.7313C59.5117 75.494 58.8987 76.1078 58.1408 76.1078Z" fill="#F4F4F4"/>
<path d="M88.7529 73.7269H88.7454L85.5171 70.8772C85.3462 70.8549 85.1753 70.8438 85.0007 70.8438C82.8534 70.8438 81.1147 72.5848 81.1147 74.7351C81.1147 76.8853 82.8534 78.6264 85.0007 78.6264C87.148 78.6264 88.8866 76.8853 88.8866 74.7351C88.8829 74.3854 88.8383 74.0505 88.7529 73.7269ZM84.997 76.1078C84.2391 76.1078 83.6224 75.4903 83.6224 74.7313C83.6224 73.9724 84.2391 73.3549 84.997 73.3549C85.7548 73.3549 86.3678 73.9724 86.3678 74.7313C86.3715 75.494 85.7548 76.1078 84.997 76.1078Z" fill="#F4F4F4"/>
<path d="M115.613 73.7269H115.605L112.377 70.8772C112.206 70.8549 112.035 70.8438 111.861 70.8438C109.713 70.8438 107.975 72.5848 107.975 74.7351C107.975 76.8853 109.713 78.6264 111.861 78.6264C114.004 78.6264 115.746 76.8853 115.746 74.7351C115.743 74.3854 115.698 74.0505 115.613 73.7269ZM111.857 76.1078C111.099 76.1078 110.482 75.4903 110.482 74.7313C110.482 73.9724 111.099 73.3549 111.857 73.3549C112.615 73.3549 113.228 73.9724 113.228 74.7313C113.231 75.494 112.615 76.1078 111.857 76.1078Z" fill="#F4F4F4"/>
<path d="M142.473 73.7269H142.465L139.237 70.8772C139.066 70.8549 138.895 70.8438 138.72 70.8438C136.573 70.8438 134.834 72.5848 134.834 74.7351C134.834 76.8853 136.573 78.6264 138.72 78.6264C140.864 78.6264 142.606 76.8853 142.606 74.7351C142.603 74.3854 142.558 74.0505 142.473 73.7269ZM138.717 76.1078C137.959 76.1078 137.342 75.4903 137.342 74.7313C137.342 73.9724 137.959 73.3549 138.717 73.3549C139.475 73.3549 140.088 73.9724 140.088 74.7313C140.091 75.494 139.475 76.1078 138.717 76.1078Z" fill="#F4F4F4"/>
<path d="M8.17376 50.1146H8.16633L4.93796 47.2649C4.76707 47.2426 4.59618 47.2315 4.42157 47.2315C2.27428 47.2277 0.535645 48.9688 0.535645 51.119C0.535645 53.2693 2.27428 55.0104 4.42157 55.0104C6.56515 55.0104 8.3075 53.2693 8.3075 51.119C8.30379 50.7693 8.25921 50.4345 8.17376 50.1146ZM4.42157 52.4955C3.66371 52.4955 3.04701 51.878 3.04701 51.119C3.04701 50.3601 3.66371 49.7426 4.42157 49.7426C5.17944 49.7426 5.79242 50.3601 5.79242 51.119C5.79242 51.878 5.17944 52.4955 4.42157 52.4955Z" fill="#F4F4F4"/>
<path d="M35.0336 50.1146H35.0262L31.7978 47.2649C31.6269 47.2426 31.456 47.2314 31.2814 47.2314C29.1341 47.2314 27.3955 48.9725 27.3955 51.1228C27.3955 53.273 29.1341 55.0141 31.2814 55.0141C33.425 55.0141 35.1674 53.273 35.1674 51.1228C35.1637 50.7693 35.1191 50.4345 35.0336 50.1146ZM31.2814 52.4955C30.5236 52.4955 29.9069 51.878 29.9069 51.119C29.9069 50.3601 30.5236 49.7426 31.2814 49.7426C32.0393 49.7426 32.6523 50.3601 32.6523 51.119C32.6523 51.878 32.0356 52.4955 31.2814 52.4955Z" fill="#F4F4F4"/>
<path d="M61.893 50.1146H61.8856L58.6572 47.2649C58.4863 47.2426 58.3154 47.2314 58.1408 47.2314C55.9935 47.2314 54.2549 48.9725 54.2549 51.1228C54.2549 53.273 55.9935 55.0141 58.1408 55.0141C60.2881 55.0141 62.0267 53.273 62.0267 51.1228C62.023 50.7693 61.9784 50.4345 61.893 50.1146ZM58.1408 52.4955C57.3829 52.4955 56.7662 51.878 56.7662 51.119C56.7662 50.3601 57.3829 49.7426 58.1408 49.7426C58.8987 49.7426 59.5154 50.3601 59.5154 51.119C59.5117 51.878 58.8987 52.4955 58.1408 52.4955Z" fill="#F4F4F4"/>
<path d="M88.7529 50.1146H88.7454L85.5171 47.2649C85.3462 47.2426 85.1753 47.2314 85.0007 47.2314C82.8534 47.2314 81.1147 48.9725 81.1147 51.1228C81.1147 53.273 82.8534 55.0141 85.0007 55.0141C87.148 55.0141 88.8866 53.273 88.8866 51.1228C88.8829 50.7693 88.8383 50.4345 88.7529 50.1146ZM84.997 52.4955C84.2391 52.4955 83.6224 51.878 83.6224 51.119C83.6224 50.3601 84.2391 49.7426 84.997 49.7426C85.7548 49.7426 86.3678 50.3601 86.3678 51.119C86.3715 51.878 85.7548 52.4955 84.997 52.4955Z" fill="#F4F4F4"/>
<path d="M115.613 50.1146H115.605L112.377 47.2649C112.206 47.2426 112.035 47.2314 111.861 47.2314C109.713 47.2314 107.975 48.9725 107.975 51.1228C107.975 53.273 109.713 55.0141 111.861 55.0141C114.004 55.0141 115.746 53.273 115.746 51.1228C115.743 50.7693 115.698 50.4345 115.613 50.1146ZM111.857 52.4955C111.099 52.4955 110.482 51.878 110.482 51.119C110.482 50.3601 111.099 49.7426 111.857 49.7426C112.615 49.7426 113.228 50.3601 113.228 51.119C113.231 51.878 112.615 52.4955 111.857 52.4955Z" fill="#F4F4F4"/>
<path d="M142.473 50.1146H142.465L139.237 47.2649C139.066 47.2426 138.895 47.2314 138.72 47.2314C136.573 47.2314 134.834 48.9725 134.834 51.1228C134.834 53.273 136.573 55.0141 138.72 55.0141C140.864 55.0141 142.606 53.273 142.606 51.1228C142.603 50.7693 142.558 50.4345 142.473 50.1146ZM138.717 52.4955C137.959 52.4955 137.342 51.878 137.342 51.119C137.342 50.3601 137.959 49.7426 138.717 49.7426C139.475 49.7426 140.088 50.3601 140.088 51.119C140.091 51.878 139.475 52.4955 138.717 52.4955Z" fill="#F4F4F4"/>
<path d="M8.17376 26.4994H8.16633L4.93796 23.6497C4.76707 23.6274 4.59618 23.6162 4.42157 23.6162C2.27428 23.6162 0.535645 25.3573 0.535645 27.5038C0.535645 29.6541 2.27428 31.3951 4.42157 31.3951C6.56515 31.3951 8.3075 29.6541 8.3075 27.5038C8.30379 27.1578 8.25921 26.8193 8.17376 26.4994ZM4.42157 28.8803C3.66371 28.8803 3.04701 28.2627 3.04701 27.5038C3.04701 26.7449 3.66371 26.1273 4.42157 26.1273C5.17944 26.1273 5.79242 26.7449 5.79242 27.5038C5.79242 28.2627 5.17944 28.8803 4.42157 28.8803Z" fill="#F4F4F4"/>
<path d="M35.0336 26.4994H35.0262L31.7978 23.6497C31.6269 23.6274 31.456 23.6162 31.2814 23.6162C29.1341 23.6162 27.3955 25.3573 27.3955 27.5075C27.3955 29.6578 29.1341 31.3988 31.2814 31.3988C33.425 31.3988 35.1674 29.6578 35.1674 27.5075C35.1637 27.1578 35.1191 26.8193 35.0336 26.4994ZM31.2814 28.8803C30.5236 28.8803 29.9069 28.2627 29.9069 27.5038C29.9069 26.7449 30.5236 26.1273 31.2814 26.1273C32.0393 26.1273 32.6523 26.7449 32.6523 27.5038C32.6523 28.2627 32.0356 28.8803 31.2814 28.8803Z" fill="#F4F4F4"/>
<path d="M61.893 26.4994H61.8856L58.6572 23.6497C58.4863 23.6274 58.3154 23.6162 58.1408 23.6162C55.9935 23.6162 54.2549 25.3573 54.2549 27.5075C54.2549 29.6578 55.9935 31.3988 58.1408 31.3988C60.2881 31.3988 62.0267 29.6578 62.0267 27.5075C62.023 27.1578 61.9784 26.8193 61.893 26.4994ZM58.1408 28.8803C57.3829 28.8803 56.7662 28.2627 56.7662 27.5038C56.7662 26.7449 57.3829 26.1273 58.1408 26.1273C58.8987 26.1273 59.5154 26.7449 59.5154 27.5038C59.5117 28.2627 58.8987 28.8803 58.1408 28.8803Z" fill="#F4F4F4"/>
<path d="M88.7529 26.4994H88.7454L85.5171 23.6497C85.3462 23.6274 85.1753 23.6162 85.0007 23.6162C82.8534 23.6162 81.1147 25.3573 81.1147 27.5075C81.1147 29.6578 82.8534 31.3988 85.0007 31.3988C87.148 31.3988 88.8866 29.6578 88.8866 27.5075C88.8829 27.1578 88.8383 26.8193 88.7529 26.4994ZM84.997 28.8803C84.2391 28.8803 83.6224 28.2627 83.6224 27.5038C83.6224 26.7449 84.2391 26.1273 84.997 26.1273C85.7548 26.1273 86.3678 26.7449 86.3678 27.5038C86.3715 28.2627 85.7548 28.8803 84.997 28.8803Z" fill="#F4F4F4"/>
<path d="M115.613 26.4994H115.605L112.377 23.6497C112.206 23.6274 112.035 23.6162 111.861 23.6162C109.713 23.6162 107.975 25.3573 107.975 27.5075C107.975 29.6578 109.713 31.3988 111.861 31.3988C114.004 31.3988 115.746 29.6578 115.746 27.5075C115.743 27.1578 115.698 26.8193 115.613 26.4994ZM111.857 28.8803C111.099 28.8803 110.482 28.2627 110.482 27.5038C110.482 26.7449 111.099 26.1273 111.857 26.1273C112.615 26.1273 113.228 26.7449 113.228 27.5038C113.231 28.2627 112.615 28.8803 111.857 28.8803Z" fill="#F4F4F4"/>
<path d="M142.473 26.4994H142.465L139.237 23.6497C139.066 23.6274 138.895 23.6162 138.72 23.6162C136.573 23.6162 134.834 25.3573 134.834 27.5075C134.834 29.6578 136.573 31.3988 138.72 31.3988C140.864 31.3988 142.606 29.6578 142.606 27.5075C142.603 27.1578 142.558 26.8193 142.473 26.4994ZM138.717 28.8803C137.959 28.8803 137.342 28.2627 137.342 27.5038C137.342 26.7449 137.959 26.1273 138.717 26.1273C139.475 26.1273 140.088 26.7449 140.088 27.5038C140.091 28.2627 139.475 28.8803 138.717 28.8803Z" fill="#F4F4F4"/>
<path d="M8.17376 2.88314H8.16633L4.93796 0.0334817C4.76707 0.0111606 4.59618 0 4.42157 0C2.27428 0 0.535645 1.74105 0.535645 3.89131C0.535645 6.04158 2.27428 7.78263 4.42157 7.78263C6.56515 7.78263 8.3075 6.04158 8.3075 3.89131C8.30379 3.54162 8.25921 3.2068 8.17376 2.88314ZM4.42157 5.26406C3.66371 5.26406 3.04701 4.64651 3.04701 3.88759C3.04701 3.12867 3.66371 2.51112 4.42157 2.51112C5.17944 2.51112 5.79242 3.12867 5.79242 3.88759C5.79242 4.64651 5.17944 5.26406 4.42157 5.26406Z" fill="#F4F4F4"/>
<path d="M35.0336 2.88314H35.0262L31.7978 0.0334817C31.6269 0.0111606 31.456 0 31.2814 0C29.1341 0 27.3955 1.74105 27.3955 3.89131C27.3955 6.04158 29.1341 7.78263 31.2814 7.78263C33.425 7.78263 35.1674 6.04158 35.1674 3.89131C35.1637 3.54162 35.1191 3.2068 35.0336 2.88314ZM31.2814 5.26406C30.5236 5.26406 29.9069 4.64651 29.9069 3.88759C29.9069 3.12867 30.5236 2.51112 31.2814 2.51112C32.0393 2.51112 32.6523 3.12867 32.6523 3.88759C32.6523 4.64651 32.0356 5.26406 31.2814 5.26406Z" fill="#F4F4F4"/>
<path d="M61.893 2.88314H61.8856L58.6572 0.0334817C58.4863 0.0111606 58.3154 0 58.1408 0C55.9935 0 54.2549 1.74105 54.2549 3.89131C54.2549 6.04158 55.9935 7.78263 58.1408 7.78263C60.2881 7.78263 62.0267 6.04158 62.0267 3.89131C62.023 3.54162 61.9784 3.2068 61.893 2.88314ZM58.1408 5.26406C57.3829 5.26406 56.7662 4.64651 56.7662 3.88759C56.7662 3.12867 57.3829 2.51112 58.1408 2.51112C58.8987 2.51112 59.5154 3.12867 59.5154 3.88759C59.5117 4.64651 58.8987 5.26406 58.1408 5.26406Z" fill="#F4F4F4"/>
<path d="M88.7532 2.88314H88.7457L85.5174 0.0334817C85.3465 0.0111606 85.1756 0 84.9973 0C82.85 0 81.1113 1.74105 81.1113 3.89131C81.1113 6.04158 82.85 7.78263 84.9973 7.78263C87.1446 7.78263 88.8832 6.04158 88.8832 3.89131C88.8832 3.54162 88.8386 3.2068 88.7532 2.88314ZM84.9973 5.26406C84.2394 5.26406 83.6227 4.64651 83.6227 3.88759C83.6227 3.12867 84.2394 2.51112 84.9973 2.51112C85.7551 2.51112 86.3681 3.12867 86.3681 3.88759C86.3718 4.64651 85.7551 5.26406 84.9973 5.26406Z" fill="#F4F4F4"/>
<path d="M115.613 2.88314H115.605L112.377 0.0334817C112.206 0.0111606 112.035 0 111.857 0C109.709 0 107.971 1.74105 107.971 3.89131C107.971 6.04158 109.709 7.78263 111.857 7.78263C114 7.78263 115.743 6.04158 115.743 3.89131C115.743 3.54162 115.698 3.2068 115.613 2.88314ZM111.857 5.26406C111.099 5.26406 110.482 4.64651 110.482 3.88759C110.482 3.12867 111.099 2.51112 111.857 2.51112C112.614 2.51112 113.227 3.12867 113.227 3.88759C113.231 4.64651 112.614 5.26406 111.857 5.26406Z" fill="#F4F4F4"/>
<path d="M142.472 2.88314H142.465L139.237 0.0334817C139.066 0.0111606 138.895 0 138.717 0C136.569 0 134.831 1.74105 134.831 3.89131C134.831 6.04158 136.569 7.78263 138.717 7.78263C140.86 7.78263 142.602 6.04158 142.602 3.89131C142.602 3.54162 142.558 3.2068 142.472 2.88314ZM138.717 5.26406C137.959 5.26406 137.342 4.64651 137.342 3.88759C137.342 3.12867 137.959 2.51112 138.717 2.51112C139.474 2.51112 140.087 3.12867 140.087 3.88759C140.091 4.64651 139.474 5.26406 138.717 5.26406Z" fill="#F4F4F4"/>
<path d="M169.332 168.186H169.325L166.096 165.336C165.925 165.314 165.754 165.303 165.58 165.303C163.432 165.303 161.694 167.044 161.694 169.194C161.694 171.344 163.432 173.085 165.58 173.085C167.727 173.085 169.466 171.344 169.466 169.194C169.462 168.844 169.417 168.51 169.332 168.186ZM165.576 170.567C164.818 170.567 164.201 169.949 164.201 169.19C164.201 168.431 164.818 167.814 165.576 167.814C166.334 167.814 166.951 168.431 166.951 169.19C166.951 169.949 166.334 170.567 165.576 170.567Z" fill="#F4F4F4"/>
<path d="M196.192 168.186H196.184L192.956 165.336C192.785 165.314 192.614 165.303 192.44 165.303C190.292 165.303 188.554 167.044 188.554 169.194C188.554 171.344 190.292 173.085 192.44 173.085C194.587 173.085 196.326 171.344 196.326 169.194C196.322 168.844 196.277 168.51 196.192 168.186ZM192.436 170.567C191.678 170.567 191.061 169.949 191.061 169.19C191.061 168.431 191.678 167.814 192.436 167.814C193.194 167.814 193.81 168.431 193.81 169.19C193.81 169.949 193.194 170.567 192.436 170.567Z" fill="#F4F4F4"/>
<path d="M223.052 168.186H223.044L219.816 165.336C219.645 165.314 219.474 165.303 219.299 165.303C217.152 165.303 215.414 167.044 215.414 169.194C215.414 171.344 217.152 173.085 219.299 173.085C221.443 173.085 223.185 171.344 223.185 169.194C223.182 168.844 223.137 168.51 223.052 168.186ZM219.296 170.567C218.538 170.567 217.921 169.949 217.921 169.19C217.921 168.431 218.538 167.814 219.296 167.814C220.054 167.814 220.667 168.431 220.667 169.19C220.67 169.949 220.054 170.567 219.296 170.567Z" fill="#F4F4F4"/>
<path d="M249.911 168.186H249.904L246.675 165.336C246.504 165.314 246.333 165.303 246.159 165.303C244.012 165.303 242.273 167.044 242.273 169.194C242.273 171.344 244.012 173.085 246.159 173.085C248.302 173.085 250.045 171.344 250.045 169.194C250.041 168.844 249.997 168.51 249.911 168.186ZM246.155 170.567C245.397 170.567 244.781 169.949 244.781 169.19C244.781 168.431 245.397 167.814 246.155 167.814C246.913 167.814 247.526 168.431 247.526 169.19C247.53 169.949 246.913 170.567 246.155 170.567Z" fill="#F4F4F4"/>
<path d="M276.771 168.186H276.763L273.535 165.336C273.364 165.314 273.193 165.303 273.019 165.303C270.871 165.303 269.133 167.044 269.133 169.194C269.133 171.344 270.871 173.085 273.019 173.085C275.162 173.085 276.905 171.344 276.905 169.194C276.901 168.844 276.856 168.51 276.771 168.186ZM273.015 170.567C272.257 170.567 271.64 169.949 271.64 169.19C271.64 168.431 272.257 167.814 273.015 167.814C273.773 167.814 274.386 168.431 274.386 169.19C274.39 169.949 273.773 170.567 273.015 170.567Z" fill="#F4F4F4"/>
<path d="M303.631 168.186H303.623L300.395 165.336C300.224 165.314 300.053 165.303 299.879 165.303C297.731 165.303 295.993 167.044 295.993 169.194C295.993 171.344 297.731 173.085 299.879 173.085C302.026 173.085 303.765 171.344 303.765 169.194C303.761 168.844 303.716 168.51 303.631 168.186ZM299.875 170.567C299.117 170.567 298.5 169.949 298.5 169.19C298.5 168.431 299.117 167.814 299.875 167.814C300.633 167.814 301.249 168.431 301.249 169.19C301.249 169.949 300.633 170.567 299.875 170.567Z" fill="#F4F4F4"/>
<path d="M169.332 144.574H169.325L166.096 141.724C165.925 141.702 165.754 141.69 165.58 141.69C163.432 141.69 161.694 143.431 161.694 145.582C161.694 147.732 163.432 149.473 165.58 149.473C167.727 149.473 169.466 147.732 169.466 145.582C169.462 145.228 169.417 144.894 169.332 144.574ZM165.576 146.954C164.818 146.954 164.201 146.337 164.201 145.578C164.201 144.819 164.818 144.202 165.576 144.202C166.334 144.202 166.951 144.819 166.951 145.578C166.951 146.337 166.334 146.954 165.576 146.954Z" fill="#F4F4F4"/>
<path d="M196.192 144.574H196.184L192.956 141.724C192.785 141.702 192.614 141.69 192.44 141.69C190.292 141.69 188.554 143.431 188.554 145.582C188.554 147.732 190.292 149.473 192.44 149.473C194.587 149.473 196.326 147.732 196.326 145.582C196.322 145.228 196.277 144.894 196.192 144.574ZM192.436 146.954C191.678 146.954 191.061 146.337 191.061 145.578C191.061 144.819 191.678 144.202 192.436 144.202C193.194 144.202 193.81 144.819 193.81 145.578C193.81 146.337 193.194 146.954 192.436 146.954Z" fill="#F4F4F4"/>
<path d="M223.052 144.574H223.044L219.816 141.724C219.645 141.702 219.474 141.69 219.299 141.69C217.152 141.69 215.414 143.431 215.414 145.582C215.414 147.732 217.152 149.473 219.299 149.473C221.443 149.473 223.185 147.732 223.185 145.582C223.182 145.228 223.137 144.894 223.052 144.574ZM219.296 146.954C218.538 146.954 217.921 146.337 217.921 145.578C217.921 144.819 218.538 144.202 219.296 144.202C220.054 144.202 220.667 144.819 220.667 145.578C220.67 146.337 220.054 146.954 219.296 146.954Z" fill="#F4F4F4"/>
<path d="M249.911 144.574H249.904L246.675 141.724C246.504 141.702 246.333 141.69 246.159 141.69C244.012 141.69 242.273 143.431 242.273 145.582C242.273 147.732 244.012 149.473 246.159 149.473C248.302 149.473 250.045 147.732 250.045 145.582C250.041 145.228 249.997 144.894 249.911 144.574ZM246.155 146.954C245.397 146.954 244.781 146.337 244.781 145.578C244.781 144.819 245.397 144.202 246.155 144.202C246.913 144.202 247.526 144.819 247.526 145.578C247.53 146.337 246.913 146.954 246.155 146.954Z" fill="#F4F4F4"/>
<path d="M276.771 144.574H276.763L273.535 141.724C273.364 141.702 273.193 141.69 273.019 141.69C270.871 141.69 269.133 143.431 269.133 145.582C269.133 147.732 270.871 149.473 273.019 149.473C275.162 149.473 276.905 147.732 276.905 145.582C276.901 145.228 276.856 144.894 276.771 144.574ZM273.015 146.954C272.257 146.954 271.64 146.337 271.64 145.578C271.64 144.819 272.257 144.202 273.015 144.202C273.773 144.202 274.386 144.819 274.386 145.578C274.39 146.337 273.773 146.954 273.015 146.954Z" fill="#F4F4F4"/>
<path d="M303.631 144.574H303.623L300.395 141.724C300.224 141.702 300.053 141.69 299.879 141.69C297.731 141.69 295.993 143.431 295.993 145.582C295.993 147.732 297.731 149.473 299.879 149.473C302.026 149.473 303.765 147.732 303.765 145.582C303.761 145.228 303.716 144.894 303.631 144.574ZM299.875 146.954C299.117 146.954 298.5 146.337 298.5 145.578C298.5 144.819 299.117 144.202 299.875 144.202C300.633 144.202 301.249 144.819 301.249 145.578C301.249 146.337 300.633 146.954 299.875 146.954Z" fill="#F4F4F4"/>
<path d="M169.332 120.958H169.325L166.096 118.109C165.925 118.086 165.754 118.075 165.58 118.075C163.432 118.075 161.694 119.816 161.694 121.967C161.694 124.117 163.432 125.858 165.58 125.858C167.727 125.858 169.466 124.117 169.466 121.967C169.462 121.617 169.417 121.278 169.332 120.958ZM165.576 123.339C164.818 123.339 164.201 122.722 164.201 121.963C164.201 121.204 164.818 120.586 165.576 120.586C166.334 120.586 166.951 121.204 166.951 121.963C166.951 122.722 166.334 123.339 165.576 123.339Z" fill="#F4F4F4"/>
<path d="M196.192 120.958H196.184L192.956 118.109C192.785 118.086 192.614 118.075 192.44 118.075C190.292 118.075 188.554 119.816 188.554 121.967C188.554 124.117 190.292 125.858 192.44 125.858C194.587 125.858 196.326 124.117 196.326 121.967C196.322 121.617 196.277 121.278 196.192 120.958ZM192.436 123.339C191.678 123.339 191.061 122.722 191.061 121.963C191.061 121.204 191.678 120.586 192.436 120.586C193.194 120.586 193.81 121.204 193.81 121.963C193.81 122.722 193.194 123.339 192.436 123.339Z" fill="#F4F4F4"/>
<path d="M223.052 120.958H223.044L219.816 118.109C219.645 118.086 219.474 118.075 219.299 118.075C217.152 118.075 215.414 119.816 215.414 121.967C215.414 124.117 217.152 125.858 219.299 125.858C221.443 125.858 223.185 124.117 223.185 121.967C223.182 121.617 223.137 121.278 223.052 120.958ZM219.296 123.339C218.538 123.339 217.921 122.722 217.921 121.963C217.921 121.204 218.538 120.586 219.296 120.586C220.054 120.586 220.667 121.204 220.667 121.963C220.67 122.722 220.054 123.339 219.296 123.339Z" fill="#F4F4F4"/>
<path d="M249.911 120.958H249.904L246.675 118.109C246.504 118.086 246.333 118.075 246.159 118.075C244.012 118.075 242.273 119.816 242.273 121.967C242.273 124.117 244.012 125.858 246.159 125.858C248.302 125.858 250.045 124.117 250.045 121.967C250.041 121.617 249.997 121.278 249.911 120.958ZM246.155 123.339C245.397 123.339 244.781 122.722 244.781 121.963C244.781 121.204 245.397 120.586 246.155 120.586C246.913 120.586 247.526 121.204 247.526 121.963C247.53 122.722 246.913 123.339 246.155 123.339Z" fill="#F4F4F4"/>
<path d="M276.771 120.958H276.763L273.535 118.109C273.364 118.086 273.193 118.075 273.019 118.075C270.871 118.075 269.133 119.816 269.133 121.967C269.133 124.117 270.871 125.858 273.019 125.858C275.162 125.858 276.905 124.117 276.905 121.967C276.901 121.617 276.856 121.278 276.771 120.958ZM273.015 123.339C272.257 123.339 271.64 122.722 271.64 121.963C271.64 121.204 272.257 120.586 273.015 120.586C273.773 120.586 274.386 121.204 274.386 121.963C274.39 122.722 273.773 123.339 273.015 123.339Z" fill="#F4F4F4"/>
<path d="M303.631 120.958H303.623L300.395 118.109C300.224 118.086 300.053 118.075 299.879 118.075C297.731 118.075 295.993 119.816 295.993 121.967C295.993 124.117 297.731 125.858 299.879 125.858C302.026 125.858 303.765 124.117 303.765 121.967C303.761 121.617 303.716 121.278 303.631 120.958ZM299.875 123.339C299.117 123.339 298.5 122.722 298.5 121.963C298.5 121.204 299.117 120.586 299.875 120.586C300.633 120.586 301.249 121.204 301.249 121.963C301.249 122.722 300.633 123.339 299.875 123.339Z" fill="#F4F4F4"/>
<path d="M169.332 97.3421H169.325L166.096 94.4925C165.925 94.4701 165.754 94.459 165.58 94.459C163.432 94.459 161.694 96.2 161.694 98.3503C161.694 100.501 163.432 102.242 165.58 102.242C167.727 102.242 169.466 100.501 169.466 98.3503C169.462 98.0006 169.417 97.6658 169.332 97.3421ZM165.576 99.723C164.818 99.723 164.201 99.1055 164.201 98.3466C164.201 97.5877 164.818 96.9701 165.576 96.9701C166.334 96.9701 166.951 97.5877 166.951 98.3466C166.951 99.1055 166.334 99.723 165.576 99.723Z" fill="#F4F4F4"/>
<path d="M196.192 97.3421H196.184L192.956 94.4925C192.785 94.4701 192.614 94.459 192.44 94.459C190.292 94.459 188.554 96.2 188.554 98.3503C188.554 100.501 190.292 102.242 192.44 102.242C194.587 102.242 196.326 100.501 196.326 98.3503C196.322 98.0006 196.277 97.6658 196.192 97.3421ZM192.436 99.723C191.678 99.723 191.061 99.1055 191.061 98.3466C191.061 97.5877 191.678 96.9701 192.436 96.9701C193.194 96.9701 193.81 97.5877 193.81 98.3466C193.81 99.1055 193.194 99.723 192.436 99.723Z" fill="#F4F4F4"/>
<path d="M223.052 97.3421H223.044L219.816 94.4925C219.645 94.4701 219.474 94.459 219.299 94.459C217.152 94.459 215.414 96.2 215.414 98.3503C215.414 100.501 217.152 102.242 219.299 102.242C221.443 102.242 223.185 100.501 223.185 98.3503C223.182 98.0006 223.137 97.6658 223.052 97.3421ZM219.296 99.723C218.538 99.723 217.921 99.1055 217.921 98.3466C217.921 97.5877 218.538 96.9701 219.296 96.9701C220.054 96.9701 220.667 97.5877 220.667 98.3466C220.67 99.1055 220.054 99.723 219.296 99.723Z" fill="#F4F4F4"/>
<path d="M249.911 97.3421H249.904L246.675 94.4925C246.504 94.4701 246.333 94.459 246.159 94.459C244.012 94.459 242.273 96.2 242.273 98.3503C242.273 100.501 244.012 102.242 246.159 102.242C248.302 102.242 250.045 100.501 250.045 98.3503C250.041 98.0006 249.997 97.6658 249.911 97.3421ZM246.155 99.723C245.397 99.723 244.781 99.1055 244.781 98.3466C244.781 97.5877 245.397 96.9701 246.155 96.9701C246.913 96.9701 247.526 97.5877 247.526 98.3466C247.53 99.1055 246.913 99.723 246.155 99.723Z" fill="#F4F4F4"/>
<path d="M276.771 97.3421H276.763L273.535 94.4925C273.364 94.4701 273.193 94.459 273.019 94.459C270.871 94.459 269.133 96.2 269.133 98.3503C269.133 100.501 270.871 102.242 273.019 102.242C275.162 102.242 276.905 100.501 276.905 98.3503C276.901 98.0006 276.856 97.6658 276.771 97.3421ZM273.015 99.723C272.257 99.723 271.64 99.1055 271.64 98.3466C271.64 97.5877 272.257 96.9701 273.015 96.9701C273.773 96.9701 274.386 97.5877 274.386 98.3466C274.39 99.1055 273.773 99.723 273.015 99.723Z" fill="#F4F4F4"/>
<path d="M303.631 97.3421H303.623L300.395 94.4925C300.224 94.4701 300.053 94.459 299.879 94.459C297.731 94.459 295.993 96.2 295.993 98.3503C295.993 100.501 297.731 102.242 299.879 102.242C302.026 102.242 303.765 100.501 303.765 98.3503C303.761 98.0006 303.716 97.6658 303.631 97.3421ZM299.875 99.723C299.117 99.723 298.5 99.1055 298.5 98.3466C298.5 97.5877 299.117 96.9701 299.875 96.9701C300.633 96.9701 301.249 97.5877 301.249 98.3466C301.249 99.1055 300.633 99.723 299.875 99.723Z" fill="#F4F4F4"/>
<path d="M169.332 73.7269H169.325L166.096 70.8772C165.925 70.8549 165.754 70.8438 165.58 70.8438C163.432 70.8438 161.694 72.5848 161.694 74.7351C161.694 76.8853 163.432 78.6264 165.58 78.6264C167.727 78.6264 169.466 76.8853 169.466 74.7351C169.462 74.3854 169.417 74.0505 169.332 73.7269ZM165.576 76.1078C164.818 76.1078 164.201 75.4903 164.201 74.7313C164.201 73.9724 164.818 73.3549 165.576 73.3549C166.334 73.3549 166.951 73.9724 166.951 74.7313C166.951 75.494 166.334 76.1078 165.576 76.1078Z" fill="#F4F4F4"/>
<path d="M196.192 73.7269H196.184L192.956 70.8772C192.785 70.8549 192.614 70.8438 192.44 70.8438C190.292 70.8438 188.554 72.5848 188.554 74.7351C188.554 76.8853 190.292 78.6264 192.44 78.6264C194.587 78.6264 196.326 76.8853 196.326 74.7351C196.322 74.3854 196.277 74.0505 196.192 73.7269ZM192.436 76.1078C191.678 76.1078 191.061 75.4903 191.061 74.7313C191.061 73.9724 191.678 73.3549 192.436 73.3549C193.194 73.3549 193.81 73.9724 193.81 74.7313C193.81 75.494 193.194 76.1078 192.436 76.1078Z" fill="#F4F4F4"/>
<path d="M223.052 73.7269H223.044L219.816 70.8772C219.645 70.8549 219.474 70.8438 219.299 70.8438C217.152 70.8438 215.414 72.5848 215.414 74.7351C215.414 76.8853 217.152 78.6264 219.299 78.6264C221.443 78.6264 223.185 76.8853 223.185 74.7351C223.182 74.3854 223.137 74.0505 223.052 73.7269ZM219.296 76.1078C218.538 76.1078 217.921 75.4903 217.921 74.7313C217.921 73.9724 218.538 73.3549 219.296 73.3549C220.054 73.3549 220.667 73.9724 220.667 74.7313C220.67 75.494 220.054 76.1078 219.296 76.1078Z" fill="#F4F4F4"/>
<path d="M249.911 73.7269H249.904L246.675 70.8772C246.504 70.8549 246.333 70.8438 246.159 70.8438C244.012 70.8438 242.273 72.5848 242.273 74.7351C242.273 76.8853 244.012 78.6264 246.159 78.6264C248.302 78.6264 250.045 76.8853 250.045 74.7351C250.041 74.3854 249.997 74.0505 249.911 73.7269ZM246.155 76.1078C245.397 76.1078 244.781 75.4903 244.781 74.7313C244.781 73.9724 245.397 73.3549 246.155 73.3549C246.913 73.3549 247.526 73.9724 247.526 74.7313C247.53 75.494 246.913 76.1078 246.155 76.1078Z" fill="#F4F4F4"/>
<path d="M276.771 73.7269H276.763L273.535 70.8772C273.364 70.8549 273.193 70.8438 273.019 70.8438C270.871 70.8438 269.133 72.5848 269.133 74.7351C269.133 76.8853 270.871 78.6264 273.019 78.6264C275.162 78.6264 276.905 76.8853 276.905 74.7351C276.901 74.3854 276.856 74.0505 276.771 73.7269ZM273.015 76.1078C272.257 76.1078 271.64 75.4903 271.64 74.7313C271.64 73.9724 272.257 73.3549 273.015 73.3549C273.773 73.3549 274.386 73.9724 274.386 74.7313C274.39 75.494 273.773 76.1078 273.015 76.1078Z" fill="#F4F4F4"/>
<path d="M303.631 73.7269H303.623L300.395 70.8772C300.224 70.8549 300.053 70.8438 299.879 70.8438C297.731 70.8438 295.993 72.5848 295.993 74.7351C295.993 76.8853 297.731 78.6264 299.879 78.6264C302.026 78.6264 303.765 76.8853 303.765 74.7351C303.761 74.3854 303.716 74.0505 303.631 73.7269ZM299.875 76.1078C299.117 76.1078 298.5 75.4903 298.5 74.7313C298.5 73.9724 299.117 73.3549 299.875 73.3549C300.633 73.3549 301.249 73.9724 301.249 74.7313C301.249 75.494 300.633 76.1078 299.875 76.1078Z" fill="#F4F4F4"/>
<path d="M169.332 50.1146H169.325L166.096 47.2649C165.925 47.2426 165.754 47.2314 165.58 47.2314C163.432 47.2314 161.694 48.9725 161.694 51.1228C161.694 53.273 163.432 55.0141 165.58 55.0141C167.727 55.0141 169.466 53.273 169.466 51.1228C169.462 50.7693 169.417 50.4345 169.332 50.1146ZM165.576 52.4955C164.818 52.4955 164.201 51.878 164.201 51.119C164.201 50.3601 164.818 49.7426 165.576 49.7426C166.334 49.7426 166.951 50.3601 166.951 51.119C166.951 51.878 166.334 52.4955 165.576 52.4955Z" fill="#F4F4F4"/>
<path d="M196.192 50.1146H196.184L192.956 47.2649C192.785 47.2426 192.614 47.2314 192.44 47.2314C190.292 47.2314 188.554 48.9725 188.554 51.1228C188.554 53.273 190.292 55.0141 192.44 55.0141C194.587 55.0141 196.326 53.273 196.326 51.1228C196.322 50.7693 196.277 50.4345 196.192 50.1146ZM192.436 52.4955C191.678 52.4955 191.061 51.878 191.061 51.119C191.061 50.3601 191.678 49.7426 192.436 49.7426C193.194 49.7426 193.81 50.3601 193.81 51.119C193.81 51.878 193.194 52.4955 192.436 52.4955Z" fill="#F4F4F4"/>
<path d="M223.052 50.1146H223.044L219.816 47.2649C219.645 47.2426 219.474 47.2314 219.299 47.2314C217.152 47.2314 215.414 48.9725 215.414 51.1228C215.414 53.273 217.152 55.0141 219.299 55.0141C221.443 55.0141 223.185 53.273 223.185 51.1228C223.182 50.7693 223.137 50.4345 223.052 50.1146ZM219.296 52.4955C218.538 52.4955 217.921 51.878 217.921 51.119C217.921 50.3601 218.538 49.7426 219.296 49.7426C220.054 49.7426 220.667 50.3601 220.667 51.119C220.67 51.878 220.054 52.4955 219.296 52.4955Z" fill="#F4F4F4"/>
<path d="M249.911 50.1146H249.904L246.675 47.2649C246.504 47.2426 246.333 47.2314 246.159 47.2314C244.012 47.2314 242.273 48.9725 242.273 51.1228C242.273 53.273 244.012 55.0141 246.159 55.0141C248.302 55.0141 250.045 53.273 250.045 51.1228C250.041 50.7693 249.997 50.4345 249.911 50.1146ZM246.155 52.4955C245.397 52.4955 244.781 51.878 244.781 51.119C244.781 50.3601 245.397 49.7426 246.155 49.7426C246.913 49.7426 247.526 50.3601 247.526 51.119C247.53 51.878 246.913 52.4955 246.155 52.4955Z" fill="#F4F4F4"/>
<path d="M276.771 50.1146H276.763L273.535 47.2649C273.364 47.2426 273.193 47.2314 273.019 47.2314C270.871 47.2314 269.133 48.9725 269.133 51.1228C269.133 53.273 270.871 55.0141 273.019 55.0141C275.162 55.0141 276.905 53.273 276.905 51.1228C276.901 50.7693 276.856 50.4345 276.771 50.1146ZM273.015 52.4955C272.257 52.4955 271.64 51.878 271.64 51.119C271.64 50.3601 272.257 49.7426 273.015 49.7426C273.773 49.7426 274.386 50.3601 274.386 51.119C274.39 51.878 273.773 52.4955 273.015 52.4955Z" fill="#F4F4F4"/>
<path d="M303.631 50.1146H303.623L300.395 47.2649C300.224 47.2426 300.053 47.2314 299.879 47.2314C297.731 47.2314 295.993 48.9725 295.993 51.1228C295.993 53.273 297.731 55.0141 299.879 55.0141C302.026 55.0141 303.765 53.273 303.765 51.1228C303.761 50.7693 303.716 50.4345 303.631 50.1146ZM299.875 52.4955C299.117 52.4955 298.5 51.878 298.5 51.119C298.5 50.3601 299.117 49.7426 299.875 49.7426C300.633 49.7426 301.249 50.3601 301.249 51.119C301.249 51.878 300.633 52.4955 299.875 52.4955Z" fill="#F4F4F4"/>
<path d="M169.332 26.4994H169.325L166.096 23.6497C165.925 23.6274 165.754 23.6162 165.58 23.6162C163.432 23.6162 161.694 25.3573 161.694 27.5075C161.694 29.6578 163.432 31.3988 165.58 31.3988C167.727 31.3988 169.466 29.6578 169.466 27.5075C169.462 27.1578 169.417 26.8193 169.332 26.4994ZM165.576 28.8803C164.818 28.8803 164.201 28.2627 164.201 27.5038C164.201 26.7449 164.818 26.1273 165.576 26.1273C166.334 26.1273 166.951 26.7449 166.951 27.5038C166.951 28.2627 166.334 28.8803 165.576 28.8803Z" fill="#F4F4F4"/>
<path d="M196.192 26.4994H196.184L192.956 23.6497C192.785 23.6274 192.614 23.6162 192.44 23.6162C190.292 23.6162 188.554 25.3573 188.554 27.5075C188.554 29.6578 190.292 31.3988 192.44 31.3988C194.587 31.3988 196.326 29.6578 196.326 27.5075C196.322 27.1578 196.277 26.8193 196.192 26.4994ZM192.436 28.8803C191.678 28.8803 191.061 28.2627 191.061 27.5038C191.061 26.7449 191.678 26.1273 192.436 26.1273C193.194 26.1273 193.81 26.7449 193.81 27.5038C193.81 28.2627 193.194 28.8803 192.436 28.8803Z" fill="#F4F4F4"/>
<path d="M223.052 26.4994H223.044L219.816 23.6497C219.645 23.6274 219.474 23.6162 219.299 23.6162C217.152 23.6162 215.414 25.3573 215.414 27.5075C215.414 29.6578 217.152 31.3988 219.299 31.3988C221.443 31.3988 223.185 29.6578 223.185 27.5075C223.182 27.1578 223.137 26.8193 223.052 26.4994ZM219.296 28.8803C218.538 28.8803 217.921 28.2627 217.921 27.5038C217.921 26.7449 218.538 26.1273 219.296 26.1273C220.054 26.1273 220.667 26.7449 220.667 27.5038C220.67 28.2627 220.054 28.8803 219.296 28.8803Z" fill="#F4F4F4"/>
<path d="M249.911 26.4994H249.904L246.675 23.6497C246.504 23.6274 246.333 23.6162 246.159 23.6162C244.012 23.6162 242.273 25.3573 242.273 27.5075C242.273 29.6578 244.012 31.3988 246.159 31.3988C248.302 31.3988 250.045 29.6578 250.045 27.5075C250.041 27.1578 249.997 26.8193 249.911 26.4994ZM246.155 28.8803C245.397 28.8803 244.781 28.2627 244.781 27.5038C244.781 26.7449 245.397 26.1273 246.155 26.1273C246.913 26.1273 247.526 26.7449 247.526 27.5038C247.53 28.2627 246.913 28.8803 246.155 28.8803Z" fill="#F4F4F4"/>
<path d="M276.771 26.4994H276.763L273.535 23.6497C273.364 23.6274 273.193 23.6162 273.019 23.6162C270.871 23.6162 269.133 25.3573 269.133 27.5075C269.133 29.6578 270.871 31.3988 273.019 31.3988C275.162 31.3988 276.905 29.6578 276.905 27.5075C276.901 27.1578 276.856 26.8193 276.771 26.4994ZM273.015 28.8803C272.257 28.8803 271.64 28.2627 271.64 27.5038C271.64 26.7449 272.257 26.1273 273.015 26.1273C273.773 26.1273 274.386 26.7449 274.386 27.5038C274.39 28.2627 273.773 28.8803 273.015 28.8803Z" fill="#F4F4F4"/>
<path d="M303.631 26.4994H303.623L300.395 23.6497C300.224 23.6274 300.053 23.6162 299.879 23.6162C297.731 23.6162 295.993 25.3573 295.993 27.5075C295.993 29.6578 297.731 31.3988 299.879 31.3988C302.026 31.3988 303.765 29.6578 303.765 27.5075C303.761 27.1578 303.716 26.8193 303.631 26.4994ZM299.875 28.8803C299.117 28.8803 298.5 28.2627 298.5 27.5038C298.5 26.7449 299.117 26.1273 299.875 26.1273C300.633 26.1273 301.249 26.7449 301.249 27.5038C301.249 28.2627 300.633 28.8803 299.875 28.8803Z" fill="#F4F4F4"/>
<path d="M169.332 2.88314H169.325L166.096 0.0334817C165.926 0.0111606 165.755 0 165.576 0C163.429 0 161.69 1.74105 161.69 3.89131C161.69 6.04158 163.429 7.78263 165.576 7.78263C167.724 7.78263 169.462 6.04158 169.462 3.89131C169.462 3.54162 169.418 3.2068 169.332 2.88314ZM165.576 5.26406C164.818 5.26406 164.202 4.64651 164.202 3.88759C164.202 3.12867 164.818 2.51112 165.576 2.51112C166.334 2.51112 166.951 3.12867 166.951 3.88759C166.951 4.64651 166.334 5.26406 165.576 5.26406Z" fill="#F4F4F4"/>
<path d="M196.192 2.88314H196.184L192.956 0.0334817C192.785 0.0111606 192.614 0 192.436 0C190.288 0 188.55 1.74105 188.55 3.89131C188.55 6.04158 190.288 7.78263 192.436 7.78263C194.583 7.78263 196.322 6.04158 196.322 3.89131C196.322 3.54162 196.277 3.2068 196.192 2.88314ZM192.436 5.26406C191.678 5.26406 191.061 4.64651 191.061 3.88759C191.061 3.12867 191.678 2.51112 192.436 2.51112C193.194 2.51112 193.81 3.12867 193.81 3.88759C193.81 4.64651 193.194 5.26406 192.436 5.26406Z" fill="#F4F4F4"/>
<path d="M223.052 2.88314H223.044L219.816 0.0334817C219.645 0.0111606 219.474 0 219.296 0C217.148 0 215.41 1.74105 215.41 3.89131C215.41 6.04158 217.148 7.78263 219.296 7.78263C221.439 7.78263 223.182 6.04158 223.182 3.89131C223.182 3.54162 223.137 3.2068 223.052 2.88314ZM219.296 5.26406C218.538 5.26406 217.921 4.64651 217.921 3.88759C217.921 3.12867 218.538 2.51112 219.296 2.51112C220.053 2.51112 220.666 3.12867 220.666 3.88759C220.67 4.64651 220.053 5.26406 219.296 5.26406Z" fill="#F4F4F4"/>
<path d="M249.911 2.88314H249.904L246.676 0.0334817C246.505 0.0111606 246.334 0 246.155 0C244.008 0 242.27 1.74105 242.27 3.89131C242.27 6.04158 244.008 7.78263 246.155 7.78263C248.299 7.78263 250.041 6.04158 250.041 3.89131C250.041 3.54162 249.997 3.2068 249.911 2.88314ZM246.155 5.26406C245.398 5.26406 244.781 4.64651 244.781 3.88759C244.781 3.12867 245.398 2.51112 246.155 2.51112C246.913 2.51112 247.526 3.12867 247.526 3.88759C247.53 4.64651 246.913 5.26406 246.155 5.26406Z" fill="#F4F4F4"/>
<path d="M276.771 2.88314H276.763L273.535 0.0334817C273.364 0.0111606 273.193 0 273.015 0C270.871 0 269.133 1.74105 269.133 3.89131C269.133 6.04158 270.871 7.78263 273.019 7.78263C275.162 7.78263 276.905 6.04158 276.905 3.89131C276.901 3.54162 276.856 3.2068 276.771 2.88314ZM273.015 5.26406C272.257 5.26406 271.64 4.64651 271.64 3.88759C271.64 3.12867 272.257 2.51112 273.015 2.51112C273.773 2.51112 274.386 3.12867 274.386 3.88759C274.39 4.64651 273.773 5.26406 273.015 5.26406Z" fill="#F4F4F4"/>
<path d="M303.631 2.88314H303.623L300.395 0.0334817C300.224 0.0111606 300.053 0 299.875 0C297.727 0 295.989 1.74105 295.989 3.89131C295.989 6.04158 297.727 7.78263 299.875 7.78263C302.022 7.78263 303.761 6.04158 303.761 3.89131C303.761 3.54162 303.716 3.2068 303.631 2.88314ZM299.875 5.26406C299.117 5.26406 298.5 4.64651 298.5 3.88759C298.5 3.12867 299.117 2.51112 299.875 2.51112C300.633 2.51112 301.249 3.12867 301.249 3.88759C301.249 4.64651 300.633 5.26406 299.875 5.26406Z" fill="#F4F4F4"/>
<path d="M8.17376 357.104H8.16633L4.93796 354.254C4.76707 354.232 4.59618 354.221 4.42157 354.221C2.27428 354.221 0.535645 355.962 0.535645 358.108C0.535645 360.259 2.27428 362 4.42157 362C6.56515 362 8.3075 360.259 8.3075 358.108C8.30379 357.762 8.25921 357.424 8.17376 357.104ZM4.42157 359.485C3.66371 359.485 3.04701 358.867 3.04701 358.108C3.04701 357.349 3.66371 356.732 4.42157 356.732C5.17944 356.732 5.79242 357.349 5.79242 358.108C5.79242 358.867 5.17944 359.485 4.42157 359.485Z" fill="#F4F4F4"/>
<path d="M35.0336 357.104H35.0262L31.7978 354.254C31.6269 354.232 31.456 354.221 31.2814 354.221C29.1341 354.221 27.3955 355.962 27.3955 358.112C27.3955 360.262 29.1341 362.003 31.2814 362.003C33.425 362.003 35.1674 360.262 35.1674 358.112C35.1637 357.762 35.1191 357.424 35.0336 357.104ZM31.2814 359.485C30.5236 359.485 29.9069 358.867 29.9069 358.108C29.9069 357.349 30.5236 356.732 31.2814 356.732C32.0393 356.732 32.6523 357.349 32.6523 358.108C32.6523 358.867 32.0356 359.485 31.2814 359.485Z" fill="#F4F4F4"/>
<path d="M61.893 357.104H61.8856L58.6572 354.254C58.4863 354.232 58.3154 354.221 58.1408 354.221C55.9935 354.221 54.2549 355.962 54.2549 358.112C54.2549 360.262 55.9935 362.003 58.1408 362.003C60.2881 362.003 62.0267 360.262 62.0267 358.112C62.023 357.762 61.9784 357.424 61.893 357.104ZM58.1408 359.485C57.3829 359.485 56.7662 358.867 56.7662 358.108C56.7662 357.349 57.3829 356.732 58.1408 356.732C58.8987 356.732 59.5154 357.349 59.5154 358.108C59.5117 358.867 58.8987 359.485 58.1408 359.485Z" fill="#F4F4F4"/>
<path d="M88.7529 357.104H88.7454L85.5171 354.254C85.3462 354.232 85.1753 354.221 85.0007 354.221C82.8534 354.221 81.1147 355.962 81.1147 358.112C81.1147 360.262 82.8534 362.003 85.0007 362.003C87.148 362.003 88.8866 360.262 88.8866 358.112C88.8829 357.762 88.8383 357.424 88.7529 357.104ZM84.997 359.485C84.2391 359.485 83.6224 358.867 83.6224 358.108C83.6224 357.349 84.2391 356.732 84.997 356.732C85.7548 356.732 86.3678 357.349 86.3678 358.108C86.3715 358.867 85.7548 359.485 84.997 359.485Z" fill="#F4F4F4"/>
<path d="M115.613 357.104H115.605L112.377 354.254C112.206 354.232 112.035 354.221 111.861 354.221C109.713 354.221 107.975 355.962 107.975 358.112C107.975 360.262 109.713 362.003 111.861 362.003C114.004 362.003 115.746 360.262 115.746 358.112C115.743 357.762 115.698 357.424 115.613 357.104ZM111.857 359.485C111.099 359.485 110.482 358.867 110.482 358.108C110.482 357.349 111.099 356.732 111.857 356.732C112.615 356.732 113.228 357.349 113.228 358.108C113.231 358.867 112.615 359.485 111.857 359.485Z" fill="#F4F4F4"/>
<path d="M142.473 357.104H142.465L139.237 354.254C139.066 354.232 138.895 354.221 138.72 354.221C136.573 354.221 134.834 355.962 134.834 358.112C134.834 360.262 136.573 362.003 138.72 362.003C140.864 362.003 142.606 360.262 142.606 358.112C142.603 357.762 142.558 357.424 142.473 357.104ZM138.717 359.485C137.959 359.485 137.342 358.867 137.342 358.108C137.342 357.349 137.959 356.732 138.717 356.732C139.475 356.732 140.088 357.349 140.088 358.108C140.091 358.867 139.475 359.485 138.717 359.485Z" fill="#F4F4F4"/>
<path d="M8.17376 333.489H8.16633L4.93796 330.639C4.76707 330.617 4.59618 330.605 4.42157 330.605C2.27428 330.605 0.535645 332.347 0.535645 334.493C0.535645 336.64 2.27428 338.384 4.42157 338.384C6.56515 338.384 8.3075 336.643 8.3075 334.493C8.30379 334.147 8.25921 333.812 8.17376 333.489ZM4.42157 335.87C3.66371 335.87 3.04701 335.252 3.04701 334.493C3.04701 333.734 3.66371 333.117 4.42157 333.117C5.17944 333.117 5.79242 333.734 5.79242 334.493C5.79242 335.252 5.17944 335.87 4.42157 335.87Z" fill="#F4F4F4"/>
<path d="M35.0336 333.489H35.0262L31.7978 330.639C31.6269 330.617 31.456 330.605 31.2814 330.605C29.1341 330.605 27.3955 332.347 27.3955 334.497C27.3955 336.643 29.1341 338.388 31.2814 338.388C33.425 338.388 35.1674 336.647 35.1674 334.497C35.1637 334.147 35.1191 333.812 35.0336 333.489ZM31.2814 335.87C30.5236 335.87 29.9069 335.252 29.9069 334.493C29.9069 333.734 30.5236 333.117 31.2814 333.117C32.0393 333.117 32.6523 333.734 32.6523 334.493C32.6523 335.252 32.0356 335.87 31.2814 335.87Z" fill="#F4F4F4"/>
<path d="M61.893 333.489H61.8856L58.6572 330.639C58.4863 330.617 58.3154 330.605 58.1408 330.605C55.9935 330.605 54.2549 332.347 54.2549 334.497C54.2549 336.643 55.9935 338.388 58.1408 338.388C60.2881 338.388 62.0267 336.647 62.0267 334.497C62.023 334.147 61.9784 333.812 61.893 333.489ZM58.1408 335.87C57.3829 335.87 56.7662 335.252 56.7662 334.493C56.7662 333.734 57.3829 333.117 58.1408 333.117C58.8987 333.117 59.5154 333.734 59.5154 334.493C59.5117 335.252 58.8987 335.87 58.1408 335.87Z" fill="#F4F4F4"/>
<path d="M88.7529 333.489H88.7454L85.5171 330.639C85.3462 330.617 85.1753 330.605 85.0007 330.605C82.8534 330.605 81.1147 332.347 81.1147 334.497C81.1147 336.643 82.8534 338.388 85.0007 338.388C87.148 338.388 88.8866 336.647 88.8866 334.497C88.8829 334.147 88.8383 333.812 88.7529 333.489ZM84.997 335.87C84.2391 335.87 83.6224 335.252 83.6224 334.493C83.6224 333.734 84.2391 333.117 84.997 333.117C85.7548 333.117 86.3678 333.734 86.3678 334.493C86.3715 335.252 85.7548 335.87 84.997 335.87Z" fill="#F4F4F4"/>
<path d="M115.613 333.489H115.605L112.377 330.639C112.206 330.617 112.035 330.605 111.861 330.605C109.713 330.605 107.975 332.347 107.975 334.497C107.975 336.643 109.713 338.388 111.861 338.388C114.004 338.388 115.746 336.647 115.746 334.497C115.743 334.147 115.698 333.812 115.613 333.489ZM111.857 335.87C111.099 335.87 110.482 335.252 110.482 334.493C110.482 333.734 111.099 333.117 111.857 333.117C112.615 333.117 113.228 333.734 113.228 334.493C113.231 335.252 112.615 335.87 111.857 335.87Z" fill="#F4F4F4"/>
<path d="M142.473 333.489H142.465L139.237 330.639C139.066 330.617 138.895 330.605 138.72 330.605C136.573 330.605 134.834 332.347 134.834 334.497C134.834 336.643 136.573 338.388 138.72 338.388C140.864 338.388 142.606 336.647 142.606 334.497C142.603 334.147 142.558 333.812 142.473 333.489ZM138.717 335.87C137.959 335.87 137.342 335.252 137.342 334.493C137.342 333.734 137.959 333.117 138.717 333.117C139.475 333.117 140.088 333.734 140.088 334.493C140.091 335.252 139.475 335.87 138.717 335.87Z" fill="#F4F4F4"/>
<path d="M8.17376 309.876H8.16633L4.93796 307.027C4.76707 307.004 4.59618 306.993 4.42157 306.993C2.27428 306.989 0.535645 308.73 0.535645 310.881C0.535645 313.031 2.27428 314.772 4.42157 314.772C6.56515 314.772 8.3075 313.031 8.3075 310.881C8.30379 310.531 8.25921 310.196 8.17376 309.876ZM4.42157 312.257C3.66371 312.257 3.04701 311.64 3.04701 310.881C3.04701 310.122 3.66371 309.504 4.42157 309.504C5.17944 309.504 5.79242 310.122 5.79242 310.881C5.79242 311.64 5.17944 312.257 4.42157 312.257Z" fill="#F4F4F4"/>
<path d="M35.0336 309.876H35.0262L31.7978 307.027C31.6269 307.004 31.456 306.993 31.2814 306.993C29.1341 306.993 27.3955 308.734 27.3955 310.884C27.3955 313.035 29.1341 314.776 31.2814 314.776C33.425 314.776 35.1674 313.035 35.1674 310.884C35.1637 310.531 35.1191 310.196 35.0336 309.876ZM31.2814 312.257C30.5236 312.257 29.9069 311.64 29.9069 310.881C29.9069 310.122 30.5236 309.504 31.2814 309.504C32.0393 309.504 32.6523 310.122 32.6523 310.881C32.6523 311.64 32.0356 312.257 31.2814 312.257Z" fill="#F4F4F4"/>
<path d="M61.893 309.876H61.8856L58.6572 307.027C58.4863 307.004 58.3154 306.993 58.1408 306.993C55.9935 306.993 54.2549 308.734 54.2549 310.884C54.2549 313.035 55.9935 314.776 58.1408 314.776C60.2881 314.776 62.0267 313.035 62.0267 310.884C62.023 310.531 61.9784 310.196 61.893 309.876ZM58.1408 312.257C57.3829 312.257 56.7662 311.64 56.7662 310.881C56.7662 310.122 57.3829 309.504 58.1408 309.504C58.8987 309.504 59.5154 310.122 59.5154 310.881C59.5117 311.64 58.8987 312.257 58.1408 312.257Z" fill="#F4F4F4"/>
<path d="M88.7529 309.876H88.7454L85.5171 307.027C85.3462 307.004 85.1753 306.993 85.0007 306.993C82.8534 306.993 81.1147 308.734 81.1147 310.884C81.1147 313.035 82.8534 314.776 85.0007 314.776C87.148 314.776 88.8866 313.035 88.8866 310.884C88.8829 310.531 88.8383 310.196 88.7529 309.876ZM84.997 312.257C84.2391 312.257 83.6224 311.64 83.6224 310.881C83.6224 310.122 84.2391 309.504 84.997 309.504C85.7548 309.504 86.3678 310.122 86.3678 310.881C86.3715 311.64 85.7548 312.257 84.997 312.257Z" fill="#F4F4F4"/>
<path d="M115.613 309.876H115.605L112.377 307.027C112.206 307.004 112.035 306.993 111.861 306.993C109.713 306.993 107.975 308.734 107.975 310.884C107.975 313.035 109.713 314.776 111.861 314.776C114.004 314.776 115.746 313.035 115.746 310.884C115.743 310.531 115.698 310.196 115.613 309.876ZM111.857 312.257C111.099 312.257 110.482 311.64 110.482 310.881C110.482 310.122 111.099 309.504 111.857 309.504C112.615 309.504 113.228 310.122 113.228 310.881C113.231 311.64 112.615 312.257 111.857 312.257Z" fill="#F4F4F4"/>
<path d="M142.473 309.876H142.465L139.237 307.027C139.066 307.004 138.895 306.993 138.72 306.993C136.573 306.993 134.834 308.734 134.834 310.884C134.834 313.035 136.573 314.776 138.72 314.776C140.864 314.776 142.606 313.035 142.606 310.884C142.603 310.531 142.558 310.196 142.473 309.876ZM138.717 312.257C137.959 312.257 137.342 311.64 137.342 310.881C137.342 310.122 137.959 309.504 138.717 309.504C139.475 309.504 140.088 310.122 140.088 310.881C140.091 311.64 139.475 312.257 138.717 312.257Z" fill="#F4F4F4"/>
<path d="M8.17376 286.261H8.16633L4.93796 283.411C4.76707 283.389 4.59618 283.378 4.42157 283.378C2.27428 283.374 0.535645 285.115 0.535645 287.266C0.535645 289.412 2.27428 291.157 4.42157 291.157C6.56515 291.157 8.3075 289.416 8.3075 287.266C8.30379 286.916 8.25921 286.581 8.17376 286.261ZM4.42157 288.642C3.66371 288.642 3.04701 288.024 3.04701 287.266C3.04701 286.507 3.66371 285.889 4.42157 285.889C5.17944 285.889 5.79242 286.507 5.79242 287.266C5.79242 288.024 5.17944 288.642 4.42157 288.642Z" fill="#F4F4F4"/>
<path d="M35.0336 286.261H35.0262L31.7978 283.411C31.6269 283.389 31.456 283.378 31.2814 283.378C29.1341 283.378 27.3955 285.119 27.3955 287.269C27.3955 289.416 29.1341 291.161 31.2814 291.161C33.425 291.161 35.1674 289.42 35.1674 287.269C35.1637 286.916 35.1191 286.581 35.0336 286.261ZM31.2814 288.642C30.5236 288.642 29.9069 288.024 29.9069 287.266C29.9069 286.507 30.5236 285.889 31.2814 285.889C32.0393 285.889 32.6523 286.507 32.6523 287.266C32.6523 288.024 32.0356 288.642 31.2814 288.642Z" fill="#F4F4F4"/>
<path d="M61.893 286.261H61.8856L58.6572 283.411C58.4863 283.389 58.3154 283.378 58.1408 283.378C55.9935 283.378 54.2549 285.119 54.2549 287.269C54.2549 289.416 55.9935 291.161 58.1408 291.161C60.2881 291.161 62.0267 289.42 62.0267 287.269C62.023 286.916 61.9784 286.581 61.893 286.261ZM58.1408 288.642C57.3829 288.642 56.7662 288.024 56.7662 287.266C56.7662 286.507 57.3829 285.889 58.1408 285.889C58.8987 285.889 59.5154 286.507 59.5154 287.266C59.5117 288.024 58.8987 288.642 58.1408 288.642Z" fill="#F4F4F4"/>
<path d="M88.7529 286.261H88.7454L85.5171 283.411C85.3462 283.389 85.1753 283.378 85.0007 283.378C82.8534 283.378 81.1147 285.119 81.1147 287.269C81.1147 289.416 82.8534 291.161 85.0007 291.161C87.148 291.161 88.8866 289.42 88.8866 287.269C88.8829 286.916 88.8383 286.581 88.7529 286.261ZM84.997 288.642C84.2391 288.642 83.6224 288.024 83.6224 287.266C83.6224 286.507 84.2391 285.889 84.997 285.889C85.7548 285.889 86.3678 286.507 86.3678 287.266C86.3715 288.024 85.7548 288.642 84.997 288.642Z" fill="#F4F4F4"/>
<path d="M115.613 286.261H115.605L112.377 283.411C112.206 283.389 112.035 283.378 111.861 283.378C109.713 283.378 107.975 285.119 107.975 287.269C107.975 289.416 109.713 291.161 111.861 291.161C114.004 291.161 115.746 289.42 115.746 287.269C115.743 286.916 115.698 286.581 115.613 286.261ZM111.857 288.642C111.099 288.642 110.482 288.024 110.482 287.266C110.482 286.507 111.099 285.889 111.857 285.889C112.615 285.889 113.228 286.507 113.228 287.266C113.231 288.024 112.615 288.642 111.857 288.642Z" fill="#F4F4F4"/>
<path d="M142.473 286.261H142.465L139.237 283.411C139.066 283.389 138.895 283.378 138.72 283.378C136.573 283.378 134.834 285.119 134.834 287.269C134.834 289.416 136.573 291.161 138.72 291.161C140.864 291.161 142.606 289.42 142.606 287.269C142.603 286.916 142.558 286.581 142.473 286.261ZM138.717 288.642C137.959 288.642 137.342 288.024 137.342 287.266C137.342 286.507 137.959 285.889 138.717 285.889C139.475 285.889 140.088 286.507 140.088 287.266C140.091 288.024 139.475 288.642 138.717 288.642Z" fill="#F4F4F4"/>
<path d="M8.17376 262.645H8.16633L4.93796 259.795C4.76707 259.773 4.59618 259.762 4.42157 259.762C2.27428 259.762 0.535645 261.503 0.535645 263.649C0.535645 265.8 2.27428 267.541 4.42157 267.541C6.56515 267.541 8.3075 265.8 8.3075 263.649C8.30379 263.303 8.25921 262.965 8.17376 262.645ZM4.42157 265.026C3.66371 265.026 3.04701 264.408 3.04701 263.649C3.04701 262.89 3.66371 262.273 4.42157 262.273C5.17944 262.273 5.79242 262.89 5.79242 263.649C5.79242 264.408 5.17944 265.026 4.42157 265.026Z" fill="#F4F4F4"/>
<path d="M35.0336 262.645H35.0262L31.7978 259.795C31.6269 259.773 31.456 259.762 31.2814 259.762C29.1341 259.762 27.3955 261.503 27.3955 263.653C27.3955 265.803 29.1341 267.544 31.2814 267.544C33.425 267.544 35.1674 265.803 35.1674 263.653C35.1637 263.303 35.1191 262.965 35.0336 262.645ZM31.2814 265.026C30.5236 265.026 29.9069 264.408 29.9069 263.649C29.9069 262.89 30.5236 262.273 31.2814 262.273C32.0393 262.273 32.6523 262.89 32.6523 263.649C32.6523 264.408 32.0356 265.026 31.2814 265.026Z" fill="#F4F4F4"/>
<path d="M61.893 262.645H61.8856L58.6572 259.795C58.4863 259.773 58.3154 259.762 58.1408 259.762C55.9935 259.762 54.2549 261.503 54.2549 263.653C54.2549 265.803 55.9935 267.544 58.1408 267.544C60.2881 267.544 62.0267 265.803 62.0267 263.653C62.023 263.303 61.9784 262.965 61.893 262.645ZM58.1408 265.026C57.3829 265.026 56.7662 264.408 56.7662 263.649C56.7662 262.89 57.3829 262.273 58.1408 262.273C58.8987 262.273 59.5154 262.89 59.5154 263.649C59.5117 264.408 58.8987 265.026 58.1408 265.026Z" fill="#F4F4F4"/>
<path d="M88.7529 262.645H88.7454L85.5171 259.795C85.3462 259.773 85.1753 259.762 85.0007 259.762C82.8534 259.762 81.1147 261.503 81.1147 263.653C81.1147 265.803 82.8534 267.544 85.0007 267.544C87.148 267.544 88.8866 265.803 88.8866 263.653C88.8829 263.303 88.8383 262.965 88.7529 262.645ZM84.997 265.026C84.2391 265.026 83.6224 264.408 83.6224 263.649C83.6224 262.89 84.2391 262.273 84.997 262.273C85.7548 262.273 86.3678 262.89 86.3678 263.649C86.3715 264.408 85.7548 265.026 84.997 265.026Z" fill="#F4F4F4"/>
<path d="M115.613 262.645H115.605L112.377 259.795C112.206 259.773 112.035 259.762 111.861 259.762C109.713 259.762 107.975 261.503 107.975 263.653C107.975 265.803 109.713 267.544 111.861 267.544C114.004 267.544 115.746 265.803 115.746 263.653C115.743 263.303 115.698 262.965 115.613 262.645ZM111.857 265.026C111.099 265.026 110.482 264.408 110.482 263.649C110.482 262.89 111.099 262.273 111.857 262.273C112.615 262.273 113.228 262.89 113.228 263.649C113.231 264.408 112.615 265.026 111.857 265.026Z" fill="#F4F4F4"/>
<path d="M142.473 262.645H142.465L139.237 259.795C139.066 259.773 138.895 259.762 138.72 259.762C136.573 259.762 134.834 261.503 134.834 263.653C134.834 265.803 136.573 267.544 138.72 267.544C140.864 267.544 142.606 265.803 142.606 263.653C142.603 263.303 142.558 262.965 142.473 262.645ZM138.717 265.026C137.959 265.026 137.342 264.408 137.342 263.649C137.342 262.89 137.959 262.273 138.717 262.273C139.475 262.273 140.088 262.89 140.088 263.649C140.091 264.408 139.475 265.026 138.717 265.026Z" fill="#F4F4F4"/>
<path d="M8.17376 239.03H8.16633L4.93796 236.18C4.76707 236.158 4.59618 236.146 4.42157 236.146C2.27428 236.146 0.535645 237.888 0.535645 240.038C0.535645 242.188 2.27428 243.929 4.42157 243.929C6.56515 243.929 8.3075 242.188 8.3075 240.038C8.30379 239.688 8.25921 239.353 8.17376 239.03ZM4.42157 241.411C3.66371 241.411 3.04701 240.793 3.04701 240.034C3.04701 239.275 3.66371 238.658 4.42157 238.658C5.17944 238.658 5.79242 239.275 5.79242 240.034C5.79242 240.797 5.17944 241.411 4.42157 241.411Z" fill="#F4F4F4"/>
<path d="M35.0336 239.03H35.0262L31.7978 236.18C31.6269 236.158 31.456 236.146 31.2814 236.146C29.1341 236.146 27.3955 237.888 27.3955 240.038C27.3955 242.188 29.1341 243.929 31.2814 243.929C33.425 243.929 35.1674 242.188 35.1674 240.038C35.1637 239.688 35.1191 239.353 35.0336 239.03ZM31.2814 241.411C30.5236 241.411 29.9069 240.793 29.9069 240.034C29.9069 239.275 30.5236 238.658 31.2814 238.658C32.0393 238.658 32.6523 239.275 32.6523 240.034C32.6523 240.797 32.0356 241.411 31.2814 241.411Z" fill="#F4F4F4"/>
<path d="M61.893 239.03H61.8856L58.6572 236.18C58.4863 236.158 58.3154 236.146 58.1408 236.146C55.9935 236.146 54.2549 237.888 54.2549 240.038C54.2549 242.188 55.9935 243.929 58.1408 243.929C60.2881 243.929 62.0267 242.188 62.0267 240.038C62.023 239.688 61.9784 239.353 61.893 239.03ZM58.1408 241.411C57.3829 241.411 56.7662 240.793 56.7662 240.034C56.7662 239.275 57.3829 238.658 58.1408 238.658C58.8987 238.658 59.5154 239.275 59.5154 240.034C59.5117 240.797 58.8987 241.411 58.1408 241.411Z" fill="#F4F4F4"/>
<path d="M88.7529 239.03H88.7454L85.5171 236.18C85.3462 236.158 85.1753 236.146 85.0007 236.146C82.8534 236.146 81.1147 237.888 81.1147 240.038C81.1147 242.188 82.8534 243.929 85.0007 243.929C87.148 243.929 88.8866 242.188 88.8866 240.038C88.8829 239.688 88.8383 239.353 88.7529 239.03ZM84.997 241.411C84.2391 241.411 83.6224 240.793 83.6224 240.034C83.6224 239.275 84.2391 238.658 84.997 238.658C85.7548 238.658 86.3678 239.275 86.3678 240.034C86.3715 240.797 85.7548 241.411 84.997 241.411Z" fill="#F4F4F4"/>
<path d="M115.613 239.03H115.605L112.377 236.18C112.206 236.158 112.035 236.146 111.861 236.146C109.713 236.146 107.975 237.888 107.975 240.038C107.975 242.188 109.713 243.929 111.861 243.929C114.004 243.929 115.746 242.188 115.746 240.038C115.743 239.688 115.698 239.353 115.613 239.03ZM111.857 241.411C111.099 241.411 110.482 240.793 110.482 240.034C110.482 239.275 111.099 238.658 111.857 238.658C112.615 238.658 113.228 239.275 113.228 240.034C113.231 240.797 112.615 241.411 111.857 241.411Z" fill="#F4F4F4"/>
<path d="M142.473 239.03H142.465L139.237 236.18C139.066 236.158 138.895 236.146 138.72 236.146C136.573 236.146 134.834 237.888 134.834 240.038C134.834 242.188 136.573 243.929 138.72 243.929C140.864 243.929 142.606 242.188 142.606 240.038C142.603 239.688 142.558 239.353 142.473 239.03ZM138.717 241.411C137.959 241.411 137.342 240.793 137.342 240.034C137.342 239.275 137.959 238.658 138.717 238.658C139.475 238.658 140.088 239.275 140.088 240.034C140.091 240.797 139.475 241.411 138.717 241.411Z" fill="#F4F4F4"/>
<path d="M8.17376 215.417H8.16633L4.93796 212.568C4.76707 212.545 4.59618 212.534 4.42157 212.534C2.27428 212.53 0.535645 214.272 0.535645 216.422C0.535645 218.572 2.27428 220.313 4.42157 220.313C6.56515 220.313 8.3075 218.572 8.3075 216.422C8.30379 216.072 8.25921 215.737 8.17376 215.417ZM4.42157 217.798C3.66371 217.798 3.04701 217.181 3.04701 216.422C3.04701 215.663 3.66371 215.045 4.42157 215.045C5.17944 215.045 5.79242 215.663 5.79242 216.422C5.79242 217.181 5.17944 217.798 4.42157 217.798Z" fill="#F4F4F4"/>
<path d="M35.0336 215.417H35.0262L31.7978 212.568C31.6269 212.545 31.456 212.534 31.2814 212.534C29.1341 212.534 27.3955 214.275 27.3955 216.426C27.3955 218.576 29.1341 220.317 31.2814 220.317C33.425 220.317 35.1674 218.576 35.1674 216.426C35.1637 216.072 35.1191 215.737 35.0336 215.417ZM31.2814 217.798C30.5236 217.798 29.9069 217.181 29.9069 216.422C29.9069 215.663 30.5236 215.045 31.2814 215.045C32.0393 215.045 32.6523 215.663 32.6523 216.422C32.6523 217.181 32.0356 217.798 31.2814 217.798Z" fill="#F4F4F4"/>
<path d="M61.893 215.417H61.8856L58.6572 212.568C58.4863 212.545 58.3154 212.534 58.1408 212.534C55.9935 212.534 54.2549 214.275 54.2549 216.426C54.2549 218.576 55.9935 220.317 58.1408 220.317C60.2881 220.317 62.0267 218.576 62.0267 216.426C62.023 216.072 61.9784 215.737 61.893 215.417ZM58.1408 217.798C57.3829 217.798 56.7662 217.181 56.7662 216.422C56.7662 215.663 57.3829 215.045 58.1408 215.045C58.8987 215.045 59.5154 215.663 59.5154 216.422C59.5117 217.181 58.8987 217.798 58.1408 217.798Z" fill="#F4F4F4"/>
<path d="M88.7529 215.417H88.7454L85.5171 212.568C85.3462 212.545 85.1753 212.534 85.0007 212.534C82.8534 212.534 81.1147 214.275 81.1147 216.426C81.1147 218.576 82.8534 220.317 85.0007 220.317C87.148 220.317 88.8866 218.576 88.8866 216.426C88.8829 216.072 88.8383 215.737 88.7529 215.417ZM84.997 217.798C84.2391 217.798 83.6224 217.181 83.6224 216.422C83.6224 215.663 84.2391 215.045 84.997 215.045C85.7548 215.045 86.3678 215.663 86.3678 216.422C86.3715 217.181 85.7548 217.798 84.997 217.798Z" fill="#F4F4F4"/>
<path d="M115.613 215.417H115.605L112.377 212.568C112.206 212.545 112.035 212.534 111.861 212.534C109.713 212.534 107.975 214.275 107.975 216.426C107.975 218.576 109.713 220.317 111.861 220.317C114.004 220.317 115.746 218.576 115.746 216.426C115.743 216.072 115.698 215.737 115.613 215.417ZM111.857 217.798C111.099 217.798 110.482 217.181 110.482 216.422C110.482 215.663 111.099 215.045 111.857 215.045C112.615 215.045 113.228 215.663 113.228 216.422C113.231 217.181 112.615 217.798 111.857 217.798Z" fill="#F4F4F4"/>
<path d="M142.473 215.417H142.465L139.237 212.568C139.066 212.545 138.895 212.534 138.72 212.534C136.573 212.534 134.834 214.275 134.834 216.426C134.834 218.576 136.573 220.317 138.72 220.317C140.864 220.317 142.606 218.576 142.606 216.426C142.603 216.072 142.558 215.737 142.473 215.417ZM138.717 217.798C137.959 217.798 137.342 217.181 137.342 216.422C137.342 215.663 137.959 215.045 138.717 215.045C139.475 215.045 140.088 215.663 140.088 216.422C140.091 217.181 139.475 217.798 138.717 217.798Z" fill="#F4F4F4"/>
<path d="M8.17376 191.801H8.16633L4.93796 188.951C4.76707 188.929 4.59618 188.918 4.42157 188.918C2.27428 188.918 0.535645 190.659 0.535645 192.806C0.535645 194.956 2.27428 196.697 4.42157 196.697C6.56515 196.697 8.3075 194.956 8.3075 192.806C8.30379 192.46 8.25921 192.121 8.17376 191.801ZM4.42157 194.182C3.66371 194.182 3.04701 193.564 3.04701 192.806C3.04701 192.047 3.66371 191.429 4.42157 191.429C5.17944 191.429 5.79242 192.047 5.79242 192.806C5.79242 193.564 5.17944 194.182 4.42157 194.182Z" fill="#F4F4F4"/>
<path d="M35.0336 191.801H35.0262L31.7978 188.951C31.6269 188.929 31.456 188.918 31.2814 188.918C29.1341 188.918 27.3955 190.659 27.3955 192.809C27.3955 194.96 29.1341 196.701 31.2814 196.701C33.425 196.701 35.1674 194.96 35.1674 192.809C35.1637 192.46 35.1191 192.121 35.0336 191.801ZM31.2814 194.182C30.5236 194.182 29.9069 193.564 29.9069 192.806C29.9069 192.047 30.5236 191.429 31.2814 191.429C32.0393 191.429 32.6523 192.047 32.6523 192.806C32.6523 193.564 32.0356 194.182 31.2814 194.182Z" fill="#F4F4F4"/>
<path d="M61.893 191.801H61.8856L58.6572 188.951C58.4863 188.929 58.3154 188.918 58.1408 188.918C55.9935 188.918 54.2549 190.659 54.2549 192.809C54.2549 194.96 55.9935 196.701 58.1408 196.701C60.2881 196.701 62.0267 194.96 62.0267 192.809C62.023 192.46 61.9784 192.121 61.893 191.801ZM58.1408 194.182C57.3829 194.182 56.7662 193.564 56.7662 192.806C56.7662 192.047 57.3829 191.429 58.1408 191.429C58.8987 191.429 59.5154 192.047 59.5154 192.806C59.5117 193.564 58.8987 194.182 58.1408 194.182Z" fill="#F4F4F4"/>
<path d="M88.7529 191.801H88.7454L85.5171 188.951C85.3462 188.929 85.1753 188.918 85.0007 188.918C82.8534 188.918 81.1147 190.659 81.1147 192.809C81.1147 194.96 82.8534 196.701 85.0007 196.701C87.148 196.701 88.8866 194.96 88.8866 192.809C88.8829 192.46 88.8383 192.121 88.7529 191.801ZM84.997 194.182C84.2391 194.182 83.6224 193.564 83.6224 192.806C83.6224 192.047 84.2391 191.429 84.997 191.429C85.7548 191.429 86.3678 192.047 86.3678 192.806C86.3715 193.564 85.7548 194.182 84.997 194.182Z" fill="#F4F4F4"/>
<path d="M115.613 191.801H115.605L112.377 188.951C112.206 188.929 112.035 188.918 111.861 188.918C109.713 188.918 107.975 190.659 107.975 192.809C107.975 194.96 109.713 196.701 111.861 196.701C114.004 196.701 115.746 194.96 115.746 192.809C115.743 192.46 115.698 192.121 115.613 191.801ZM111.857 194.182C111.099 194.182 110.482 193.564 110.482 192.806C110.482 192.047 111.099 191.429 111.857 191.429C112.615 191.429 113.228 192.047 113.228 192.806C113.231 193.564 112.615 194.182 111.857 194.182Z" fill="#F4F4F4"/>
<path d="M142.473 191.801H142.465L139.237 188.951C139.066 188.929 138.895 188.918 138.72 188.918C136.573 188.918 134.834 190.659 134.834 192.809C134.834 194.96 136.573 196.701 138.72 196.701C140.864 196.701 142.606 194.96 142.606 192.809C142.603 192.46 142.558 192.121 142.473 191.801ZM138.717 194.182C137.959 194.182 137.342 193.564 137.342 192.806C137.342 192.047 137.959 191.429 138.717 191.429C139.475 191.429 140.088 192.047 140.088 192.806C140.091 193.564 139.475 194.182 138.717 194.182Z" fill="#F4F4F4"/>
<path d="M169.332 357.104H169.325L166.096 354.254C165.925 354.232 165.754 354.221 165.58 354.221C163.432 354.221 161.694 355.962 161.694 358.112C161.694 360.262 163.432 362.003 165.58 362.003C167.727 362.003 169.466 360.262 169.466 358.112C169.462 357.762 169.417 357.424 169.332 357.104ZM165.576 359.485C164.818 359.485 164.201 358.867 164.201 358.108C164.201 357.349 164.818 356.732 165.576 356.732C166.334 356.732 166.951 357.349 166.951 358.108C166.951 358.867 166.334 359.485 165.576 359.485Z" fill="#F4F4F4"/>
<path d="M196.192 357.104H196.184L192.956 354.254C192.785 354.232 192.614 354.221 192.44 354.221C190.292 354.221 188.554 355.962 188.554 358.112C188.554 360.262 190.292 362.003 192.44 362.003C194.587 362.003 196.326 360.262 196.326 358.112C196.322 357.762 196.277 357.424 196.192 357.104ZM192.436 359.485C191.678 359.485 191.061 358.867 191.061 358.108C191.061 357.349 191.678 356.732 192.436 356.732C193.194 356.732 193.81 357.349 193.81 358.108C193.81 358.867 193.194 359.485 192.436 359.485Z" fill="#F4F4F4"/>
<path d="M223.052 357.104H223.044L219.816 354.254C219.645 354.232 219.474 354.221 219.299 354.221C217.152 354.221 215.414 355.962 215.414 358.112C215.414 360.262 217.152 362.003 219.299 362.003C221.443 362.003 223.185 360.262 223.185 358.112C223.182 357.762 223.137 357.424 223.052 357.104ZM219.296 359.485C218.538 359.485 217.921 358.867 217.921 358.108C217.921 357.349 218.538 356.732 219.296 356.732C220.054 356.732 220.667 357.349 220.667 358.108C220.67 358.867 220.054 359.485 219.296 359.485Z" fill="#F4F4F4"/>
<path d="M249.911 357.104H249.904L246.675 354.254C246.504 354.232 246.333 354.221 246.159 354.221C244.012 354.221 242.273 355.962 242.273 358.112C242.273 360.262 244.012 362.003 246.159 362.003C248.302 362.003 250.045 360.262 250.045 358.112C250.041 357.762 249.997 357.424 249.911 357.104ZM246.155 359.485C245.397 359.485 244.781 358.867 244.781 358.108C244.781 357.349 245.397 356.732 246.155 356.732C246.913 356.732 247.526 357.349 247.526 358.108C247.53 358.867 246.913 359.485 246.155 359.485Z" fill="#F4F4F4"/>
<path d="M276.771 357.104H276.763L273.535 354.254C273.364 354.232 273.193 354.221 273.019 354.221C270.871 354.221 269.133 355.962 269.133 358.112C269.133 360.262 270.871 362.003 273.019 362.003C275.162 362.003 276.905 360.262 276.905 358.112C276.901 357.762 276.856 357.424 276.771 357.104ZM273.015 359.485C272.257 359.485 271.64 358.867 271.64 358.108C271.64 357.349 272.257 356.732 273.015 356.732C273.773 356.732 274.386 357.349 274.386 358.108C274.39 358.867 273.773 359.485 273.015 359.485Z" fill="#F4F4F4"/>
<path d="M303.631 357.104H303.623L300.395 354.254C300.224 354.232 300.053 354.221 299.879 354.221C297.731 354.221 295.993 355.962 295.993 358.112C295.993 360.262 297.731 362.003 299.879 362.003C302.026 362.003 303.765 360.262 303.765 358.112C303.761 357.762 303.716 357.424 303.631 357.104ZM299.875 359.485C299.117 359.485 298.5 358.867 298.5 358.108C298.5 357.349 299.117 356.732 299.875 356.732C300.633 356.732 301.249 357.349 301.249 358.108C301.249 358.867 300.633 359.485 299.875 359.485Z" fill="#F4F4F4"/>
<path d="M169.332 333.489H169.325L166.096 330.639C165.925 330.617 165.754 330.605 165.58 330.605C163.432 330.605 161.694 332.347 161.694 334.497C161.694 336.643 163.432 338.388 165.58 338.388C167.727 338.388 169.466 336.647 169.466 334.497C169.462 334.147 169.417 333.812 169.332 333.489ZM165.576 335.87C164.818 335.87 164.201 335.252 164.201 334.493C164.201 333.734 164.818 333.117 165.576 333.117C166.334 333.117 166.951 333.734 166.951 334.493C166.951 335.252 166.334 335.87 165.576 335.87Z" fill="#F4F4F4"/>
<path d="M196.192 333.489H196.184L192.956 330.639C192.785 330.617 192.614 330.605 192.44 330.605C190.292 330.605 188.554 332.347 188.554 334.497C188.554 336.643 190.292 338.388 192.44 338.388C194.587 338.388 196.326 336.647 196.326 334.497C196.322 334.147 196.277 333.812 196.192 333.489ZM192.436 335.87C191.678 335.87 191.061 335.252 191.061 334.493C191.061 333.734 191.678 333.117 192.436 333.117C193.194 333.117 193.81 333.734 193.81 334.493C193.81 335.252 193.194 335.87 192.436 335.87Z" fill="#F4F4F4"/>
<path d="M223.052 333.489H223.044L219.816 330.639C219.645 330.617 219.474 330.605 219.299 330.605C217.152 330.605 215.414 332.347 215.414 334.497C215.414 336.643 217.152 338.388 219.299 338.388C221.443 338.388 223.185 336.647 223.185 334.497C223.182 334.147 223.137 333.812 223.052 333.489ZM219.296 335.87C218.538 335.87 217.921 335.252 217.921 334.493C217.921 333.734 218.538 333.117 219.296 333.117C220.054 333.117 220.667 333.734 220.667 334.493C220.67 335.252 220.054 335.87 219.296 335.87Z" fill="#F4F4F4"/>
<path d="M249.911 333.489H249.904L246.675 330.639C246.504 330.617 246.333 330.605 246.159 330.605C244.012 330.605 242.273 332.347 242.273 334.497C242.273 336.643 244.012 338.388 246.159 338.388C248.302 338.388 250.045 336.647 250.045 334.497C250.041 334.147 249.997 333.812 249.911 333.489ZM246.155 335.87C245.397 335.87 244.781 335.252 244.781 334.493C244.781 333.734 245.397 333.117 246.155 333.117C246.913 333.117 247.526 333.734 247.526 334.493C247.53 335.252 246.913 335.87 246.155 335.87Z" fill="#F4F4F4"/>
<path d="M276.771 333.489H276.763L273.535 330.639C273.364 330.617 273.193 330.605 273.019 330.605C270.871 330.605 269.133 332.347 269.133 334.497C269.133 336.643 270.871 338.388 273.019 338.388C275.162 338.388 276.905 336.647 276.905 334.497C276.901 334.147 276.856 333.812 276.771 333.489ZM273.015 335.87C272.257 335.87 271.64 335.252 271.64 334.493C271.64 333.734 272.257 333.117 273.015 333.117C273.773 333.117 274.386 333.734 274.386 334.493C274.39 335.252 273.773 335.87 273.015 335.87Z" fill="#F4F4F4"/>
<path d="M303.631 333.489H303.623L300.395 330.639C300.224 330.617 300.053 330.605 299.879 330.605C297.731 330.605 295.993 332.347 295.993 334.497C295.993 336.643 297.731 338.388 299.879 338.388C302.026 338.388 303.765 336.647 303.765 334.497C303.761 334.147 303.716 333.812 303.631 333.489ZM299.875 335.87C299.117 335.87 298.5 335.252 298.5 334.493C298.5 333.734 299.117 333.117 299.875 333.117C300.633 333.117 301.249 333.734 301.249 334.493C301.249 335.252 300.633 335.87 299.875 335.87Z" fill="#F4F4F4"/>
<path d="M169.332 309.876H169.325L166.096 307.027C165.925 307.004 165.754 306.993 165.58 306.993C163.432 306.993 161.694 308.734 161.694 310.884C161.694 313.035 163.432 314.776 165.58 314.776C167.727 314.776 169.466 313.035 169.466 310.884C169.462 310.531 169.417 310.196 169.332 309.876ZM165.576 312.257C164.818 312.257 164.201 311.64 164.201 310.881C164.201 310.122 164.818 309.504 165.576 309.504C166.334 309.504 166.951 310.122 166.951 310.881C166.951 311.64 166.334 312.257 165.576 312.257Z" fill="#F4F4F4"/>
<path d="M196.192 309.876H196.184L192.956 307.027C192.785 307.004 192.614 306.993 192.44 306.993C190.292 306.993 188.554 308.734 188.554 310.884C188.554 313.035 190.292 314.776 192.44 314.776C194.587 314.776 196.326 313.035 196.326 310.884C196.322 310.531 196.277 310.196 196.192 309.876ZM192.436 312.257C191.678 312.257 191.061 311.64 191.061 310.881C191.061 310.122 191.678 309.504 192.436 309.504C193.194 309.504 193.81 310.122 193.81 310.881C193.81 311.64 193.194 312.257 192.436 312.257Z" fill="#F4F4F4"/>
<path d="M223.052 309.876H223.044L219.816 307.027C219.645 307.004 219.474 306.993 219.299 306.993C217.152 306.993 215.414 308.734 215.414 310.884C215.414 313.035 217.152 314.776 219.299 314.776C221.443 314.776 223.185 313.035 223.185 310.884C223.182 310.531 223.137 310.196 223.052 309.876ZM219.296 312.257C218.538 312.257 217.921 311.64 217.921 310.881C217.921 310.122 218.538 309.504 219.296 309.504C220.054 309.504 220.667 310.122 220.667 310.881C220.67 311.64 220.054 312.257 219.296 312.257Z" fill="#F4F4F4"/>
<path d="M249.911 309.876H249.904L246.675 307.027C246.504 307.004 246.333 306.993 246.159 306.993C244.012 306.993 242.273 308.734 242.273 310.884C242.273 313.035 244.012 314.776 246.159 314.776C248.302 314.776 250.045 313.035 250.045 310.884C250.041 310.531 249.997 310.196 249.911 309.876ZM246.155 312.257C245.397 312.257 244.781 311.64 244.781 310.881C244.781 310.122 245.397 309.504 246.155 309.504C246.913 309.504 247.526 310.122 247.526 310.881C247.53 311.64 246.913 312.257 246.155 312.257Z" fill="#F4F4F4"/>
<path d="M276.771 309.876H276.763L273.535 307.027C273.364 307.004 273.193 306.993 273.019 306.993C270.871 306.993 269.133 308.734 269.133 310.884C269.133 313.035 270.871 314.776 273.019 314.776C275.162 314.776 276.905 313.035 276.905 310.884C276.901 310.531 276.856 310.196 276.771 309.876ZM273.015 312.257C272.257 312.257 271.64 311.64 271.64 310.881C271.64 310.122 272.257 309.504 273.015 309.504C273.773 309.504 274.386 310.122 274.386 310.881C274.39 311.64 273.773 312.257 273.015 312.257Z" fill="#F4F4F4"/>
<path d="M303.631 309.876H303.623L300.395 307.027C300.224 307.004 300.053 306.993 299.879 306.993C297.731 306.993 295.993 308.734 295.993 310.884C295.993 313.035 297.731 314.776 299.879 314.776C302.026 314.776 303.765 313.035 303.765 310.884C303.761 310.531 303.716 310.196 303.631 309.876ZM299.875 312.257C299.117 312.257 298.5 311.64 298.5 310.881C298.5 310.122 299.117 309.504 299.875 309.504C300.633 309.504 301.249 310.122 301.249 310.881C301.249 311.64 300.633 312.257 299.875 312.257Z" fill="#F4F4F4"/>
<path d="M169.332 286.261H169.325L166.096 283.411C165.925 283.389 165.754 283.378 165.58 283.378C163.432 283.378 161.694 285.119 161.694 287.269C161.694 289.416 163.432 291.161 165.58 291.161C167.727 291.161 169.466 289.42 169.466 287.269C169.462 286.916 169.417 286.581 169.332 286.261ZM165.576 288.642C164.818 288.642 164.201 288.024 164.201 287.266C164.201 286.507 164.818 285.889 165.576 285.889C166.334 285.889 166.951 286.507 166.951 287.266C166.951 288.024 166.334 288.642 165.576 288.642Z" fill="#F4F4F4"/>
<path d="M196.192 286.261H196.184L192.956 283.411C192.785 283.389 192.614 283.378 192.44 283.378C190.292 283.378 188.554 285.119 188.554 287.269C188.554 289.416 190.292 291.161 192.44 291.161C194.587 291.161 196.326 289.42 196.326 287.269C196.322 286.916 196.277 286.581 196.192 286.261ZM192.436 288.642C191.678 288.642 191.061 288.024 191.061 287.266C191.061 286.507 191.678 285.889 192.436 285.889C193.194 285.889 193.81 286.507 193.81 287.266C193.81 288.024 193.194 288.642 192.436 288.642Z" fill="#F4F4F4"/>
<path d="M223.052 286.261H223.044L219.816 283.411C219.645 283.389 219.474 283.378 219.299 283.378C217.152 283.378 215.414 285.119 215.414 287.269C215.414 289.416 217.152 291.161 219.299 291.161C221.443 291.161 223.185 289.42 223.185 287.269C223.182 286.916 223.137 286.581 223.052 286.261ZM219.296 288.642C218.538 288.642 217.921 288.024 217.921 287.266C217.921 286.507 218.538 285.889 219.296 285.889C220.054 285.889 220.667 286.507 220.667 287.266C220.67 288.024 220.054 288.642 219.296 288.642Z" fill="#F4F4F4"/>
<path d="M249.911 286.261H249.904L246.675 283.411C246.504 283.389 246.333 283.378 246.159 283.378C244.012 283.378 242.273 285.119 242.273 287.269C242.273 289.416 244.012 291.161 246.159 291.161C248.302 291.161 250.045 289.42 250.045 287.269C250.041 286.916 249.997 286.581 249.911 286.261ZM246.155 288.642C245.397 288.642 244.781 288.024 244.781 287.266C244.781 286.507 245.397 285.889 246.155 285.889C246.913 285.889 247.526 286.507 247.526 287.266C247.53 288.024 246.913 288.642 246.155 288.642Z" fill="#F4F4F4"/>
<path d="M276.771 286.261H276.763L273.535 283.411C273.364 283.389 273.193 283.378 273.019 283.378C270.871 283.378 269.133 285.119 269.133 287.269C269.133 289.416 270.871 291.161 273.019 291.161C275.162 291.161 276.905 289.42 276.905 287.269C276.901 286.916 276.856 286.581 276.771 286.261ZM273.015 288.642C272.257 288.642 271.64 288.024 271.64 287.266C271.64 286.507 272.257 285.889 273.015 285.889C273.773 285.889 274.386 286.507 274.386 287.266C274.39 288.024 273.773 288.642 273.015 288.642Z" fill="#F4F4F4"/>
<path d="M303.631 286.261H303.623L300.395 283.411C300.224 283.389 300.053 283.378 299.879 283.378C297.731 283.378 295.993 285.119 295.993 287.269C295.993 289.416 297.731 291.161 299.879 291.161C302.026 291.161 303.765 289.42 303.765 287.269C303.761 286.916 303.716 286.581 303.631 286.261ZM299.875 288.642C299.117 288.642 298.5 288.024 298.5 287.266C298.5 286.507 299.117 285.889 299.875 285.889C300.633 285.889 301.249 286.507 301.249 287.266C301.249 288.024 300.633 288.642 299.875 288.642Z" fill="#F4F4F4"/>
<path d="M169.332 262.645H169.325L166.096 259.795C165.925 259.773 165.754 259.762 165.58 259.762C163.432 259.762 161.694 261.503 161.694 263.653C161.694 265.803 163.432 267.544 165.58 267.544C167.727 267.544 169.466 265.803 169.466 263.653C169.462 263.303 169.417 262.965 169.332 262.645ZM165.576 265.026C164.818 265.026 164.201 264.408 164.201 263.649C164.201 262.89 164.818 262.273 165.576 262.273C166.334 262.273 166.951 262.89 166.951 263.649C166.951 264.408 166.334 265.026 165.576 265.026Z" fill="#F4F4F4"/>
<path d="M196.192 262.645H196.184L192.956 259.795C192.785 259.773 192.614 259.762 192.44 259.762C190.292 259.762 188.554 261.503 188.554 263.653C188.554 265.803 190.292 267.544 192.44 267.544C194.587 267.544 196.326 265.803 196.326 263.653C196.322 263.303 196.277 262.965 196.192 262.645ZM192.436 265.026C191.678 265.026 191.061 264.408 191.061 263.649C191.061 262.89 191.678 262.273 192.436 262.273C193.194 262.273 193.81 262.89 193.81 263.649C193.81 264.408 193.194 265.026 192.436 265.026Z" fill="#F4F4F4"/>
<path d="M223.052 262.645H223.044L219.816 259.795C219.645 259.773 219.474 259.762 219.299 259.762C217.152 259.762 215.414 261.503 215.414 263.653C215.414 265.803 217.152 267.544 219.299 267.544C221.443 267.544 223.185 265.803 223.185 263.653C223.182 263.303 223.137 262.965 223.052 262.645ZM219.296 265.026C218.538 265.026 217.921 264.408 217.921 263.649C217.921 262.89 218.538 262.273 219.296 262.273C220.054 262.273 220.667 262.89 220.667 263.649C220.67 264.408 220.054 265.026 219.296 265.026Z" fill="#F4F4F4"/>
<path d="M249.911 262.645H249.904L246.675 259.795C246.504 259.773 246.333 259.762 246.159 259.762C244.012 259.762 242.273 261.503 242.273 263.653C242.273 265.803 244.012 267.544 246.159 267.544C248.302 267.544 250.045 265.803 250.045 263.653C250.041 263.303 249.997 262.965 249.911 262.645ZM246.155 265.026C245.397 265.026 244.781 264.408 244.781 263.649C244.781 262.89 245.397 262.273 246.155 262.273C246.913 262.273 247.526 262.89 247.526 263.649C247.53 264.408 246.913 265.026 246.155 265.026Z" fill="#F4F4F4"/>
<path d="M276.771 262.645H276.763L273.535 259.795C273.364 259.773 273.193 259.762 273.019 259.762C270.871 259.762 269.133 261.503 269.133 263.653C269.133 265.803 270.871 267.544 273.019 267.544C275.162 267.544 276.905 265.803 276.905 263.653C276.901 263.303 276.856 262.965 276.771 262.645ZM273.015 265.026C272.257 265.026 271.64 264.408 271.64 263.649C271.64 262.89 272.257 262.273 273.015 262.273C273.773 262.273 274.386 262.89 274.386 263.649C274.39 264.408 273.773 265.026 273.015 265.026Z" fill="#F4F4F4"/>
<path d="M303.631 262.645H303.623L300.395 259.795C300.224 259.773 300.053 259.762 299.879 259.762C297.731 259.762 295.993 261.503 295.993 263.653C295.993 265.803 297.731 267.544 299.879 267.544C302.026 267.544 303.765 265.803 303.765 263.653C303.761 263.303 303.716 262.965 303.631 262.645ZM299.875 265.026C299.117 265.026 298.5 264.408 298.5 263.649C298.5 262.89 299.117 262.273 299.875 262.273C300.633 262.273 301.249 262.89 301.249 263.649C301.249 264.408 300.633 265.026 299.875 265.026Z" fill="#F4F4F4"/>
<path d="M169.332 239.03H169.325L166.096 236.18C165.925 236.158 165.754 236.146 165.58 236.146C163.432 236.146 161.694 237.888 161.694 240.038C161.694 242.188 163.432 243.929 165.58 243.929C167.727 243.929 169.466 242.188 169.466 240.038C169.462 239.688 169.417 239.353 169.332 239.03ZM165.576 241.411C164.818 241.411 164.201 240.793 164.201 240.034C164.201 239.275 164.818 238.658 165.576 238.658C166.334 238.658 166.951 239.275 166.951 240.034C166.951 240.797 166.334 241.411 165.576 241.411Z" fill="#F4F4F4"/>
<path d="M196.192 239.03H196.184L192.956 236.18C192.785 236.158 192.614 236.146 192.44 236.146C190.292 236.146 188.554 237.888 188.554 240.038C188.554 242.188 190.292 243.929 192.44 243.929C194.587 243.929 196.326 242.188 196.326 240.038C196.322 239.688 196.277 239.353 196.192 239.03ZM192.436 241.411C191.678 241.411 191.061 240.793 191.061 240.034C191.061 239.275 191.678 238.658 192.436 238.658C193.194 238.658 193.81 239.275 193.81 240.034C193.81 240.797 193.194 241.411 192.436 241.411Z" fill="#F4F4F4"/>
<path d="M223.052 239.03H223.044L219.816 236.18C219.645 236.158 219.474 236.146 219.299 236.146C217.152 236.146 215.414 237.888 215.414 240.038C215.414 242.188 217.152 243.929 219.299 243.929C221.443 243.929 223.185 242.188 223.185 240.038C223.182 239.688 223.137 239.353 223.052 239.03ZM219.296 241.411C218.538 241.411 217.921 240.793 217.921 240.034C217.921 239.275 218.538 238.658 219.296 238.658C220.054 238.658 220.667 239.275 220.667 240.034C220.67 240.797 220.054 241.411 219.296 241.411Z" fill="#F4F4F4"/>
<path d="M249.911 239.03H249.904L246.675 236.18C246.504 236.158 246.333 236.146 246.159 236.146C244.012 236.146 242.273 237.888 242.273 240.038C242.273 242.188 244.012 243.929 246.159 243.929C248.302 243.929 250.045 242.188 250.045 240.038C250.041 239.688 249.997 239.353 249.911 239.03ZM246.155 241.411C245.397 241.411 244.781 240.793 244.781 240.034C244.781 239.275 245.397 238.658 246.155 238.658C246.913 238.658 247.526 239.275 247.526 240.034C247.53 240.797 246.913 241.411 246.155 241.411Z" fill="#F4F4F4"/>
<path d="M276.771 239.03H276.763L273.535 236.18C273.364 236.158 273.193 236.146 273.019 236.146C270.871 236.146 269.133 237.888 269.133 240.038C269.133 242.188 270.871 243.929 273.019 243.929C275.162 243.929 276.905 242.188 276.905 240.038C276.901 239.688 276.856 239.353 276.771 239.03ZM273.015 241.411C272.257 241.411 271.64 240.793 271.64 240.034C271.64 239.275 272.257 238.658 273.015 238.658C273.773 238.658 274.386 239.275 274.386 240.034C274.39 240.797 273.773 241.411 273.015 241.411Z" fill="#F4F4F4"/>
<path d="M303.631 239.03H303.623L300.395 236.18C300.224 236.158 300.053 236.146 299.879 236.146C297.731 236.146 295.993 237.888 295.993 240.038C295.993 242.188 297.731 243.929 299.879 243.929C302.026 243.929 303.765 242.188 303.765 240.038C303.761 239.688 303.716 239.353 303.631 239.03ZM299.875 241.411C299.117 241.411 298.5 240.793 298.5 240.034C298.5 239.275 299.117 238.658 299.875 238.658C300.633 238.658 301.249 239.275 301.249 240.034C301.249 240.797 300.633 241.411 299.875 241.411Z" fill="#F4F4F4"/>
<path d="M169.332 215.417H169.325L166.096 212.568C165.925 212.545 165.754 212.534 165.58 212.534C163.432 212.534 161.694 214.275 161.694 216.426C161.694 218.576 163.432 220.317 165.58 220.317C167.727 220.317 169.466 218.576 169.466 216.426C169.462 216.072 169.417 215.737 169.332 215.417ZM165.576 217.798C164.818 217.798 164.201 217.181 164.201 216.422C164.201 215.663 164.818 215.045 165.576 215.045C166.334 215.045 166.951 215.663 166.951 216.422C166.951 217.181 166.334 217.798 165.576 217.798Z" fill="#F4F4F4"/>
<path d="M196.192 215.417H196.184L192.956 212.568C192.785 212.545 192.614 212.534 192.44 212.534C190.292 212.534 188.554 214.275 188.554 216.426C188.554 218.576 190.292 220.317 192.44 220.317C194.587 220.317 196.326 218.576 196.326 216.426C196.322 216.072 196.277 215.737 196.192 215.417ZM192.436 217.798C191.678 217.798 191.061 217.181 191.061 216.422C191.061 215.663 191.678 215.045 192.436 215.045C193.194 215.045 193.81 215.663 193.81 216.422C193.81 217.181 193.194 217.798 192.436 217.798Z" fill="#F4F4F4"/>
<path d="M223.052 215.417H223.044L219.816 212.568C219.645 212.545 219.474 212.534 219.299 212.534C217.152 212.534 215.414 214.275 215.414 216.426C215.414 218.576 217.152 220.317 219.299 220.317C221.443 220.317 223.185 218.576 223.185 216.426C223.182 216.072 223.137 215.737 223.052 215.417ZM219.296 217.798C218.538 217.798 217.921 217.181 217.921 216.422C217.921 215.663 218.538 215.045 219.296 215.045C220.054 215.045 220.667 215.663 220.667 216.422C220.67 217.181 220.054 217.798 219.296 217.798Z" fill="#F4F4F4"/>
<path d="M249.911 215.417H249.904L246.675 212.568C246.504 212.545 246.333 212.534 246.159 212.534C244.012 212.534 242.273 214.275 242.273 216.426C242.273 218.576 244.012 220.317 246.159 220.317C248.302 220.317 250.045 218.576 250.045 216.426C250.041 216.072 249.997 215.737 249.911 215.417ZM246.155 217.798C245.397 217.798 244.781 217.181 244.781 216.422C244.781 215.663 245.397 215.045 246.155 215.045C246.913 215.045 247.526 215.663 247.526 216.422C247.53 217.181 246.913 217.798 246.155 217.798Z" fill="#F4F4F4"/>
<path d="M276.771 215.417H276.763L273.535 212.568C273.364 212.545 273.193 212.534 273.019 212.534C270.871 212.534 269.133 214.275 269.133 216.426C269.133 218.576 270.871 220.317 273.019 220.317C275.162 220.317 276.905 218.576 276.905 216.426C276.901 216.072 276.856 215.737 276.771 215.417ZM273.015 217.798C272.257 217.798 271.64 217.181 271.64 216.422C271.64 215.663 272.257 215.045 273.015 215.045C273.773 215.045 274.386 215.663 274.386 216.422C274.39 217.181 273.773 217.798 273.015 217.798Z" fill="#F4F4F4"/>
<path d="M303.631 215.417H303.623L300.395 212.568C300.224 212.545 300.053 212.534 299.879 212.534C297.731 212.534 295.993 214.275 295.993 216.426C295.993 218.576 297.731 220.317 299.879 220.317C302.026 220.317 303.765 218.576 303.765 216.426C303.761 216.072 303.716 215.737 303.631 215.417ZM299.875 217.798C299.117 217.798 298.5 217.181 298.5 216.422C298.5 215.663 299.117 215.045 299.875 215.045C300.633 215.045 301.249 215.663 301.249 216.422C301.249 217.181 300.633 217.798 299.875 217.798Z" fill="#F4F4F4"/>
<path d="M169.332 191.801H169.325L166.096 188.951C165.925 188.929 165.754 188.918 165.58 188.918C163.432 188.918 161.694 190.659 161.694 192.809C161.694 194.96 163.432 196.701 165.58 196.701C167.727 196.701 169.466 194.96 169.466 192.809C169.462 192.46 169.417 192.121 169.332 191.801ZM165.576 194.182C164.818 194.182 164.201 193.564 164.201 192.806C164.201 192.047 164.818 191.429 165.576 191.429C166.334 191.429 166.951 192.047 166.951 192.806C166.951 193.564 166.334 194.182 165.576 194.182Z" fill="#F4F4F4"/>
<path d="M196.192 191.801H196.184L192.956 188.951C192.785 188.929 192.614 188.918 192.44 188.918C190.292 188.918 188.554 190.659 188.554 192.809C188.554 194.96 190.292 196.701 192.44 196.701C194.587 196.701 196.326 194.96 196.326 192.809C196.322 192.46 196.277 192.121 196.192 191.801ZM192.436 194.182C191.678 194.182 191.061 193.564 191.061 192.806C191.061 192.047 191.678 191.429 192.436 191.429C193.194 191.429 193.81 192.047 193.81 192.806C193.81 193.564 193.194 194.182 192.436 194.182Z" fill="#F4F4F4"/>
<path d="M223.052 191.801H223.044L219.816 188.951C219.645 188.929 219.474 188.918 219.299 188.918C217.152 188.918 215.414 190.659 215.414 192.809C215.414 194.96 217.152 196.701 219.299 196.701C221.443 196.701 223.185 194.96 223.185 192.809C223.182 192.46 223.137 192.121 223.052 191.801ZM219.296 194.182C218.538 194.182 217.921 193.564 217.921 192.806C217.921 192.047 218.538 191.429 219.296 191.429C220.054 191.429 220.667 192.047 220.667 192.806C220.67 193.564 220.054 194.182 219.296 194.182Z" fill="#F4F4F4"/>
<path d="M249.911 191.801H249.904L246.675 188.951C246.504 188.929 246.333 188.918 246.159 188.918C244.012 188.918 242.273 190.659 242.273 192.809C242.273 194.96 244.012 196.701 246.159 196.701C248.302 196.701 250.045 194.96 250.045 192.809C250.041 192.46 249.997 192.121 249.911 191.801ZM246.155 194.182C245.397 194.182 244.781 193.564 244.781 192.806C244.781 192.047 245.397 191.429 246.155 191.429C246.913 191.429 247.526 192.047 247.526 192.806C247.53 193.564 246.913 194.182 246.155 194.182Z" fill="#F4F4F4"/>
<path d="M276.771 191.801H276.763L273.535 188.951C273.364 188.929 273.193 188.918 273.019 188.918C270.871 188.918 269.133 190.659 269.133 192.809C269.133 194.96 270.871 196.701 273.019 196.701C275.162 196.701 276.905 194.96 276.905 192.809C276.901 192.46 276.856 192.121 276.771 191.801ZM273.015 194.182C272.257 194.182 271.64 193.564 271.64 192.806C271.64 192.047 272.257 191.429 273.015 191.429C273.773 191.429 274.386 192.047 274.386 192.806C274.39 193.564 273.773 194.182 273.015 194.182Z" fill="#F4F4F4"/>
<path d="M303.631 191.801H303.623L300.395 188.951C300.224 188.929 300.053 188.918 299.879 188.918C297.731 188.918 295.993 190.659 295.993 192.809C295.993 194.96 297.731 196.701 299.879 196.701C302.026 196.701 303.765 194.96 303.765 192.809C303.761 192.46 303.716 192.121 303.631 191.801ZM299.875 194.182C299.117 194.182 298.5 193.564 298.5 192.806C298.5 192.047 299.117 191.429 299.875 191.429C300.633 191.429 301.249 192.047 301.249 192.806C301.249 193.564 300.633 194.182 299.875 194.182Z" fill="#F4F4F4"/>
</svg>
