<svg width="314" height="454" viewBox="0 0 314 454" fill="none" xmlns="http://www.w3.org/2000/svg">
<path d="M10.106 210.928H10.0967L6.0509 207.354C5.83674 207.326 5.62258 207.312 5.40376 207.312C2.71279 207.312 0.533936 209.496 0.533936 212.193C0.533936 214.89 2.71279 217.073 5.40376 217.073C8.09008 217.073 10.2736 214.89 10.2736 212.193C10.2689 211.754 10.2131 211.334 10.106 210.928ZM5.40376 213.914C4.45401 213.914 3.68117 213.14 3.68117 212.188C3.68117 211.236 4.45401 210.462 5.40376 210.462C6.35352 210.462 7.1217 211.236 7.1217 212.188C7.1217 213.14 6.35352 213.914 5.40376 213.914Z" fill="#F4F4F4"/>
<path d="M43.7665 210.928H43.7572L39.7114 207.354C39.4973 207.326 39.2831 207.312 39.0643 207.312C36.3733 207.312 34.1945 209.496 34.1945 212.193C34.1945 214.89 36.3733 217.073 39.0643 217.073C41.7506 217.073 43.9341 214.89 43.9341 212.193C43.9295 211.754 43.8736 211.334 43.7665 210.928ZM39.0643 213.914C38.1145 213.914 37.3417 213.14 37.3417 212.188C37.3417 211.236 38.1145 210.462 39.0643 210.462C40.014 210.462 40.7822 211.236 40.7822 212.188C40.7822 213.14 40.0094 213.914 39.0643 213.914Z" fill="#F4F4F4"/>
<path d="M77.4268 210.928H77.4175L73.3717 207.354C73.1575 207.326 72.9434 207.312 72.7246 207.312C70.0336 207.312 67.8547 209.496 67.8547 212.193C67.8547 214.89 70.0336 217.073 72.7246 217.073C75.4155 217.073 77.5944 214.89 77.5944 212.193C77.5897 211.754 77.5339 211.334 77.4268 210.928ZM72.7246 213.914C71.7748 213.914 71.002 213.14 71.002 212.188C71.002 211.236 71.7748 210.462 72.7246 210.462C73.6743 210.462 74.4472 211.236 74.4472 212.188C74.4425 213.14 73.6743 213.914 72.7246 213.914Z" fill="#F4F4F4"/>
<path d="M111.087 210.928H111.078L107.032 207.354C106.818 207.326 106.604 207.312 106.385 207.312C103.694 207.312 101.515 209.496 101.515 212.193C101.515 214.89 103.694 217.073 106.385 217.073C109.076 217.073 111.255 214.89 111.255 212.193C111.25 211.754 111.195 211.334 111.087 210.928ZM106.381 213.914C105.431 213.914 104.658 213.14 104.658 212.188C104.658 211.236 105.431 210.462 106.381 210.462C107.33 210.462 108.098 211.236 108.098 212.188C108.103 213.14 107.33 213.914 106.381 213.914Z" fill="#F4F4F4"/>
<path d="M144.748 210.928H144.739L140.693 207.354C140.479 207.326 140.265 207.312 140.046 207.312C137.355 207.312 135.176 209.496 135.176 212.193C135.176 214.89 137.355 217.073 140.046 217.073C142.732 217.073 144.916 214.89 144.916 212.193C144.911 211.754 144.855 211.334 144.748 210.928ZM140.041 213.914C139.091 213.914 138.318 213.14 138.318 212.188C138.318 211.236 139.091 210.462 140.041 210.462C140.991 210.462 141.759 211.236 141.759 212.188C141.764 213.14 140.991 213.914 140.041 213.914Z" fill="#F4F4F4"/>
<path d="M178.408 210.928H178.399L174.353 207.354C174.139 207.326 173.925 207.312 173.706 207.312C171.015 207.312 168.836 209.496 168.836 212.193C168.836 214.89 171.015 217.073 173.706 217.073C176.392 217.073 178.576 214.89 178.576 212.193C178.571 211.754 178.515 211.334 178.408 210.928ZM173.701 213.914C172.752 213.914 171.979 213.14 171.979 212.188C171.979 211.236 172.752 210.462 173.701 210.462C174.651 210.462 175.419 211.236 175.419 212.188C175.424 213.14 174.651 213.914 173.701 213.914Z" fill="#F4F4F4"/>
<path d="M10.106 181.316H10.0967L6.0509 177.742C5.83674 177.714 5.62258 177.7 5.40376 177.7C2.71279 177.696 0.533936 179.879 0.533936 182.576C0.533936 185.273 2.71279 187.456 5.40376 187.456C8.09008 187.456 10.2736 185.273 10.2736 182.576C10.2689 182.137 10.2131 181.717 10.106 181.316ZM5.40376 184.302C4.45401 184.302 3.68117 183.528 3.68117 182.576C3.68117 181.624 4.45401 180.85 5.40376 180.85C6.35352 180.85 7.1217 181.624 7.1217 182.576C7.1217 183.528 6.35352 184.302 5.40376 184.302Z" fill="#F4F4F4"/>
<path d="M43.7664 181.316H43.7571L39.7113 177.742C39.4971 177.714 39.283 177.7 39.0642 177.7C36.3732 177.7 34.1943 179.884 34.1943 182.58C34.1943 185.277 36.3732 187.461 39.0642 187.461C41.7505 187.461 43.934 185.277 43.934 182.58C43.9293 182.137 43.8735 181.717 43.7664 181.316ZM39.0642 184.302C38.1144 184.302 37.3416 183.528 37.3416 182.576C37.3416 181.624 38.1144 180.85 39.0642 180.85C40.0139 180.85 40.7821 181.624 40.7821 182.576C40.7821 183.528 40.0093 184.302 39.0642 184.302Z" fill="#F4F4F4"/>
<path d="M77.4268 181.316H77.4175L73.3717 177.742C73.1575 177.714 72.9434 177.7 72.7246 177.7C70.0336 177.7 67.8547 179.884 67.8547 182.58C67.8547 185.277 70.0336 187.461 72.7246 187.461C75.4155 187.461 77.5944 185.277 77.5944 182.58C77.5897 182.137 77.5339 181.717 77.4268 181.316ZM72.7246 184.302C71.7748 184.302 71.002 183.528 71.002 182.576C71.002 181.624 71.7748 180.85 72.7246 180.85C73.6743 180.85 74.4472 181.624 74.4472 182.576C74.4425 183.528 73.6743 184.302 72.7246 184.302Z" fill="#F4F4F4"/>
<path d="M111.087 181.316H111.078L107.032 177.742C106.818 177.714 106.604 177.7 106.385 177.7C103.694 177.7 101.515 179.884 101.515 182.58C101.515 185.277 103.694 187.461 106.385 187.461C109.076 187.461 111.255 185.277 111.255 182.58C111.25 182.137 111.195 181.717 111.087 181.316ZM106.381 184.302C105.431 184.302 104.658 183.528 104.658 182.576C104.658 181.624 105.431 180.85 106.381 180.85C107.33 180.85 108.098 181.624 108.098 182.576C108.103 183.528 107.33 184.302 106.381 184.302Z" fill="#F4F4F4"/>
<path d="M144.748 181.316H144.739L140.693 177.742C140.479 177.714 140.264 177.7 140.046 177.7C137.355 177.7 135.176 179.884 135.176 182.58C135.176 185.277 137.355 187.461 140.046 187.461C142.732 187.461 144.915 185.277 144.915 182.58C144.911 182.137 144.855 181.717 144.748 181.316ZM140.041 184.302C139.091 184.302 138.318 183.528 138.318 182.576C138.318 181.624 139.091 180.85 140.041 180.85C140.991 180.85 141.759 181.624 141.759 182.576C141.764 183.528 140.991 184.302 140.041 184.302Z" fill="#F4F4F4"/>
<path d="M178.408 181.316H178.399L174.353 177.742C174.139 177.714 173.925 177.7 173.706 177.7C171.015 177.7 168.836 179.884 168.836 182.58C168.836 185.277 171.015 187.461 173.706 187.461C176.392 187.461 178.576 185.277 178.576 182.58C178.571 182.137 178.515 181.717 178.408 181.316ZM173.701 184.302C172.752 184.302 171.979 183.528 171.979 182.576C171.979 181.624 172.752 180.85 173.701 180.85C174.651 180.85 175.419 181.624 175.419 182.576C175.424 183.528 174.651 184.302 173.701 184.302Z" fill="#F4F4F4"/>
<path d="M10.106 151.699H10.0967L6.0509 148.125C5.83674 148.097 5.62258 148.083 5.40376 148.083C2.71279 148.083 0.533936 150.267 0.533936 152.959C0.533936 155.655 2.71279 157.839 5.40376 157.839C8.09008 157.839 10.2736 155.655 10.2736 152.959C10.2689 152.525 10.2131 152.1 10.106 151.699ZM5.40376 154.685C4.45401 154.685 3.68117 153.91 3.68117 152.959C3.68117 152.007 4.45401 151.232 5.40376 151.232C6.35352 151.232 7.1217 152.007 7.1217 152.959C7.1217 153.91 6.35352 154.685 5.40376 154.685Z" fill="#F4F4F4"/>
<path d="M43.7664 151.699H43.7571L39.7113 148.125C39.4971 148.097 39.283 148.083 39.0642 148.083C36.3732 148.083 34.1943 150.267 34.1943 152.963C34.1943 155.66 36.3732 157.844 39.0642 157.844C41.7505 157.844 43.934 155.66 43.934 152.963C43.9293 152.525 43.8735 152.1 43.7664 151.699ZM39.0642 154.685C38.1144 154.685 37.3416 153.91 37.3416 152.959C37.3416 152.007 38.1144 151.232 39.0642 151.232C40.0139 151.232 40.7821 152.007 40.7821 152.959C40.7821 153.91 40.0093 154.685 39.0642 154.685Z" fill="#F4F4F4"/>
<path d="M77.4269 151.699H77.4176L73.3718 148.125C73.1577 148.097 72.9435 148.083 72.7247 148.083C70.0337 148.083 67.8549 150.267 67.8549 152.963C67.8549 155.66 70.0337 157.844 72.7247 157.844C75.4157 157.844 77.5945 155.66 77.5945 152.963C77.5899 152.525 77.534 152.1 77.4269 151.699ZM72.7247 154.685C71.7749 154.685 71.0021 153.91 71.0021 152.959C71.0021 152.007 71.7749 151.232 72.7247 151.232C73.6744 151.232 74.4473 152.007 74.4473 152.959C74.4426 153.91 73.6744 154.685 72.7247 154.685Z" fill="#F4F4F4"/>
<path d="M111.087 151.699H111.078L107.032 148.125C106.818 148.097 106.604 148.083 106.385 148.083C103.694 148.083 101.515 150.267 101.515 152.963C101.515 155.66 103.694 157.844 106.385 157.844C109.076 157.844 111.255 155.66 111.255 152.963C111.25 152.525 111.194 152.1 111.087 151.699ZM106.38 154.685C105.431 154.685 104.658 153.91 104.658 152.959C104.658 152.007 105.431 151.232 106.38 151.232C107.33 151.232 108.098 152.007 108.098 152.959C108.103 153.91 107.33 154.685 106.38 154.685Z" fill="#F4F4F4"/>
<path d="M144.748 151.699H144.739L140.693 148.125C140.479 148.097 140.264 148.083 140.046 148.083C137.355 148.083 135.176 150.267 135.176 152.963C135.176 155.66 137.355 157.844 140.046 157.844C142.732 157.844 144.915 155.66 144.915 152.963C144.911 152.525 144.855 152.1 144.748 151.699ZM140.041 154.685C139.091 154.685 138.318 153.91 138.318 152.959C138.318 152.007 139.091 151.232 140.041 151.232C140.991 151.232 141.759 152.007 141.759 152.959C141.764 153.91 140.991 154.685 140.041 154.685Z" fill="#F4F4F4"/>
<path d="M178.408 151.699H178.399L174.353 148.125C174.139 148.097 173.925 148.083 173.706 148.083C171.015 148.083 168.836 150.267 168.836 152.963C168.836 155.66 171.015 157.844 173.706 157.844C176.392 157.844 178.576 155.66 178.576 152.963C178.571 152.525 178.515 152.1 178.408 151.699ZM173.701 154.685C172.752 154.685 171.979 153.91 171.979 152.959C171.979 152.007 172.752 151.232 173.701 151.232C174.651 151.232 175.419 152.007 175.419 152.959C175.424 153.91 174.651 154.685 173.701 154.685Z" fill="#F4F4F4"/>
<path d="M10.106 122.082H10.0967L6.0509 118.508C5.83674 118.48 5.62258 118.466 5.40376 118.466C2.71279 118.466 0.533936 120.649 0.533936 123.341C0.533936 126.038 2.71279 128.222 5.40376 128.222C8.09008 128.222 10.2736 126.038 10.2736 123.341C10.2689 122.908 10.2131 122.488 10.106 122.082ZM5.40376 125.068C4.45401 125.068 3.68117 124.293 3.68117 123.341C3.68117 122.39 4.45401 121.615 5.40376 121.615C6.35352 121.615 7.1217 122.39 7.1217 123.341C7.1217 124.293 6.35352 125.068 5.40376 125.068Z" fill="#F4F4F4"/>
<path d="M43.7665 122.082H43.7572L39.7114 118.508C39.4973 118.48 39.2831 118.466 39.0643 118.466C36.3733 118.466 34.1945 120.649 34.1945 123.346C34.1945 126.043 36.3733 128.226 39.0643 128.226C41.7506 128.226 43.9341 126.043 43.9341 123.346C43.9295 122.908 43.8736 122.488 43.7665 122.082ZM39.0643 125.068C38.1145 125.068 37.3417 124.293 37.3417 123.341C37.3417 122.39 38.1145 121.615 39.0643 121.615C40.014 121.615 40.7822 122.39 40.7822 123.341C40.7822 124.293 40.0094 125.068 39.0643 125.068Z" fill="#F4F4F4"/>
<path d="M77.4268 122.082H77.4175L73.3717 118.508C73.1575 118.48 72.9434 118.466 72.7246 118.466C70.0336 118.466 67.8547 120.649 67.8547 123.346C67.8547 126.043 70.0336 128.226 72.7246 128.226C75.4155 128.226 77.5944 126.043 77.5944 123.346C77.5897 122.908 77.5339 122.488 77.4268 122.082ZM72.7246 125.068C71.7748 125.068 71.002 124.293 71.002 123.341C71.002 122.39 71.7748 121.615 72.7246 121.615C73.6743 121.615 74.4472 122.39 74.4472 123.341C74.4425 124.293 73.6743 125.068 72.7246 125.068Z" fill="#F4F4F4"/>
<path d="M111.087 122.082H111.078L107.032 118.508C106.818 118.48 106.604 118.466 106.385 118.466C103.694 118.466 101.515 120.649 101.515 123.346C101.515 126.043 103.694 128.226 106.385 128.226C109.076 128.226 111.255 126.043 111.255 123.346C111.25 122.908 111.195 122.488 111.087 122.082ZM106.381 125.068C105.431 125.068 104.658 124.293 104.658 123.341C104.658 122.39 105.431 121.615 106.381 121.615C107.33 121.615 108.098 122.39 108.098 123.341C108.103 124.293 107.33 125.068 106.381 125.068Z" fill="#F4F4F4"/>
<path d="M144.748 122.082H144.739L140.693 118.508C140.479 118.48 140.265 118.466 140.046 118.466C137.355 118.466 135.176 120.649 135.176 123.346C135.176 126.043 137.355 128.226 140.046 128.226C142.732 128.226 144.916 126.043 144.916 123.346C144.911 122.908 144.855 122.488 144.748 122.082ZM140.041 125.068C139.091 125.068 138.318 124.293 138.318 123.341C138.318 122.39 139.091 121.615 140.041 121.615C140.991 121.615 141.759 122.39 141.759 123.341C141.764 124.293 140.991 125.068 140.041 125.068Z" fill="#F4F4F4"/>
<path d="M178.408 122.082H178.399L174.353 118.508C174.139 118.48 173.925 118.466 173.706 118.466C171.015 118.466 168.836 120.649 168.836 123.346C168.836 126.043 171.015 128.226 173.706 128.226C176.392 128.226 178.576 126.043 178.576 123.346C178.571 122.908 178.515 122.488 178.408 122.082ZM173.701 125.068C172.752 125.068 171.979 124.293 171.979 123.341C171.979 122.39 172.752 121.615 173.701 121.615C174.651 121.615 175.419 122.39 175.419 123.341C175.424 124.293 174.651 125.068 173.701 125.068Z" fill="#F4F4F4"/>
<path d="M10.106 92.4635H10.0967L6.0509 88.8897C5.83674 88.8617 5.62258 88.8477 5.40376 88.8477C2.71279 88.8477 0.533936 91.0312 0.533936 93.7279C0.533936 96.4247 2.71279 98.6082 5.40376 98.6082C8.09008 98.6082 10.2736 96.4247 10.2736 93.7279C10.2689 93.2894 10.2131 92.8694 10.106 92.4635ZM5.40376 95.4495C4.45401 95.4495 3.68117 94.6751 3.68117 93.7233C3.68117 92.7715 4.45401 91.997 5.40376 91.997C6.35352 91.997 7.1217 92.7715 7.1217 93.7233C7.1217 94.6797 6.35352 95.4495 5.40376 95.4495Z" fill="#F4F4F4"/>
<path d="M43.7664 92.4635H43.7571L39.7113 88.8897C39.4971 88.8617 39.283 88.8477 39.0642 88.8477C36.3732 88.8477 34.1943 91.0312 34.1943 93.7279C34.1943 96.4247 36.3732 98.6082 39.0642 98.6082C41.7505 98.6082 43.934 96.4247 43.934 93.7279C43.9293 93.2894 43.8735 92.8694 43.7664 92.4635ZM39.0642 95.4495C38.1144 95.4495 37.3416 94.6751 37.3416 93.7233C37.3416 92.7715 38.1144 91.997 39.0642 91.997C40.0139 91.997 40.7821 92.7715 40.7821 93.7233C40.7821 94.6797 40.0093 95.4495 39.0642 95.4495Z" fill="#F4F4F4"/>
<path d="M77.4269 92.4635H77.4176L73.3718 88.8897C73.1577 88.8617 72.9435 88.8477 72.7247 88.8477C70.0337 88.8477 67.8549 91.0312 67.8549 93.7279C67.8549 96.4247 70.0337 98.6082 72.7247 98.6082C75.4157 98.6082 77.5945 96.4247 77.5945 93.7279C77.5899 93.2894 77.534 92.8694 77.4269 92.4635ZM72.7247 95.4495C71.7749 95.4495 71.0021 94.6751 71.0021 93.7233C71.0021 92.7715 71.7749 91.997 72.7247 91.997C73.6744 91.997 74.4473 92.7715 74.4473 93.7233C74.4426 94.6797 73.6744 95.4495 72.7247 95.4495Z" fill="#F4F4F4"/>
<path d="M111.087 92.4635H111.078L107.032 88.8897C106.818 88.8617 106.604 88.8477 106.385 88.8477C103.694 88.8477 101.515 91.0312 101.515 93.7279C101.515 96.4247 103.694 98.6082 106.385 98.6082C109.076 98.6082 111.255 96.4247 111.255 93.7279C111.25 93.2894 111.194 92.8694 111.087 92.4635ZM106.38 95.4495C105.431 95.4495 104.658 94.6751 104.658 93.7233C104.658 92.7715 105.431 91.997 106.38 91.997C107.33 91.997 108.098 92.7715 108.098 93.7233C108.103 94.6797 107.33 95.4495 106.38 95.4495Z" fill="#F4F4F4"/>
<path d="M144.748 92.4635H144.739L140.693 88.8897C140.479 88.8617 140.264 88.8477 140.046 88.8477C137.355 88.8477 135.176 91.0312 135.176 93.7279C135.176 96.4247 137.355 98.6082 140.046 98.6082C142.732 98.6082 144.915 96.4247 144.915 93.7279C144.911 93.2894 144.855 92.8694 144.748 92.4635ZM140.041 95.4495C139.091 95.4495 138.318 94.6751 138.318 93.7233C138.318 92.7715 139.091 91.997 140.041 91.997C140.991 91.997 141.759 92.7715 141.759 93.7233C141.764 94.6797 140.991 95.4495 140.041 95.4495Z" fill="#F4F4F4"/>
<path d="M178.408 92.4635H178.399L174.353 88.8897C174.139 88.8617 173.925 88.8477 173.706 88.8477C171.015 88.8477 168.836 91.0312 168.836 93.7279C168.836 96.4247 171.015 98.6082 173.706 98.6082C176.392 98.6082 178.576 96.4247 178.576 93.7279C178.571 93.2894 178.515 92.8694 178.408 92.4635ZM173.701 95.4495C172.752 95.4495 171.979 94.6751 171.979 93.7233C171.979 92.7715 172.752 91.997 173.701 91.997C174.651 91.997 175.419 92.7715 175.419 93.7233C175.424 94.6797 174.651 95.4495 173.701 95.4495Z" fill="#F4F4F4"/>
<path d="M10.106 62.8503H10.0967L6.0509 59.2764C5.83674 59.2484 5.62258 59.2344 5.40376 59.2344C2.71279 59.2297 0.533936 61.4132 0.533936 64.11C0.533936 66.8067 2.71279 68.9902 5.40376 68.9902C8.09008 68.9902 10.2736 66.8067 10.2736 64.11C10.2689 63.6714 10.2131 63.2515 10.106 62.8503ZM5.40376 65.8363C4.45401 65.8363 3.68117 65.0618 3.68117 64.11C3.68117 63.1582 4.45401 62.3837 5.40376 62.3837C6.35352 62.3837 7.1217 63.1582 7.1217 64.11C7.1217 65.0618 6.35352 65.8363 5.40376 65.8363Z" fill="#F4F4F4"/>
<path d="M43.7666 62.8503H43.7573L39.7115 59.2764C39.4974 59.2484 39.2832 59.2344 39.0644 59.2344C36.3734 59.2344 34.1946 61.4179 34.1946 64.1146C34.1946 66.8114 36.3734 68.9949 39.0644 68.9949C41.7507 68.9949 43.9342 66.8114 43.9342 64.1146C43.9296 63.6714 43.8737 63.2515 43.7666 62.8503ZM39.0644 65.8363C38.1146 65.8363 37.3418 65.0618 37.3418 64.11C37.3418 63.1582 38.1146 62.3837 39.0644 62.3837C40.0142 62.3837 40.7823 63.1582 40.7823 64.11C40.7823 65.0618 40.0095 65.8363 39.0644 65.8363Z" fill="#F4F4F4"/>
<path d="M77.4268 62.8503H77.4175L73.3717 59.2764C73.1575 59.2484 72.9434 59.2344 72.7246 59.2344C70.0336 59.2344 67.8547 61.4179 67.8547 64.1146C67.8547 66.8114 70.0336 68.9949 72.7246 68.9949C75.4155 68.9949 77.5944 66.8114 77.5944 64.1146C77.5897 63.6714 77.5339 63.2515 77.4268 62.8503ZM72.7246 65.8363C71.7748 65.8363 71.002 65.0618 71.002 64.11C71.002 63.1582 71.7748 62.3837 72.7246 62.3837C73.6743 62.3837 74.4472 63.1582 74.4472 64.11C74.4425 65.0618 73.6743 65.8363 72.7246 65.8363Z" fill="#F4F4F4"/>
<path d="M111.087 62.8503H111.078L107.032 59.2764C106.818 59.2484 106.604 59.2344 106.385 59.2344C103.694 59.2344 101.515 61.4179 101.515 64.1146C101.515 66.8114 103.694 68.9949 106.385 68.9949C109.076 68.9949 111.255 66.8114 111.255 64.1146C111.25 63.6714 111.195 63.2515 111.087 62.8503ZM106.381 65.8363C105.431 65.8363 104.658 65.0618 104.658 64.11C104.658 63.1582 105.431 62.3837 106.381 62.3837C107.33 62.3837 108.098 63.1582 108.098 64.11C108.103 65.0618 107.33 65.8363 106.381 65.8363Z" fill="#F4F4F4"/>
<path d="M144.748 62.8503H144.739L140.693 59.2764C140.479 59.2484 140.264 59.2344 140.046 59.2344C137.355 59.2344 135.176 61.4179 135.176 64.1146C135.176 66.8114 137.355 68.9949 140.046 68.9949C142.732 68.9949 144.915 66.8114 144.915 64.1146C144.911 63.6714 144.855 63.2515 144.748 62.8503ZM140.041 65.8363C139.091 65.8363 138.318 65.0618 138.318 64.11C138.318 63.1582 139.091 62.3837 140.041 62.3837C140.991 62.3837 141.759 63.1582 141.759 64.11C141.764 65.0618 140.991 65.8363 140.041 65.8363Z" fill="#F4F4F4"/>
<path d="M178.408 62.8503H178.399L174.353 59.2764C174.139 59.2484 173.925 59.2344 173.706 59.2344C171.015 59.2344 168.836 61.4179 168.836 64.1146C168.836 66.8114 171.015 68.9949 173.706 68.9949C176.392 68.9949 178.576 66.8114 178.576 64.1146C178.571 63.6714 178.515 63.2515 178.408 62.8503ZM173.701 65.8363C172.752 65.8363 171.979 65.0618 171.979 64.11C171.979 63.1582 172.752 62.3837 173.701 62.3837C174.651 62.3837 175.419 63.1582 175.419 64.11C175.424 65.0618 174.651 65.8363 173.701 65.8363Z" fill="#F4F4F4"/>
<path d="M10.106 33.234H10.0967L6.0509 29.6602C5.83674 29.6322 5.62258 29.6182 5.40376 29.6182C2.71279 29.6182 0.533936 31.8017 0.533936 34.4938C0.533936 37.1905 2.71279 39.374 5.40376 39.374C8.09008 39.374 10.2736 37.1905 10.2736 34.4938C10.2689 34.0599 10.2131 33.6353 10.106 33.234ZM5.40376 36.2201C4.45401 36.2201 3.68117 35.4456 3.68117 34.4938C3.68117 33.542 4.45401 32.7675 5.40376 32.7675C6.35352 32.7675 7.1217 33.542 7.1217 34.4938C7.1217 35.4456 6.35352 36.2201 5.40376 36.2201Z" fill="#F4F4F4"/>
<path d="M43.7666 33.234H43.7573L39.7115 29.6602C39.4974 29.6322 39.2832 29.6182 39.0644 29.6182C36.3734 29.6182 34.1946 31.8017 34.1946 34.4984C34.1946 37.1952 36.3734 39.3787 39.0644 39.3787C41.7507 39.3787 43.9342 37.1952 43.9342 34.4984C43.9296 34.0599 43.8737 33.6353 43.7666 33.234ZM39.0644 36.2201C38.1146 36.2201 37.3418 35.4456 37.3418 34.4938C37.3418 33.542 38.1146 32.7675 39.0644 32.7675C40.0142 32.7675 40.7823 33.542 40.7823 34.4938C40.7823 35.4456 40.0095 36.2201 39.0644 36.2201Z" fill="#F4F4F4"/>
<path d="M77.4268 33.234H77.4175L73.3717 29.6602C73.1575 29.6322 72.9434 29.6182 72.7246 29.6182C70.0336 29.6182 67.8547 31.8017 67.8547 34.4984C67.8547 37.1952 70.0336 39.3787 72.7246 39.3787C75.4155 39.3787 77.5944 37.1952 77.5944 34.4984C77.5897 34.0599 77.5339 33.6353 77.4268 33.234ZM72.7246 36.2201C71.7748 36.2201 71.002 35.4456 71.002 34.4938C71.002 33.542 71.7748 32.7675 72.7246 32.7675C73.6743 32.7675 74.4472 33.542 74.4472 34.4938C74.4425 35.4456 73.6743 36.2201 72.7246 36.2201Z" fill="#F4F4F4"/>
<path d="M111.087 33.234H111.078L107.032 29.6602C106.818 29.6322 106.604 29.6182 106.385 29.6182C103.694 29.6182 101.515 31.8017 101.515 34.4984C101.515 37.1952 103.694 39.3787 106.385 39.3787C109.076 39.3787 111.255 37.1952 111.255 34.4984C111.25 34.0599 111.195 33.6353 111.087 33.234ZM106.381 36.2201C105.431 36.2201 104.658 35.4456 104.658 34.4938C104.658 33.542 105.431 32.7675 106.381 32.7675C107.33 32.7675 108.098 33.542 108.098 34.4938C108.103 35.4456 107.33 36.2201 106.381 36.2201Z" fill="#F4F4F4"/>
<path d="M144.748 33.234H144.739L140.693 29.6602C140.479 29.6322 140.264 29.6182 140.046 29.6182C137.355 29.6182 135.176 31.8017 135.176 34.4984C135.176 37.1952 137.355 39.3787 140.046 39.3787C142.732 39.3787 144.915 37.1952 144.915 34.4984C144.911 34.0599 144.855 33.6353 144.748 33.234ZM140.041 36.2201C139.091 36.2201 138.318 35.4456 138.318 34.4938C138.318 33.542 139.091 32.7675 140.041 32.7675C140.991 32.7675 141.759 33.542 141.759 34.4938C141.764 35.4456 140.991 36.2201 140.041 36.2201Z" fill="#F4F4F4"/>
<path d="M178.408 33.234H178.399L174.353 29.6602C174.139 29.6322 173.925 29.6182 173.706 29.6182C171.015 29.6182 168.836 31.8017 168.836 34.4984C168.836 37.1952 171.015 39.3787 173.706 39.3787C176.392 39.3787 178.576 37.1952 178.576 34.4984C178.571 34.0599 178.515 33.6353 178.408 33.234ZM173.701 36.2201C172.752 36.2201 171.979 35.4456 171.979 34.4938C171.979 33.542 172.752 32.7675 173.701 32.7675C174.651 32.7675 175.419 33.542 175.419 34.4938C175.424 35.4456 174.651 36.2201 173.701 36.2201Z" fill="#F4F4F4"/>
<path d="M10.106 3.61588H10.0967L6.0509 0.0419908C5.83674 0.0139969 5.62258 0 5.40376 0C2.71279 0 0.533936 2.18352 0.533936 4.88027C0.533936 7.57701 2.71279 9.76053 5.40376 9.76053C8.09008 9.76053 10.2736 7.57701 10.2736 4.88027C10.2689 4.44169 10.2131 4.02179 10.106 3.61588ZM5.40376 6.60189C4.45401 6.60189 3.68117 5.82739 3.68117 4.8756C3.68117 3.92381 4.45401 3.14931 5.40376 3.14931C6.35352 3.14931 7.1217 3.92381 7.1217 4.8756C7.1217 5.82739 6.35352 6.60189 5.40376 6.60189Z" fill="#F4F4F4"/>
<path d="M43.7664 3.61588H43.7571L39.7113 0.0419908C39.4971 0.0139969 39.283 0 39.0642 0C36.3732 0 34.1943 2.18352 34.1943 4.88027C34.1943 7.57701 36.3732 9.76053 39.0642 9.76053C41.7505 9.76053 43.934 7.57701 43.934 4.88027C43.9293 4.44169 43.8735 4.02179 43.7664 3.61588ZM39.0642 6.60189C38.1144 6.60189 37.3416 5.82739 37.3416 4.8756C37.3416 3.92381 38.1144 3.14931 39.0642 3.14931C40.0139 3.14931 40.7821 3.92381 40.7821 4.8756C40.7821 5.82739 40.0093 6.60189 39.0642 6.60189Z" fill="#F4F4F4"/>
<path d="M77.4269 3.61588H77.4176L73.3718 0.0419908C73.1577 0.0139969 72.9435 0 72.7247 0C70.0337 0 67.8549 2.18352 67.8549 4.88027C67.8549 7.57701 70.0337 9.76053 72.7247 9.76053C75.4157 9.76053 77.5945 7.57701 77.5945 4.88027C77.5899 4.44169 77.534 4.02179 77.4269 3.61588ZM72.7247 6.60189C71.7749 6.60189 71.0021 5.82739 71.0021 4.8756C71.0021 3.92381 71.7749 3.14931 72.7247 3.14931C73.6744 3.14931 74.4473 3.92381 74.4473 4.8756C74.4426 5.82739 73.6744 6.60189 72.7247 6.60189Z" fill="#F4F4F4"/>
<path d="M111.087 3.61588H111.078L107.032 0.0419908C106.818 0.0139969 106.604 0 106.38 0C103.689 0 101.511 2.18352 101.511 4.88027C101.511 7.57701 103.689 9.76053 106.38 9.76053C109.071 9.76053 111.25 7.57701 111.25 4.88027C111.25 4.44169 111.194 4.02179 111.087 3.61588ZM106.38 6.60189C105.431 6.60189 104.658 5.82739 104.658 4.8756C104.658 3.92381 105.431 3.14931 106.38 3.14931C107.33 3.14931 108.098 3.92381 108.098 4.8756C108.103 5.82739 107.33 6.60189 106.38 6.60189Z" fill="#F4F4F4"/>
<path d="M144.748 3.61588H144.739L140.693 0.0419908C140.479 0.0139969 140.264 0 140.041 0C137.35 0 135.171 2.18352 135.171 4.88027C135.171 7.57701 137.35 9.76053 140.041 9.76053C142.727 9.76053 144.911 7.57701 144.911 4.88027C144.911 4.44169 144.855 4.02179 144.748 3.61588ZM140.041 6.60189C139.091 6.60189 138.318 5.82739 138.318 4.8756C138.318 3.92381 139.091 3.14931 140.041 3.14931C140.991 3.14931 141.759 3.92381 141.759 4.8756C141.764 5.82739 140.991 6.60189 140.041 6.60189Z" fill="#F4F4F4"/>
<path d="M178.408 3.61588H178.399L174.353 0.0419908C174.139 0.0139969 173.925 0 173.701 0C171.01 0 168.832 2.18352 168.832 4.88027C168.832 7.57701 171.01 9.76053 173.701 9.76053C176.388 9.76053 178.571 7.57701 178.571 4.88027C178.571 4.44169 178.515 4.02179 178.408 3.61588ZM173.701 6.60189C172.752 6.60189 171.979 5.82739 171.979 4.8756C171.979 3.92381 172.752 3.14931 173.701 3.14931C174.651 3.14931 175.419 3.92381 175.419 4.8756C175.424 5.82739 174.651 6.60189 173.701 6.60189Z" fill="#F4F4F4"/>
<path d="M212.069 210.928H212.059L208.014 207.354C207.8 207.326 207.585 207.312 207.367 207.312C204.676 207.312 202.497 209.496 202.497 212.193C202.497 214.89 204.676 217.073 207.367 217.073C210.058 217.073 212.236 214.89 212.236 212.193C212.232 211.754 212.176 211.334 212.069 210.928ZM207.362 213.914C206.412 213.914 205.639 213.14 205.639 212.188C205.639 211.236 206.412 210.462 207.362 210.462C208.312 210.462 209.084 211.236 209.084 212.188C209.084 213.14 208.312 213.914 207.362 213.914Z" fill="#F4F4F4"/>
<path d="M245.729 210.928H245.72L241.674 207.354C241.46 207.326 241.246 207.312 241.027 207.312C238.336 207.312 236.157 209.496 236.157 212.193C236.157 214.89 238.336 217.073 241.027 217.073C243.718 217.073 245.897 214.89 245.897 212.193C245.892 211.754 245.836 211.334 245.729 210.928ZM241.022 213.914C240.072 213.914 239.3 213.14 239.3 212.188C239.3 211.236 240.072 210.462 241.022 210.462C241.972 210.462 242.745 211.236 242.745 212.188C242.745 213.14 241.972 213.914 241.022 213.914Z" fill="#F4F4F4"/>
<path d="M279.39 210.928H279.38L275.335 207.354C275.12 207.326 274.906 207.312 274.687 207.312C271.996 207.312 269.818 209.496 269.818 212.193C269.818 214.89 271.996 217.073 274.687 217.073C277.374 217.073 279.557 214.89 279.557 212.193C279.553 211.754 279.497 211.334 279.39 210.928ZM274.683 213.914C273.733 213.914 272.96 213.14 272.96 212.188C272.96 211.236 273.733 210.462 274.683 210.462C275.633 210.462 276.401 211.236 276.401 212.188C276.405 213.14 275.633 213.914 274.683 213.914Z" fill="#F4F4F4"/>
<path d="M313.05 210.928H313.041L308.995 207.354C308.781 207.326 308.567 207.312 308.348 207.312C305.657 207.312 303.478 209.496 303.478 212.193C303.478 214.89 305.657 217.073 308.348 217.073C311.034 217.073 313.218 214.89 313.218 212.193C313.213 211.754 313.157 211.334 313.05 210.928ZM308.343 213.914C307.394 213.914 306.621 213.14 306.621 212.188C306.621 211.236 307.394 210.462 308.343 210.462C309.293 210.462 310.061 211.236 310.061 212.188C310.066 213.14 309.293 213.914 308.343 213.914Z" fill="#F4F4F4"/>
<path d="M212.069 181.316H212.059L208.014 177.742C207.799 177.714 207.585 177.7 207.366 177.7C204.675 177.7 202.497 179.884 202.497 182.58C202.497 185.277 204.675 187.461 207.366 187.461C210.057 187.461 212.236 185.277 212.236 182.58C212.232 182.137 212.176 181.717 212.069 181.316ZM207.362 184.302C206.412 184.302 205.639 183.528 205.639 182.576C205.639 181.624 206.412 180.85 207.362 180.85C208.312 180.85 209.084 181.624 209.084 182.576C209.084 183.528 208.312 184.302 207.362 184.302Z" fill="#F4F4F4"/>
<path d="M245.729 181.316H245.72L241.674 177.742C241.46 177.714 241.246 177.7 241.027 177.7C238.336 177.7 236.157 179.884 236.157 182.58C236.157 185.277 238.336 187.461 241.027 187.461C243.718 187.461 245.897 185.277 245.897 182.58C245.892 182.137 245.836 181.717 245.729 181.316ZM241.022 184.302C240.073 184.302 239.3 183.528 239.3 182.576C239.3 181.624 240.073 180.85 241.022 180.85C241.972 180.85 242.745 181.624 242.745 182.576C242.745 183.528 241.972 184.302 241.022 184.302Z" fill="#F4F4F4"/>
<path d="M279.39 181.316H279.38L275.335 177.742C275.12 177.714 274.906 177.7 274.687 177.7C271.996 177.7 269.818 179.884 269.818 182.58C269.818 185.277 271.996 187.461 274.687 187.461C277.374 187.461 279.557 185.277 279.557 182.58C279.553 182.137 279.497 181.717 279.39 181.316ZM274.683 184.302C273.733 184.302 272.96 183.528 272.96 182.576C272.96 181.624 273.733 180.85 274.683 180.85C275.633 180.85 276.401 181.624 276.401 182.576C276.405 183.528 275.633 184.302 274.683 184.302Z" fill="#F4F4F4"/>
<path d="M313.05 181.316H313.041L308.995 177.742C308.781 177.714 308.567 177.7 308.348 177.7C305.657 177.7 303.478 179.884 303.478 182.58C303.478 185.277 305.657 187.461 308.348 187.461C311.034 187.461 313.218 185.277 313.218 182.58C313.213 182.137 313.157 181.717 313.05 181.316ZM308.343 184.302C307.393 184.302 306.621 183.528 306.621 182.576C306.621 181.624 307.393 180.85 308.343 180.85C309.293 180.85 310.061 181.624 310.061 182.576C310.066 183.528 309.293 184.302 308.343 184.302Z" fill="#F4F4F4"/>
<path d="M212.069 151.699H212.059L208.014 148.125C207.8 148.097 207.585 148.083 207.367 148.083C204.676 148.083 202.497 150.267 202.497 152.963C202.497 155.66 204.676 157.844 207.367 157.844C210.058 157.844 212.236 155.66 212.236 152.963C212.232 152.525 212.176 152.1 212.069 151.699ZM207.362 154.685C206.412 154.685 205.639 153.91 205.639 152.959C205.639 152.007 206.412 151.232 207.362 151.232C208.312 151.232 209.084 152.007 209.084 152.959C209.084 153.91 208.312 154.685 207.362 154.685Z" fill="#F4F4F4"/>
<path d="M245.729 151.699H245.72L241.674 148.125C241.46 148.097 241.246 148.083 241.027 148.083C238.336 148.083 236.157 150.267 236.157 152.963C236.157 155.66 238.336 157.844 241.027 157.844C243.718 157.844 245.897 155.66 245.897 152.963C245.892 152.525 245.836 152.1 245.729 151.699ZM241.022 154.685C240.073 154.685 239.3 153.91 239.3 152.959C239.3 152.007 240.073 151.232 241.022 151.232C241.972 151.232 242.745 152.007 242.745 152.959C242.745 153.91 241.972 154.685 241.022 154.685Z" fill="#F4F4F4"/>
<path d="M279.39 151.699H279.38L275.335 148.125C275.12 148.097 274.906 148.083 274.687 148.083C271.996 148.083 269.818 150.267 269.818 152.963C269.818 155.66 271.996 157.844 274.687 157.844C277.374 157.844 279.557 155.66 279.557 152.963C279.553 152.525 279.497 152.1 279.39 151.699ZM274.683 154.685C273.733 154.685 272.96 153.91 272.96 152.959C272.96 152.007 273.733 151.232 274.683 151.232C275.633 151.232 276.401 152.007 276.401 152.959C276.405 153.91 275.633 154.685 274.683 154.685Z" fill="#F4F4F4"/>
<path d="M313.05 151.699H313.041L308.995 148.125C308.781 148.097 308.567 148.083 308.348 148.083C305.657 148.083 303.478 150.267 303.478 152.963C303.478 155.66 305.657 157.844 308.348 157.844C311.034 157.844 313.218 155.66 313.218 152.963C313.213 152.525 313.157 152.1 313.05 151.699ZM308.343 154.685C307.393 154.685 306.621 153.91 306.621 152.959C306.621 152.007 307.393 151.232 308.343 151.232C309.293 151.232 310.061 152.007 310.061 152.959C310.066 153.91 309.293 154.685 308.343 154.685Z" fill="#F4F4F4"/>
<path d="M212.069 122.082H212.059L208.014 118.508C207.8 118.48 207.585 118.466 207.367 118.466C204.676 118.466 202.497 120.649 202.497 123.346C202.497 126.043 204.676 128.226 207.367 128.226C210.058 128.226 212.236 126.043 212.236 123.346C212.232 122.908 212.176 122.488 212.069 122.082ZM207.362 125.068C206.412 125.068 205.639 124.293 205.639 123.341C205.639 122.39 206.412 121.615 207.362 121.615C208.312 121.615 209.084 122.39 209.084 123.341C209.084 124.293 208.312 125.068 207.362 125.068Z" fill="#F4F4F4"/>
<path d="M245.729 122.082H245.72L241.674 118.508C241.46 118.48 241.246 118.466 241.027 118.466C238.336 118.466 236.157 120.649 236.157 123.346C236.157 126.043 238.336 128.226 241.027 128.226C243.718 128.226 245.897 126.043 245.897 123.346C245.892 122.908 245.836 122.488 245.729 122.082ZM241.022 125.068C240.072 125.068 239.3 124.293 239.3 123.341C239.3 122.39 240.072 121.615 241.022 121.615C241.972 121.615 242.745 122.39 242.745 123.341C242.745 124.293 241.972 125.068 241.022 125.068Z" fill="#F4F4F4"/>
<path d="M279.39 122.082H279.38L275.335 118.508C275.12 118.48 274.906 118.466 274.687 118.466C271.996 118.466 269.818 120.649 269.818 123.346C269.818 126.043 271.996 128.226 274.687 128.226C277.374 128.226 279.557 126.043 279.557 123.346C279.553 122.908 279.497 122.488 279.39 122.082ZM274.683 125.068C273.733 125.068 272.96 124.293 272.96 123.341C272.96 122.39 273.733 121.615 274.683 121.615C275.633 121.615 276.401 122.39 276.401 123.341C276.405 124.293 275.633 125.068 274.683 125.068Z" fill="#F4F4F4"/>
<path d="M313.05 122.082H313.041L308.995 118.508C308.781 118.48 308.567 118.466 308.348 118.466C305.657 118.466 303.478 120.649 303.478 123.346C303.478 126.043 305.657 128.226 308.348 128.226C311.034 128.226 313.218 126.043 313.218 123.346C313.213 122.908 313.157 122.488 313.05 122.082ZM308.343 125.068C307.394 125.068 306.621 124.293 306.621 123.341C306.621 122.39 307.394 121.615 308.343 121.615C309.293 121.615 310.061 122.39 310.061 123.341C310.066 124.293 309.293 125.068 308.343 125.068Z" fill="#F4F4F4"/>
<path d="M212.069 92.4635H212.059L208.014 88.8897C207.8 88.8617 207.585 88.8477 207.367 88.8477C204.676 88.8477 202.497 91.0312 202.497 93.7279C202.497 96.4247 204.676 98.6082 207.367 98.6082C210.058 98.6082 212.236 96.4247 212.236 93.7279C212.232 93.2894 212.176 92.8694 212.069 92.4635ZM207.362 95.4495C206.412 95.4495 205.639 94.6751 205.639 93.7233C205.639 92.7715 206.412 91.997 207.362 91.997C208.312 91.997 209.084 92.7715 209.084 93.7233C209.084 94.6797 208.312 95.4495 207.362 95.4495Z" fill="#F4F4F4"/>
<path d="M245.729 92.4635H245.72L241.674 88.8897C241.46 88.8617 241.246 88.8477 241.027 88.8477C238.336 88.8477 236.157 91.0312 236.157 93.7279C236.157 96.4247 238.336 98.6082 241.027 98.6082C243.718 98.6082 245.897 96.4247 245.897 93.7279C245.892 93.2894 245.836 92.8694 245.729 92.4635ZM241.022 95.4495C240.073 95.4495 239.3 94.6751 239.3 93.7233C239.3 92.7715 240.073 91.997 241.022 91.997C241.972 91.997 242.745 92.7715 242.745 93.7233C242.745 94.6797 241.972 95.4495 241.022 95.4495Z" fill="#F4F4F4"/>
<path d="M279.39 92.4635H279.38L275.335 88.8897C275.12 88.8617 274.906 88.8477 274.687 88.8477C271.996 88.8477 269.818 91.0312 269.818 93.7279C269.818 96.4247 271.996 98.6082 274.687 98.6082C277.374 98.6082 279.557 96.4247 279.557 93.7279C279.553 93.2894 279.497 92.8694 279.39 92.4635ZM274.683 95.4495C273.733 95.4495 272.96 94.6751 272.96 93.7233C272.96 92.7715 273.733 91.997 274.683 91.997C275.633 91.997 276.401 92.7715 276.401 93.7233C276.405 94.6797 275.633 95.4495 274.683 95.4495Z" fill="#F4F4F4"/>
<path d="M313.05 92.4635H313.041L308.995 88.8897C308.781 88.8617 308.567 88.8477 308.348 88.8477C305.657 88.8477 303.478 91.0312 303.478 93.7279C303.478 96.4247 305.657 98.6082 308.348 98.6082C311.034 98.6082 313.218 96.4247 313.218 93.7279C313.213 93.2894 313.157 92.8694 313.05 92.4635ZM308.343 95.4495C307.393 95.4495 306.621 94.6751 306.621 93.7233C306.621 92.7715 307.393 91.997 308.343 91.997C309.293 91.997 310.061 92.7715 310.061 93.7233C310.066 94.6797 309.293 95.4495 308.343 95.4495Z" fill="#F4F4F4"/>
<path d="M212.069 62.8503H212.06L208.014 59.2764C207.8 59.2484 207.585 59.2344 207.367 59.2344C204.676 59.2344 202.497 61.4179 202.497 64.1146C202.497 66.8114 204.676 68.9949 207.367 68.9949C210.058 68.9949 212.236 66.8114 212.236 64.1146C212.232 63.6714 212.176 63.2515 212.069 62.8503ZM207.362 65.8363C206.412 65.8363 205.639 65.0618 205.639 64.11C205.639 63.1582 206.412 62.3837 207.362 62.3837C208.312 62.3837 209.085 63.1582 209.085 64.11C209.085 65.0618 208.312 65.8363 207.362 65.8363Z" fill="#F4F4F4"/>
<path d="M245.729 62.8503H245.72L241.674 59.2764C241.46 59.2484 241.246 59.2344 241.027 59.2344C238.336 59.2344 236.157 61.4179 236.157 64.1146C236.157 66.8114 238.336 68.9949 241.027 68.9949C243.718 68.9949 245.897 66.8114 245.897 64.1146C245.892 63.6714 245.836 63.2515 245.729 62.8503ZM241.022 65.8363C240.072 65.8363 239.3 65.0618 239.3 64.11C239.3 63.1582 240.072 62.3837 241.022 62.3837C241.972 62.3837 242.745 63.1582 242.745 64.11C242.745 65.0618 241.972 65.8363 241.022 65.8363Z" fill="#F4F4F4"/>
<path d="M279.39 62.8503H279.38L275.335 59.2764C275.12 59.2484 274.906 59.2344 274.687 59.2344C271.996 59.2344 269.818 61.4179 269.818 64.1146C269.818 66.8114 271.996 68.9949 274.687 68.9949C277.374 68.9949 279.557 66.8114 279.557 64.1146C279.553 63.6714 279.497 63.2515 279.39 62.8503ZM274.683 65.8363C273.733 65.8363 272.96 65.0618 272.96 64.11C272.96 63.1582 273.733 62.3837 274.683 62.3837C275.633 62.3837 276.401 63.1582 276.401 64.11C276.405 65.0618 275.633 65.8363 274.683 65.8363Z" fill="#F4F4F4"/>
<path d="M313.05 62.8503H313.041L308.995 59.2764C308.781 59.2484 308.567 59.2344 308.348 59.2344C305.657 59.2344 303.478 61.4179 303.478 64.1146C303.478 66.8114 305.657 68.9949 308.348 68.9949C311.034 68.9949 313.218 66.8114 313.218 64.1146C313.213 63.6714 313.157 63.2515 313.05 62.8503ZM308.343 65.8363C307.393 65.8363 306.621 65.0618 306.621 64.11C306.621 63.1582 307.393 62.3837 308.343 62.3837C309.293 62.3837 310.061 63.1582 310.061 64.11C310.066 65.0618 309.293 65.8363 308.343 65.8363Z" fill="#F4F4F4"/>
<path d="M212.069 33.234H212.06L208.014 29.6602C207.8 29.6322 207.585 29.6182 207.367 29.6182C204.676 29.6182 202.497 31.8017 202.497 34.4984C202.497 37.1952 204.676 39.3787 207.367 39.3787C210.058 39.3787 212.236 37.1952 212.236 34.4984C212.232 34.0599 212.176 33.6353 212.069 33.234ZM207.362 36.2201C206.412 36.2201 205.639 35.4456 205.639 34.4938C205.639 33.542 206.412 32.7675 207.362 32.7675C208.312 32.7675 209.085 33.542 209.085 34.4938C209.085 35.4456 208.312 36.2201 207.362 36.2201Z" fill="#F4F4F4"/>
<path d="M245.729 33.234H245.72L241.674 29.6602C241.46 29.6322 241.246 29.6182 241.027 29.6182C238.336 29.6182 236.157 31.8017 236.157 34.4984C236.157 37.1952 238.336 39.3787 241.027 39.3787C243.718 39.3787 245.897 37.1952 245.897 34.4984C245.892 34.0599 245.836 33.6353 245.729 33.234ZM241.022 36.2201C240.072 36.2201 239.3 35.4456 239.3 34.4938C239.3 33.542 240.072 32.7675 241.022 32.7675C241.972 32.7675 242.745 33.542 242.745 34.4938C242.745 35.4456 241.972 36.2201 241.022 36.2201Z" fill="#F4F4F4"/>
<path d="M279.39 33.234H279.38L275.335 29.6602C275.12 29.6322 274.906 29.6182 274.687 29.6182C271.996 29.6182 269.818 31.8017 269.818 34.4984C269.818 37.1952 271.996 39.3787 274.687 39.3787C277.374 39.3787 279.557 37.1952 279.557 34.4984C279.553 34.0599 279.497 33.6353 279.39 33.234ZM274.683 36.2201C273.733 36.2201 272.96 35.4456 272.96 34.4938C272.96 33.542 273.733 32.7675 274.683 32.7675C275.633 32.7675 276.401 33.542 276.401 34.4938C276.405 35.4456 275.633 36.2201 274.683 36.2201Z" fill="#F4F4F4"/>
<path d="M313.05 33.234H313.041L308.995 29.6602C308.781 29.6322 308.567 29.6182 308.348 29.6182C305.657 29.6182 303.478 31.8017 303.478 34.4984C303.478 37.1952 305.657 39.3787 308.348 39.3787C311.034 39.3787 313.218 37.1952 313.218 34.4984C313.213 34.0599 313.157 33.6353 313.05 33.234ZM308.343 36.2201C307.393 36.2201 306.621 35.4456 306.621 34.4938C306.621 33.542 307.393 32.7675 308.343 32.7675C309.293 32.7675 310.061 33.542 310.061 34.4938C310.066 35.4456 309.293 36.2201 308.343 36.2201Z" fill="#F4F4F4"/>
<path d="M212.069 3.61588H212.059L208.014 0.0419908C207.799 0.0139969 207.585 0 207.362 0C204.671 0 202.492 2.18352 202.492 4.88027C202.492 7.57701 204.671 9.76053 207.362 9.76053C210.053 9.76053 212.232 7.57701 212.232 4.88027C212.232 4.44169 212.176 4.02179 212.069 3.61588ZM207.362 6.60189C206.412 6.60189 205.639 5.82739 205.639 4.8756C205.639 3.92381 206.412 3.14931 207.362 3.14931C208.312 3.14931 209.084 3.92381 209.084 4.8756C209.084 5.82739 208.312 6.60189 207.362 6.60189Z" fill="#F4F4F4"/>
<path d="M245.729 3.61588H245.72L241.674 0.0419908C241.46 0.0139969 241.246 0 241.022 0C238.331 0 236.152 2.18352 236.152 4.88027C236.152 7.57701 238.331 9.76053 241.022 9.76053C243.713 9.76053 245.892 7.57701 245.892 4.88027C245.892 4.44169 245.836 4.02179 245.729 3.61588ZM241.022 6.60189C240.073 6.60189 239.3 5.82739 239.3 4.8756C239.3 3.92381 240.073 3.14931 241.022 3.14931C241.972 3.14931 242.745 3.92381 242.745 4.8756C242.745 5.82739 241.972 6.60189 241.022 6.60189Z" fill="#F4F4F4"/>
<path d="M279.39 3.61588H279.38L275.335 0.0419908C275.12 0.0139969 274.906 0 274.683 0C271.992 0 269.813 2.18352 269.813 4.88027C269.813 7.57701 271.992 9.76053 274.683 9.76053C277.369 9.76053 279.553 7.57701 279.553 4.88027C279.553 4.44169 279.497 4.02179 279.39 3.61588ZM274.683 6.60189C273.733 6.60189 272.96 5.82739 272.96 4.8756C272.96 3.92381 273.733 3.14931 274.683 3.14931C275.633 3.14931 276.401 3.92381 276.401 4.8756C276.405 5.82739 275.633 6.60189 274.683 6.60189Z" fill="#F4F4F4"/>
<path d="M313.05 3.61588H313.041L308.995 0.0419908C308.781 0.0139969 308.567 0 308.343 0C305.652 0 303.473 2.18352 303.473 4.88027C303.473 7.57701 305.652 9.76053 308.343 9.76053C311.03 9.76053 313.213 7.57701 313.213 4.88027C313.213 4.44169 313.157 4.02179 313.05 3.61588ZM308.343 6.60189C307.393 6.60189 306.621 5.82739 306.621 4.8756C306.621 3.92381 307.393 3.14931 308.343 3.14931C309.293 3.14931 310.061 3.92381 310.061 4.8756C310.066 5.82739 309.293 6.60189 308.343 6.60189Z" fill="#F4F4F4"/>
<path d="M10.106 447.86H10.0967L6.0509 444.286C5.83674 444.258 5.62258 444.244 5.40376 444.244C2.71279 444.244 0.533936 446.428 0.533936 449.12C0.533936 451.816 2.71279 454 5.40376 454C8.09008 454 10.2736 451.816 10.2736 449.12C10.2689 448.686 10.2131 448.261 10.106 447.86ZM5.40376 450.846C4.45401 450.846 3.68117 450.072 3.68117 449.12C3.68117 448.168 4.45401 447.393 5.40376 447.393C6.35352 447.393 7.1217 448.168 7.1217 449.12C7.1217 450.072 6.35352 450.846 5.40376 450.846Z" fill="#F4F4F4"/>
<path d="M43.7666 447.86H43.7573L39.7115 444.286C39.4974 444.258 39.2832 444.244 39.0644 444.244C36.3734 444.244 34.1946 446.428 34.1946 449.124C34.1946 451.821 36.3734 454.005 39.0644 454.005C41.7507 454.005 43.9342 451.821 43.9342 449.124C43.9296 448.686 43.8737 448.261 43.7666 447.86ZM39.0644 450.846C38.1146 450.846 37.3418 450.072 37.3418 449.12C37.3418 448.168 38.1146 447.393 39.0644 447.393C40.0142 447.393 40.7823 448.168 40.7823 449.12C40.7823 450.072 40.0095 450.846 39.0644 450.846Z" fill="#F4F4F4"/>
<path d="M77.4268 447.86H77.4175L73.3717 444.286C73.1575 444.258 72.9434 444.244 72.7246 444.244C70.0336 444.244 67.8547 446.428 67.8547 449.124C67.8547 451.821 70.0336 454.005 72.7246 454.005C75.4155 454.005 77.5944 451.821 77.5944 449.124C77.5897 448.686 77.5339 448.261 77.4268 447.86ZM72.7246 450.846C71.7748 450.846 71.002 450.072 71.002 449.12C71.002 448.168 71.7748 447.393 72.7246 447.393C73.6743 447.393 74.4472 448.168 74.4472 449.12C74.4425 450.072 73.6743 450.846 72.7246 450.846Z" fill="#F4F4F4"/>
<path d="M111.087 447.86H111.078L107.032 444.286C106.818 444.258 106.604 444.244 106.385 444.244C103.694 444.244 101.515 446.428 101.515 449.124C101.515 451.821 103.694 454.005 106.385 454.005C109.076 454.005 111.255 451.821 111.255 449.124C111.25 448.686 111.195 448.261 111.087 447.86ZM106.381 450.846C105.431 450.846 104.658 450.072 104.658 449.12C104.658 448.168 105.431 447.393 106.381 447.393C107.33 447.393 108.098 448.168 108.098 449.12C108.103 450.072 107.33 450.846 106.381 450.846Z" fill="#F4F4F4"/>
<path d="M144.748 447.86H144.739L140.693 444.286C140.479 444.258 140.264 444.244 140.046 444.244C137.355 444.244 135.176 446.428 135.176 449.124C135.176 451.821 137.355 454.005 140.046 454.005C142.732 454.005 144.915 451.821 144.915 449.124C144.911 448.686 144.855 448.261 144.748 447.86ZM140.041 450.846C139.091 450.846 138.318 450.072 138.318 449.12C138.318 448.168 139.091 447.393 140.041 447.393C140.991 447.393 141.759 448.168 141.759 449.12C141.764 450.072 140.991 450.846 140.041 450.846Z" fill="#F4F4F4"/>
<path d="M178.408 447.86H178.399L174.353 444.286C174.139 444.258 173.925 444.244 173.706 444.244C171.015 444.244 168.836 446.428 168.836 449.124C168.836 451.821 171.015 454.005 173.706 454.005C176.392 454.005 178.576 451.821 178.576 449.124C178.571 448.686 178.515 448.261 178.408 447.86ZM173.701 450.846C172.752 450.846 171.979 450.072 171.979 449.12C171.979 448.168 172.752 447.393 173.701 447.393C174.651 447.393 175.419 448.168 175.419 449.12C175.424 450.072 174.651 450.846 173.701 450.846Z" fill="#F4F4F4"/>
<path d="M10.106 418.243H10.0967L6.0509 414.669C5.83674 414.641 5.62258 414.627 5.40376 414.627C2.71279 414.627 0.533936 416.81 0.533936 419.503C0.533936 422.195 2.71279 424.383 5.40376 424.383C8.09008 424.383 10.2736 422.199 10.2736 419.503C10.2689 419.069 10.2131 418.649 10.106 418.243ZM5.40376 421.229C4.45401 421.229 3.68117 420.454 3.68117 419.503C3.68117 418.551 4.45401 417.776 5.40376 417.776C6.35352 417.776 7.1217 418.551 7.1217 419.503C7.1217 420.454 6.35352 421.229 5.40376 421.229Z" fill="#F4F4F4"/>
<path d="M43.7664 418.243H43.7571L39.7113 414.669C39.4971 414.641 39.283 414.627 39.0642 414.627C36.3732 414.627 34.1943 416.81 34.1943 419.507C34.1943 422.199 36.3732 424.387 39.0642 424.387C41.7505 424.387 43.934 422.204 43.934 419.507C43.9293 419.069 43.8735 418.649 43.7664 418.243ZM39.0642 421.229C38.1144 421.229 37.3416 420.454 37.3416 419.503C37.3416 418.551 38.1144 417.776 39.0642 417.776C40.0139 417.776 40.7821 418.551 40.7821 419.503C40.7821 420.454 40.0093 421.229 39.0642 421.229Z" fill="#F4F4F4"/>
<path d="M77.4268 418.243H77.4175L73.3717 414.669C73.1575 414.641 72.9434 414.627 72.7246 414.627C70.0336 414.627 67.8547 416.81 67.8547 419.507C67.8547 422.199 70.0336 424.387 72.7246 424.387C75.4155 424.387 77.5944 422.204 77.5944 419.507C77.5897 419.069 77.5339 418.649 77.4268 418.243ZM72.7246 421.229C71.7748 421.229 71.002 420.454 71.002 419.503C71.002 418.551 71.7748 417.776 72.7246 417.776C73.6743 417.776 74.4472 418.551 74.4472 419.503C74.4425 420.454 73.6743 421.229 72.7246 421.229Z" fill="#F4F4F4"/>
<path d="M111.087 418.243H111.078L107.032 414.669C106.818 414.641 106.604 414.627 106.385 414.627C103.694 414.627 101.515 416.81 101.515 419.507C101.515 422.199 103.694 424.387 106.385 424.387C109.076 424.387 111.255 422.204 111.255 419.507C111.25 419.069 111.195 418.649 111.087 418.243ZM106.381 421.229C105.431 421.229 104.658 420.454 104.658 419.503C104.658 418.551 105.431 417.776 106.381 417.776C107.33 417.776 108.098 418.551 108.098 419.503C108.103 420.454 107.33 421.229 106.381 421.229Z" fill="#F4F4F4"/>
<path d="M144.748 418.243H144.739L140.693 414.669C140.479 414.641 140.264 414.627 140.046 414.627C137.355 414.627 135.176 416.81 135.176 419.507C135.176 422.199 137.355 424.387 140.046 424.387C142.732 424.387 144.915 422.204 144.915 419.507C144.911 419.069 144.855 418.649 144.748 418.243ZM140.041 421.229C139.091 421.229 138.318 420.454 138.318 419.503C138.318 418.551 139.091 417.776 140.041 417.776C140.991 417.776 141.759 418.551 141.759 419.503C141.764 420.454 140.991 421.229 140.041 421.229Z" fill="#F4F4F4"/>
<path d="M178.408 418.243H178.399L174.353 414.669C174.139 414.641 173.925 414.627 173.706 414.627C171.015 414.627 168.836 416.81 168.836 419.507C168.836 422.199 171.015 424.387 173.706 424.387C176.392 424.387 178.576 422.204 178.576 419.507C178.571 419.069 178.515 418.649 178.408 418.243ZM173.701 421.229C172.752 421.229 171.979 420.454 171.979 419.503C171.979 418.551 172.752 417.776 173.701 417.776C174.651 417.776 175.419 418.551 175.419 419.503C175.424 420.454 174.651 421.229 173.701 421.229Z" fill="#F4F4F4"/>
<path d="M10.106 388.63H10.0967L6.0509 385.056C5.83674 385.028 5.62258 385.014 5.40376 385.014C2.71279 385.009 0.533936 387.193 0.533936 389.889C0.533936 392.586 2.71279 394.77 5.40376 394.77C8.09008 394.77 10.2736 392.586 10.2736 389.889C10.2689 389.451 10.2131 389.031 10.106 388.63ZM5.40376 391.616C4.45401 391.616 3.68117 390.841 3.68117 389.889C3.68117 388.937 4.45401 388.163 5.40376 388.163C6.35352 388.163 7.1217 388.937 7.1217 389.889C7.1217 390.841 6.35352 391.616 5.40376 391.616Z" fill="#F4F4F4"/>
<path d="M43.7666 388.63H43.7573L39.7115 385.056C39.4974 385.028 39.2832 385.014 39.0644 385.014C36.3734 385.014 34.1946 387.197 34.1946 389.894C34.1946 392.591 36.3734 394.774 39.0644 394.774C41.7507 394.774 43.9342 392.591 43.9342 389.894C43.9296 389.451 43.8737 389.031 43.7666 388.63ZM39.0644 391.616C38.1146 391.616 37.3418 390.841 37.3418 389.889C37.3418 388.937 38.1146 388.163 39.0644 388.163C40.0142 388.163 40.7823 388.937 40.7823 389.889C40.7823 390.841 40.0095 391.616 39.0644 391.616Z" fill="#F4F4F4"/>
<path d="M77.4268 388.63H77.4175L73.3717 385.056C73.1575 385.028 72.9434 385.014 72.7246 385.014C70.0336 385.014 67.8547 387.197 67.8547 389.894C67.8547 392.591 70.0336 394.774 72.7246 394.774C75.4155 394.774 77.5944 392.591 77.5944 389.894C77.5897 389.451 77.5339 389.031 77.4268 388.63ZM72.7246 391.616C71.7748 391.616 71.002 390.841 71.002 389.889C71.002 388.937 71.7748 388.163 72.7246 388.163C73.6743 388.163 74.4472 388.937 74.4472 389.889C74.4425 390.841 73.6743 391.616 72.7246 391.616Z" fill="#F4F4F4"/>
<path d="M111.087 388.63H111.078L107.032 385.056C106.818 385.028 106.604 385.014 106.385 385.014C103.694 385.014 101.515 387.197 101.515 389.894C101.515 392.591 103.694 394.774 106.385 394.774C109.076 394.774 111.255 392.591 111.255 389.894C111.25 389.451 111.195 389.031 111.087 388.63ZM106.381 391.616C105.431 391.616 104.658 390.841 104.658 389.889C104.658 388.937 105.431 388.163 106.381 388.163C107.33 388.163 108.098 388.937 108.098 389.889C108.103 390.841 107.33 391.616 106.381 391.616Z" fill="#F4F4F4"/>
<path d="M144.748 388.63H144.739L140.693 385.056C140.479 385.028 140.264 385.014 140.046 385.014C137.355 385.014 135.176 387.197 135.176 389.894C135.176 392.591 137.355 394.774 140.046 394.774C142.732 394.774 144.915 392.591 144.915 389.894C144.911 389.451 144.855 389.031 144.748 388.63ZM140.041 391.616C139.091 391.616 138.318 390.841 138.318 389.889C138.318 388.937 139.091 388.163 140.041 388.163C140.991 388.163 141.759 388.937 141.759 389.889C141.764 390.841 140.991 391.616 140.041 391.616Z" fill="#F4F4F4"/>
<path d="M178.408 388.63H178.399L174.353 385.056C174.139 385.028 173.925 385.014 173.706 385.014C171.015 385.014 168.836 387.197 168.836 389.894C168.836 392.591 171.015 394.774 173.706 394.774C176.392 394.774 178.576 392.591 178.576 389.894C178.571 389.451 178.515 389.031 178.408 388.63ZM173.701 391.616C172.752 391.616 171.979 390.841 171.979 389.889C171.979 388.937 172.752 388.163 173.701 388.163C174.651 388.163 175.419 388.937 175.419 389.889C175.424 390.841 174.651 391.616 173.701 391.616Z" fill="#F4F4F4"/>
<path d="M10.106 359.012H10.0967L6.0509 355.438C5.83674 355.411 5.62258 355.396 5.40376 355.396C2.71279 355.392 0.533936 357.575 0.533936 360.272C0.533936 362.964 2.71279 365.152 5.40376 365.152C8.09008 365.152 10.2736 362.969 10.2736 360.272C10.2689 359.834 10.2131 359.414 10.106 359.012ZM5.40376 361.998C4.45401 361.998 3.68117 361.224 3.68117 360.272C3.68117 359.32 4.45401 358.546 5.40376 358.546C6.35352 358.546 7.1217 359.32 7.1217 360.272C7.1217 361.224 6.35352 361.998 5.40376 361.998Z" fill="#F4F4F4"/>
<path d="M43.7665 359.012H43.7572L39.7114 355.438C39.4973 355.41 39.2831 355.396 39.0643 355.396C36.3733 355.396 34.1945 357.58 34.1945 360.277C34.1945 362.969 36.3733 365.157 39.0643 365.157C41.7506 365.157 43.9341 362.974 43.9341 360.277C43.9295 359.834 43.8736 359.414 43.7665 359.012ZM39.0643 361.998C38.1145 361.998 37.3417 361.224 37.3417 360.272C37.3417 359.32 38.1145 358.546 39.0643 358.546C40.014 358.546 40.7822 359.32 40.7822 360.272C40.7822 361.224 40.0094 361.998 39.0643 361.998Z" fill="#F4F4F4"/>
<path d="M77.4268 359.012H77.4175L73.3717 355.438C73.1575 355.41 72.9434 355.396 72.7246 355.396C70.0336 355.396 67.8547 357.58 67.8547 360.277C67.8547 362.969 70.0336 365.157 72.7246 365.157C75.4155 365.157 77.5944 362.974 77.5944 360.277C77.5897 359.834 77.5339 359.414 77.4268 359.012ZM72.7246 361.998C71.7748 361.998 71.002 361.224 71.002 360.272C71.002 359.32 71.7748 358.546 72.7246 358.546C73.6743 358.546 74.4472 359.32 74.4472 360.272C74.4425 361.224 73.6743 361.998 72.7246 361.998Z" fill="#F4F4F4"/>
<path d="M111.087 359.012H111.078L107.032 355.438C106.818 355.41 106.604 355.396 106.385 355.396C103.694 355.396 101.515 357.58 101.515 360.277C101.515 362.969 103.694 365.157 106.385 365.157C109.076 365.157 111.255 362.974 111.255 360.277C111.25 359.834 111.195 359.414 111.087 359.012ZM106.381 361.998C105.431 361.998 104.658 361.224 104.658 360.272C104.658 359.32 105.431 358.546 106.381 358.546C107.33 358.546 108.098 359.32 108.098 360.272C108.103 361.224 107.33 361.998 106.381 361.998Z" fill="#F4F4F4"/>
<path d="M144.748 359.012H144.739L140.693 355.438C140.479 355.41 140.265 355.396 140.046 355.396C137.355 355.396 135.176 357.58 135.176 360.277C135.176 362.969 137.355 365.157 140.046 365.157C142.732 365.157 144.916 362.974 144.916 360.277C144.911 359.834 144.855 359.414 144.748 359.012ZM140.041 361.998C139.091 361.998 138.318 361.224 138.318 360.272C138.318 359.32 139.091 358.546 140.041 358.546C140.991 358.546 141.759 359.32 141.759 360.272C141.764 361.224 140.991 361.998 140.041 361.998Z" fill="#F4F4F4"/>
<path d="M178.408 359.012H178.399L174.353 355.438C174.139 355.41 173.925 355.396 173.706 355.396C171.015 355.396 168.836 357.58 168.836 360.277C168.836 362.969 171.015 365.157 173.706 365.157C176.392 365.157 178.576 362.974 178.576 360.277C178.571 359.834 178.515 359.414 178.408 359.012ZM173.701 361.998C172.752 361.998 171.979 361.224 171.979 360.272C171.979 359.32 172.752 358.546 173.701 358.546C174.651 358.546 175.419 359.32 175.419 360.272C175.424 361.224 174.651 361.998 173.701 361.998Z" fill="#F4F4F4"/>
<path d="M10.106 329.394H10.0967L6.0509 325.82C5.83674 325.792 5.62258 325.778 5.40376 325.778C2.71279 325.778 0.533936 327.962 0.533936 330.654C0.533936 333.351 2.71279 335.534 5.40376 335.534C8.09008 335.534 10.2736 333.351 10.2736 330.654C10.2689 330.22 10.2131 329.795 10.106 329.394ZM5.40376 332.38C4.45401 332.38 3.68117 331.606 3.68117 330.654C3.68117 329.702 4.45401 328.928 5.40376 328.928C6.35352 328.928 7.1217 329.702 7.1217 330.654C7.1217 331.606 6.35352 332.38 5.40376 332.38Z" fill="#F4F4F4"/>
<path d="M43.7664 329.394H43.7571L39.7113 325.82C39.4971 325.792 39.283 325.778 39.0642 325.778C36.3732 325.778 34.1943 327.962 34.1943 330.659C34.1943 333.355 36.3732 335.539 39.0642 335.539C41.7505 335.539 43.934 333.355 43.934 330.659C43.9293 330.22 43.8735 329.795 43.7664 329.394ZM39.0642 332.38C38.1144 332.38 37.3416 331.606 37.3416 330.654C37.3416 329.702 38.1144 328.928 39.0642 328.928C40.0139 328.928 40.7821 329.702 40.7821 330.654C40.7821 331.606 40.0093 332.38 39.0642 332.38Z" fill="#F4F4F4"/>
<path d="M77.4268 329.394H77.4175L73.3717 325.82C73.1575 325.792 72.9434 325.778 72.7246 325.778C70.0336 325.778 67.8547 327.962 67.8547 330.659C67.8547 333.355 70.0336 335.539 72.7246 335.539C75.4155 335.539 77.5944 333.355 77.5944 330.659C77.5897 330.22 77.5339 329.795 77.4268 329.394ZM72.7246 332.38C71.7748 332.38 71.002 331.606 71.002 330.654C71.002 329.702 71.7748 328.928 72.7246 328.928C73.6743 328.928 74.4472 329.702 74.4472 330.654C74.4425 331.606 73.6743 332.38 72.7246 332.38Z" fill="#F4F4F4"/>
<path d="M111.087 329.394H111.078L107.032 325.82C106.818 325.792 106.604 325.778 106.385 325.778C103.694 325.778 101.515 327.962 101.515 330.659C101.515 333.355 103.694 335.539 106.385 335.539C109.076 335.539 111.255 333.355 111.255 330.659C111.25 330.22 111.195 329.795 111.087 329.394ZM106.381 332.38C105.431 332.38 104.658 331.606 104.658 330.654C104.658 329.702 105.431 328.928 106.381 328.928C107.33 328.928 108.098 329.702 108.098 330.654C108.103 331.606 107.33 332.38 106.381 332.38Z" fill="#F4F4F4"/>
<path d="M144.748 329.394H144.739L140.693 325.82C140.479 325.792 140.264 325.778 140.046 325.778C137.355 325.778 135.176 327.962 135.176 330.659C135.176 333.355 137.355 335.539 140.046 335.539C142.732 335.539 144.915 333.355 144.915 330.659C144.911 330.22 144.855 329.795 144.748 329.394ZM140.041 332.38C139.091 332.38 138.318 331.606 138.318 330.654C138.318 329.702 139.091 328.928 140.041 328.928C140.991 328.928 141.759 329.702 141.759 330.654C141.764 331.606 140.991 332.38 140.041 332.38Z" fill="#F4F4F4"/>
<path d="M178.408 329.394H178.399L174.353 325.82C174.139 325.792 173.925 325.778 173.706 325.778C171.015 325.778 168.836 327.962 168.836 330.659C168.836 333.355 171.015 335.539 173.706 335.539C176.392 335.539 178.576 333.355 178.576 330.659C178.571 330.22 178.515 329.795 178.408 329.394ZM173.701 332.38C172.752 332.38 171.979 331.606 171.979 330.654C171.979 329.702 172.752 328.928 173.701 328.928C174.651 328.928 175.419 329.702 175.419 330.654C175.424 331.606 174.651 332.38 173.701 332.38Z" fill="#F4F4F4"/>
<path d="M10.106 299.777H10.0967L6.0509 296.203C5.83674 296.175 5.62258 296.161 5.40376 296.161C2.71279 296.161 0.533936 298.345 0.533936 301.041C0.533936 303.738 2.71279 305.922 5.40376 305.922C8.09008 305.922 10.2736 303.738 10.2736 301.041C10.2689 300.603 10.2131 300.183 10.106 299.777ZM5.40376 302.763C4.45401 302.763 3.68117 301.989 3.68117 301.037C3.68117 300.085 4.45401 299.31 5.40376 299.31C6.35352 299.31 7.1217 300.085 7.1217 301.037C7.1217 301.993 6.35352 302.763 5.40376 302.763Z" fill="#F4F4F4"/>
<path d="M43.7666 299.777H43.7573L39.7115 296.203C39.4974 296.175 39.2832 296.161 39.0644 296.161C36.3734 296.161 34.1946 298.345 34.1946 301.041C34.1946 303.738 36.3734 305.922 39.0644 305.922C41.7507 305.922 43.9342 303.738 43.9342 301.041C43.9296 300.603 43.8737 300.183 43.7666 299.777ZM39.0644 302.763C38.1146 302.763 37.3418 301.989 37.3418 301.037C37.3418 300.085 38.1146 299.31 39.0644 299.31C40.0142 299.31 40.7823 300.085 40.7823 301.037C40.7823 301.993 40.0095 302.763 39.0644 302.763Z" fill="#F4F4F4"/>
<path d="M77.4268 299.777H77.4175L73.3717 296.203C73.1575 296.175 72.9434 296.161 72.7246 296.161C70.0336 296.161 67.8547 298.345 67.8547 301.041C67.8547 303.738 70.0336 305.922 72.7246 305.922C75.4155 305.922 77.5944 303.738 77.5944 301.041C77.5897 300.603 77.5339 300.183 77.4268 299.777ZM72.7246 302.763C71.7748 302.763 71.002 301.989 71.002 301.037C71.002 300.085 71.7748 299.31 72.7246 299.31C73.6743 299.31 74.4472 300.085 74.4472 301.037C74.4425 301.993 73.6743 302.763 72.7246 302.763Z" fill="#F4F4F4"/>
<path d="M111.087 299.777H111.078L107.032 296.203C106.818 296.175 106.604 296.161 106.385 296.161C103.694 296.161 101.515 298.345 101.515 301.041C101.515 303.738 103.694 305.922 106.385 305.922C109.076 305.922 111.255 303.738 111.255 301.041C111.25 300.603 111.195 300.183 111.087 299.777ZM106.381 302.763C105.431 302.763 104.658 301.989 104.658 301.037C104.658 300.085 105.431 299.31 106.381 299.31C107.33 299.31 108.098 300.085 108.098 301.037C108.103 301.993 107.33 302.763 106.381 302.763Z" fill="#F4F4F4"/>
<path d="M144.748 299.777H144.739L140.693 296.203C140.479 296.175 140.264 296.161 140.046 296.161C137.355 296.161 135.176 298.345 135.176 301.041C135.176 303.738 137.355 305.922 140.046 305.922C142.732 305.922 144.915 303.738 144.915 301.041C144.911 300.603 144.855 300.183 144.748 299.777ZM140.041 302.763C139.091 302.763 138.318 301.989 138.318 301.037C138.318 300.085 139.091 299.31 140.041 299.31C140.991 299.31 141.759 300.085 141.759 301.037C141.764 301.993 140.991 302.763 140.041 302.763Z" fill="#F4F4F4"/>
<path d="M178.408 299.777H178.399L174.353 296.203C174.139 296.175 173.925 296.161 173.706 296.161C171.015 296.161 168.836 298.345 168.836 301.041C168.836 303.738 171.015 305.922 173.706 305.922C176.392 305.922 178.576 303.738 178.576 301.041C178.571 300.603 178.515 300.183 178.408 299.777ZM173.701 302.763C172.752 302.763 171.979 301.989 171.979 301.037C171.979 300.085 172.752 299.31 173.701 299.31C174.651 299.31 175.419 300.085 175.419 301.037C175.424 301.993 174.651 302.763 173.701 302.763Z" fill="#F4F4F4"/>
<path d="M10.106 270.165H10.0967L6.0509 266.591C5.83674 266.563 5.62258 266.549 5.40376 266.549C2.71279 266.544 0.533936 268.728 0.533936 271.424C0.533936 274.121 2.71279 276.305 5.40376 276.305C8.09008 276.305 10.2736 274.121 10.2736 271.424C10.2689 270.986 10.2131 270.566 10.106 270.165ZM5.40376 273.151C4.45401 273.151 3.68117 272.376 3.68117 271.424C3.68117 270.473 4.45401 269.698 5.40376 269.698C6.35352 269.698 7.1217 270.473 7.1217 271.424C7.1217 272.376 6.35352 273.151 5.40376 273.151Z" fill="#F4F4F4"/>
<path d="M43.7664 270.165H43.7571L39.7113 266.591C39.4971 266.563 39.283 266.549 39.0642 266.549C36.3732 266.549 34.1943 268.732 34.1943 271.429C34.1943 274.126 36.3732 276.309 39.0642 276.309C41.7505 276.309 43.934 274.126 43.934 271.429C43.9293 270.986 43.8735 270.566 43.7664 270.165ZM39.0642 273.151C38.1144 273.151 37.3416 272.376 37.3416 271.424C37.3416 270.473 38.1144 269.698 39.0642 269.698C40.0139 269.698 40.7821 270.473 40.7821 271.424C40.7821 272.376 40.0093 273.151 39.0642 273.151Z" fill="#F4F4F4"/>
<path d="M77.4268 270.165H77.4175L73.3717 266.591C73.1575 266.563 72.9434 266.549 72.7246 266.549C70.0336 266.549 67.8547 268.732 67.8547 271.429C67.8547 274.126 70.0336 276.309 72.7246 276.309C75.4155 276.309 77.5944 274.126 77.5944 271.429C77.5897 270.986 77.5339 270.566 77.4268 270.165ZM72.7246 273.151C71.7748 273.151 71.002 272.376 71.002 271.424C71.002 270.473 71.7748 269.698 72.7246 269.698C73.6743 269.698 74.4472 270.473 74.4472 271.424C74.4425 272.376 73.6743 273.151 72.7246 273.151Z" fill="#F4F4F4"/>
<path d="M111.087 270.165H111.078L107.032 266.591C106.818 266.563 106.604 266.549 106.385 266.549C103.694 266.549 101.515 268.732 101.515 271.429C101.515 274.126 103.694 276.309 106.385 276.309C109.076 276.309 111.255 274.126 111.255 271.429C111.25 270.986 111.195 270.566 111.087 270.165ZM106.381 273.151C105.431 273.151 104.658 272.376 104.658 271.424C104.658 270.473 105.431 269.698 106.381 269.698C107.33 269.698 108.098 270.473 108.098 271.424C108.103 272.376 107.33 273.151 106.381 273.151Z" fill="#F4F4F4"/>
<path d="M144.748 270.165H144.739L140.693 266.591C140.479 266.563 140.264 266.549 140.046 266.549C137.355 266.549 135.176 268.732 135.176 271.429C135.176 274.126 137.355 276.309 140.046 276.309C142.732 276.309 144.915 274.126 144.915 271.429C144.911 270.986 144.855 270.566 144.748 270.165ZM140.041 273.151C139.091 273.151 138.318 272.376 138.318 271.424C138.318 270.473 139.091 269.698 140.041 269.698C140.991 269.698 141.759 270.473 141.759 271.424C141.764 272.376 140.991 273.151 140.041 273.151Z" fill="#F4F4F4"/>
<path d="M178.408 270.165H178.399L174.353 266.591C174.139 266.563 173.925 266.549 173.706 266.549C171.015 266.549 168.836 268.732 168.836 271.429C168.836 274.126 171.015 276.309 173.706 276.309C176.392 276.309 178.576 274.126 178.576 271.429C178.571 270.986 178.515 270.566 178.408 270.165ZM173.701 273.151C172.752 273.151 171.979 272.376 171.979 271.424C171.979 270.473 172.752 269.698 173.701 269.698C174.651 269.698 175.419 270.473 175.419 271.424C175.424 272.376 174.651 273.151 173.701 273.151Z" fill="#F4F4F4"/>
<path d="M10.106 240.547H10.0967L6.0509 236.973C5.83674 236.945 5.62258 236.931 5.40376 236.931C2.71279 236.931 0.533936 239.114 0.533936 241.806C0.533936 244.503 2.71279 246.687 5.40376 246.687C8.09008 246.687 10.2736 244.503 10.2736 241.806C10.2689 241.372 10.2131 240.948 10.106 240.547ZM5.40376 243.533C4.45401 243.533 3.68117 242.758 3.68117 241.806C3.68117 240.854 4.45401 240.08 5.40376 240.08C6.35352 240.08 7.1217 240.854 7.1217 241.806C7.1217 242.758 6.35352 243.533 5.40376 243.533Z" fill="#F4F4F4"/>
<path d="M43.7664 240.547H43.7571L39.7113 236.973C39.4971 236.945 39.283 236.931 39.0642 236.931C36.3732 236.931 34.1943 239.114 34.1943 241.811C34.1943 244.508 36.3732 246.691 39.0642 246.691C41.7505 246.691 43.934 244.508 43.934 241.811C43.9293 241.372 43.8735 240.948 43.7664 240.547ZM39.0642 243.533C38.1144 243.533 37.3416 242.758 37.3416 241.806C37.3416 240.854 38.1144 240.08 39.0642 240.08C40.0139 240.08 40.7821 240.854 40.7821 241.806C40.7821 242.758 40.0093 243.533 39.0642 243.533Z" fill="#F4F4F4"/>
<path d="M77.4269 240.547H77.4176L73.3718 236.973C73.1577 236.945 72.9435 236.931 72.7247 236.931C70.0337 236.931 67.8549 239.114 67.8549 241.811C67.8549 244.508 70.0337 246.691 72.7247 246.691C75.4157 246.691 77.5945 244.508 77.5945 241.811C77.5899 241.372 77.534 240.948 77.4269 240.547ZM72.7247 243.533C71.7749 243.533 71.0021 242.758 71.0021 241.806C71.0021 240.854 71.7749 240.08 72.7247 240.08C73.6744 240.08 74.4473 240.854 74.4473 241.806C74.4426 242.758 73.6744 243.533 72.7247 243.533Z" fill="#F4F4F4"/>
<path d="M111.087 240.547H111.078L107.032 236.973C106.818 236.945 106.604 236.931 106.385 236.931C103.694 236.931 101.515 239.114 101.515 241.811C101.515 244.508 103.694 246.691 106.385 246.691C109.076 246.691 111.255 244.508 111.255 241.811C111.25 241.372 111.194 240.948 111.087 240.547ZM106.38 243.533C105.431 243.533 104.658 242.758 104.658 241.806C104.658 240.854 105.431 240.08 106.38 240.08C107.33 240.08 108.098 240.854 108.098 241.806C108.103 242.758 107.33 243.533 106.38 243.533Z" fill="#F4F4F4"/>
<path d="M144.748 240.547H144.739L140.693 236.973C140.479 236.945 140.264 236.931 140.046 236.931C137.355 236.931 135.176 239.114 135.176 241.811C135.176 244.508 137.355 246.691 140.046 246.691C142.732 246.691 144.915 244.508 144.915 241.811C144.911 241.372 144.855 240.948 144.748 240.547ZM140.041 243.533C139.091 243.533 138.318 242.758 138.318 241.806C138.318 240.854 139.091 240.08 140.041 240.08C140.991 240.08 141.759 240.854 141.759 241.806C141.764 242.758 140.991 243.533 140.041 243.533Z" fill="#F4F4F4"/>
<path d="M178.408 240.547H178.399L174.353 236.973C174.139 236.945 173.925 236.931 173.706 236.931C171.015 236.931 168.836 239.114 168.836 241.811C168.836 244.508 171.015 246.691 173.706 246.691C176.392 246.691 178.576 244.508 178.576 241.811C178.571 241.372 178.515 240.948 178.408 240.547ZM173.701 243.533C172.752 243.533 171.979 242.758 171.979 241.806C171.979 240.854 172.752 240.08 173.701 240.08C174.651 240.08 175.419 240.854 175.419 241.806C175.424 242.758 174.651 243.533 173.701 243.533Z" fill="#F4F4F4"/>
<path d="M212.069 447.86H212.06L208.014 444.286C207.8 444.258 207.585 444.244 207.367 444.244C204.676 444.244 202.497 446.428 202.497 449.124C202.497 451.821 204.676 454.005 207.367 454.005C210.058 454.005 212.236 451.821 212.236 449.124C212.232 448.686 212.176 448.261 212.069 447.86ZM207.362 450.846C206.412 450.846 205.639 450.072 205.639 449.12C205.639 448.168 206.412 447.393 207.362 447.393C208.312 447.393 209.085 448.168 209.085 449.12C209.085 450.072 208.312 450.846 207.362 450.846Z" fill="#F4F4F4"/>
<path d="M245.729 447.86H245.72L241.674 444.286C241.46 444.258 241.246 444.244 241.027 444.244C238.336 444.244 236.157 446.428 236.157 449.124C236.157 451.821 238.336 454.005 241.027 454.005C243.718 454.005 245.897 451.821 245.897 449.124C245.892 448.686 245.836 448.261 245.729 447.86ZM241.022 450.846C240.072 450.846 239.3 450.072 239.3 449.12C239.3 448.168 240.072 447.393 241.022 447.393C241.972 447.393 242.745 448.168 242.745 449.12C242.745 450.072 241.972 450.846 241.022 450.846Z" fill="#F4F4F4"/>
<path d="M279.39 447.86H279.38L275.335 444.286C275.12 444.258 274.906 444.244 274.687 444.244C271.996 444.244 269.818 446.428 269.818 449.124C269.818 451.821 271.996 454.005 274.687 454.005C277.374 454.005 279.557 451.821 279.557 449.124C279.553 448.686 279.497 448.261 279.39 447.86ZM274.683 450.846C273.733 450.846 272.96 450.072 272.96 449.12C272.96 448.168 273.733 447.393 274.683 447.393C275.633 447.393 276.401 448.168 276.401 449.12C276.405 450.072 275.633 450.846 274.683 450.846Z" fill="#F4F4F4"/>
<path d="M313.05 447.86H313.041L308.995 444.286C308.781 444.258 308.567 444.244 308.348 444.244C305.657 444.244 303.478 446.428 303.478 449.124C303.478 451.821 305.657 454.005 308.348 454.005C311.034 454.005 313.218 451.821 313.218 449.124C313.213 448.686 313.157 448.261 313.05 447.86ZM308.343 450.846C307.393 450.846 306.621 450.072 306.621 449.12C306.621 448.168 307.393 447.393 308.343 447.393C309.293 447.393 310.061 448.168 310.061 449.12C310.066 450.072 309.293 450.846 308.343 450.846Z" fill="#F4F4F4"/>
<path d="M212.069 418.243H212.059L208.014 414.669C207.799 414.641 207.585 414.627 207.366 414.627C204.675 414.627 202.497 416.81 202.497 419.507C202.497 422.199 204.675 424.387 207.366 424.387C210.057 424.387 212.236 422.204 212.236 419.507C212.232 419.069 212.176 418.649 212.069 418.243ZM207.362 421.229C206.412 421.229 205.639 420.454 205.639 419.503C205.639 418.551 206.412 417.776 207.362 417.776C208.312 417.776 209.084 418.551 209.084 419.503C209.084 420.454 208.312 421.229 207.362 421.229Z" fill="#F4F4F4"/>
<path d="M245.729 418.243H245.72L241.674 414.669C241.46 414.641 241.246 414.627 241.027 414.627C238.336 414.627 236.157 416.81 236.157 419.507C236.157 422.199 238.336 424.387 241.027 424.387C243.718 424.387 245.897 422.204 245.897 419.507C245.892 419.069 245.836 418.649 245.729 418.243ZM241.022 421.229C240.073 421.229 239.3 420.454 239.3 419.503C239.3 418.551 240.073 417.776 241.022 417.776C241.972 417.776 242.745 418.551 242.745 419.503C242.745 420.454 241.972 421.229 241.022 421.229Z" fill="#F4F4F4"/>
<path d="M279.39 418.243H279.38L275.335 414.669C275.12 414.641 274.906 414.627 274.687 414.627C271.996 414.627 269.818 416.81 269.818 419.507C269.818 422.199 271.996 424.387 274.687 424.387C277.374 424.387 279.557 422.204 279.557 419.507C279.553 419.069 279.497 418.649 279.39 418.243ZM274.683 421.229C273.733 421.229 272.96 420.454 272.96 419.503C272.96 418.551 273.733 417.776 274.683 417.776C275.633 417.776 276.401 418.551 276.401 419.503C276.405 420.454 275.633 421.229 274.683 421.229Z" fill="#F4F4F4"/>
<path d="M313.05 418.243H313.041L308.995 414.669C308.781 414.641 308.567 414.627 308.348 414.627C305.657 414.627 303.478 416.81 303.478 419.507C303.478 422.199 305.657 424.387 308.348 424.387C311.034 424.387 313.218 422.204 313.218 419.507C313.213 419.069 313.157 418.649 313.05 418.243ZM308.343 421.229C307.393 421.229 306.621 420.454 306.621 419.503C306.621 418.551 307.393 417.776 308.343 417.776C309.293 417.776 310.061 418.551 310.061 419.503C310.066 420.454 309.293 421.229 308.343 421.229Z" fill="#F4F4F4"/>
<path d="M212.069 388.63H212.06L208.014 385.056C207.8 385.028 207.585 385.014 207.367 385.014C204.676 385.014 202.497 387.197 202.497 389.894C202.497 392.591 204.676 394.774 207.367 394.774C210.058 394.774 212.236 392.591 212.236 389.894C212.232 389.451 212.176 389.031 212.069 388.63ZM207.362 391.616C206.412 391.616 205.639 390.841 205.639 389.889C205.639 388.937 206.412 388.163 207.362 388.163C208.312 388.163 209.085 388.937 209.085 389.889C209.085 390.841 208.312 391.616 207.362 391.616Z" fill="#F4F4F4"/>
<path d="M245.729 388.63H245.72L241.674 385.056C241.46 385.028 241.246 385.014 241.027 385.014C238.336 385.014 236.157 387.197 236.157 389.894C236.157 392.591 238.336 394.774 241.027 394.774C243.718 394.774 245.897 392.591 245.897 389.894C245.892 389.451 245.836 389.031 245.729 388.63ZM241.022 391.616C240.072 391.616 239.3 390.841 239.3 389.889C239.3 388.937 240.072 388.163 241.022 388.163C241.972 388.163 242.745 388.937 242.745 389.889C242.745 390.841 241.972 391.616 241.022 391.616Z" fill="#F4F4F4"/>
<path d="M279.39 388.63H279.38L275.335 385.056C275.12 385.028 274.906 385.014 274.687 385.014C271.996 385.014 269.818 387.197 269.818 389.894C269.818 392.591 271.996 394.774 274.687 394.774C277.374 394.774 279.557 392.591 279.557 389.894C279.553 389.451 279.497 389.031 279.39 388.63ZM274.683 391.616C273.733 391.616 272.96 390.841 272.96 389.889C272.96 388.937 273.733 388.163 274.683 388.163C275.633 388.163 276.401 388.937 276.401 389.889C276.405 390.841 275.633 391.616 274.683 391.616Z" fill="#F4F4F4"/>
<path d="M313.05 388.63H313.041L308.995 385.056C308.781 385.028 308.567 385.014 308.348 385.014C305.657 385.014 303.478 387.197 303.478 389.894C303.478 392.591 305.657 394.774 308.348 394.774C311.034 394.774 313.218 392.591 313.218 389.894C313.213 389.451 313.157 389.031 313.05 388.63ZM308.343 391.616C307.393 391.616 306.621 390.841 306.621 389.889C306.621 388.937 307.393 388.163 308.343 388.163C309.293 388.163 310.061 388.937 310.061 389.889C310.066 390.841 309.293 391.616 308.343 391.616Z" fill="#F4F4F4"/>
<path d="M212.069 359.012H212.059L208.014 355.438C207.8 355.41 207.585 355.396 207.367 355.396C204.676 355.396 202.497 357.58 202.497 360.277C202.497 362.969 204.676 365.157 207.367 365.157C210.058 365.157 212.236 362.974 212.236 360.277C212.232 359.834 212.176 359.414 212.069 359.012ZM207.362 361.998C206.412 361.998 205.639 361.224 205.639 360.272C205.639 359.32 206.412 358.546 207.362 358.546C208.312 358.546 209.084 359.32 209.084 360.272C209.084 361.224 208.312 361.998 207.362 361.998Z" fill="#F4F4F4"/>
<path d="M245.729 359.012H245.72L241.674 355.438C241.46 355.41 241.246 355.396 241.027 355.396C238.336 355.396 236.157 357.58 236.157 360.277C236.157 362.969 238.336 365.157 241.027 365.157C243.718 365.157 245.897 362.974 245.897 360.277C245.892 359.834 245.836 359.414 245.729 359.012ZM241.022 361.998C240.072 361.998 239.3 361.224 239.3 360.272C239.3 359.32 240.072 358.546 241.022 358.546C241.972 358.546 242.745 359.32 242.745 360.272C242.745 361.224 241.972 361.998 241.022 361.998Z" fill="#F4F4F4"/>
<path d="M279.39 359.012H279.38L275.335 355.438C275.12 355.41 274.906 355.396 274.687 355.396C271.996 355.396 269.818 357.58 269.818 360.277C269.818 362.969 271.996 365.157 274.687 365.157C277.374 365.157 279.557 362.974 279.557 360.277C279.553 359.834 279.497 359.414 279.39 359.012ZM274.683 361.998C273.733 361.998 272.96 361.224 272.96 360.272C272.96 359.32 273.733 358.546 274.683 358.546C275.633 358.546 276.401 359.32 276.401 360.272C276.405 361.224 275.633 361.998 274.683 361.998Z" fill="#F4F4F4"/>
<path d="M313.05 359.012H313.041L308.995 355.438C308.781 355.41 308.567 355.396 308.348 355.396C305.657 355.396 303.478 357.58 303.478 360.277C303.478 362.969 305.657 365.157 308.348 365.157C311.034 365.157 313.218 362.974 313.218 360.277C313.213 359.834 313.157 359.414 313.05 359.012ZM308.343 361.998C307.394 361.998 306.621 361.224 306.621 360.272C306.621 359.32 307.394 358.546 308.343 358.546C309.293 358.546 310.061 359.32 310.061 360.272C310.066 361.224 309.293 361.998 308.343 361.998Z" fill="#F4F4F4"/>
<path d="M212.069 329.394H212.059L208.014 325.82C207.799 325.792 207.585 325.778 207.366 325.778C204.675 325.778 202.497 327.962 202.497 330.659C202.497 333.355 204.675 335.539 207.366 335.539C210.057 335.539 212.236 333.355 212.236 330.659C212.232 330.22 212.176 329.795 212.069 329.394ZM207.362 332.38C206.412 332.38 205.639 331.606 205.639 330.654C205.639 329.702 206.412 328.928 207.362 328.928C208.312 328.928 209.084 329.702 209.084 330.654C209.084 331.606 208.312 332.38 207.362 332.38Z" fill="#F4F4F4"/>
<path d="M245.729 329.394H245.72L241.674 325.82C241.46 325.792 241.246 325.778 241.027 325.778C238.336 325.778 236.157 327.962 236.157 330.659C236.157 333.355 238.336 335.539 241.027 335.539C243.718 335.539 245.897 333.355 245.897 330.659C245.892 330.22 245.836 329.795 245.729 329.394ZM241.022 332.38C240.073 332.38 239.3 331.606 239.3 330.654C239.3 329.702 240.073 328.928 241.022 328.928C241.972 328.928 242.745 329.702 242.745 330.654C242.745 331.606 241.972 332.38 241.022 332.38Z" fill="#F4F4F4"/>
<path d="M279.39 329.394H279.38L275.335 325.82C275.12 325.792 274.906 325.778 274.687 325.778C271.996 325.778 269.818 327.962 269.818 330.659C269.818 333.355 271.996 335.539 274.687 335.539C277.374 335.539 279.557 333.355 279.557 330.659C279.553 330.22 279.497 329.795 279.39 329.394ZM274.683 332.38C273.733 332.38 272.96 331.606 272.96 330.654C272.96 329.702 273.733 328.928 274.683 328.928C275.633 328.928 276.401 329.702 276.401 330.654C276.405 331.606 275.633 332.38 274.683 332.38Z" fill="#F4F4F4"/>
<path d="M313.05 329.394H313.041L308.995 325.82C308.781 325.792 308.567 325.778 308.348 325.778C305.657 325.778 303.478 327.962 303.478 330.659C303.478 333.355 305.657 335.539 308.348 335.539C311.034 335.539 313.218 333.355 313.218 330.659C313.213 330.22 313.157 329.795 313.05 329.394ZM308.343 332.38C307.393 332.38 306.621 331.606 306.621 330.654C306.621 329.702 307.393 328.928 308.343 328.928C309.293 328.928 310.061 329.702 310.061 330.654C310.066 331.606 309.293 332.38 308.343 332.38Z" fill="#F4F4F4"/>
<path d="M212.069 299.777H212.06L208.014 296.203C207.8 296.175 207.585 296.161 207.367 296.161C204.676 296.161 202.497 298.345 202.497 301.041C202.497 303.738 204.676 305.922 207.367 305.922C210.058 305.922 212.236 303.738 212.236 301.041C212.232 300.603 212.176 300.183 212.069 299.777ZM207.362 302.763C206.412 302.763 205.639 301.989 205.639 301.037C205.639 300.085 206.412 299.31 207.362 299.31C208.312 299.31 209.085 300.085 209.085 301.037C209.085 301.993 208.312 302.763 207.362 302.763Z" fill="#F4F4F4"/>
<path d="M245.729 299.777H245.72L241.674 296.203C241.46 296.175 241.246 296.161 241.027 296.161C238.336 296.161 236.157 298.345 236.157 301.041C236.157 303.738 238.336 305.922 241.027 305.922C243.718 305.922 245.897 303.738 245.897 301.041C245.892 300.603 245.836 300.183 245.729 299.777ZM241.022 302.763C240.072 302.763 239.3 301.989 239.3 301.037C239.3 300.085 240.072 299.31 241.022 299.31C241.972 299.31 242.745 300.085 242.745 301.037C242.745 301.993 241.972 302.763 241.022 302.763Z" fill="#F4F4F4"/>
<path d="M279.39 299.777H279.38L275.335 296.203C275.12 296.175 274.906 296.161 274.687 296.161C271.996 296.161 269.818 298.345 269.818 301.041C269.818 303.738 271.996 305.922 274.687 305.922C277.374 305.922 279.557 303.738 279.557 301.041C279.553 300.603 279.497 300.183 279.39 299.777ZM274.683 302.763C273.733 302.763 272.96 301.989 272.96 301.037C272.96 300.085 273.733 299.31 274.683 299.31C275.633 299.31 276.401 300.085 276.401 301.037C276.405 301.993 275.633 302.763 274.683 302.763Z" fill="#F4F4F4"/>
<path d="M313.05 299.777H313.041L308.995 296.203C308.781 296.175 308.567 296.161 308.348 296.161C305.657 296.161 303.478 298.345 303.478 301.041C303.478 303.738 305.657 305.922 308.348 305.922C311.034 305.922 313.218 303.738 313.218 301.041C313.213 300.603 313.157 300.183 313.05 299.777ZM308.343 302.763C307.393 302.763 306.621 301.989 306.621 301.037C306.621 300.085 307.393 299.31 308.343 299.31C309.293 299.31 310.061 300.085 310.061 301.037C310.066 301.993 309.293 302.763 308.343 302.763Z" fill="#F4F4F4"/>
<path d="M212.069 270.165H212.059L208.014 266.591C207.799 266.563 207.585 266.549 207.366 266.549C204.675 266.549 202.497 268.732 202.497 271.429C202.497 274.126 204.675 276.309 207.366 276.309C210.057 276.309 212.236 274.126 212.236 271.429C212.232 270.986 212.176 270.566 212.069 270.165ZM207.362 273.151C206.412 273.151 205.639 272.376 205.639 271.424C205.639 270.473 206.412 269.698 207.362 269.698C208.312 269.698 209.084 270.473 209.084 271.424C209.084 272.376 208.312 273.151 207.362 273.151Z" fill="#F4F4F4"/>
<path d="M245.729 270.165H245.72L241.674 266.591C241.46 266.563 241.246 266.549 241.027 266.549C238.336 266.549 236.157 268.732 236.157 271.429C236.157 274.126 238.336 276.309 241.027 276.309C243.718 276.309 245.897 274.126 245.897 271.429C245.892 270.986 245.836 270.566 245.729 270.165ZM241.022 273.151C240.073 273.151 239.3 272.376 239.3 271.424C239.3 270.473 240.073 269.698 241.022 269.698C241.972 269.698 242.745 270.473 242.745 271.424C242.745 272.376 241.972 273.151 241.022 273.151Z" fill="#F4F4F4"/>
<path d="M279.39 270.165H279.38L275.335 266.591C275.12 266.563 274.906 266.549 274.687 266.549C271.996 266.549 269.818 268.732 269.818 271.429C269.818 274.126 271.996 276.309 274.687 276.309C277.374 276.309 279.557 274.126 279.557 271.429C279.553 270.986 279.497 270.566 279.39 270.165ZM274.683 273.151C273.733 273.151 272.96 272.376 272.96 271.424C272.96 270.473 273.733 269.698 274.683 269.698C275.633 269.698 276.401 270.473 276.401 271.424C276.405 272.376 275.633 273.151 274.683 273.151Z" fill="#F4F4F4"/>
<path d="M313.05 270.165H313.041L308.995 266.591C308.781 266.563 308.567 266.549 308.348 266.549C305.657 266.549 303.478 268.732 303.478 271.429C303.478 274.126 305.657 276.309 308.348 276.309C311.034 276.309 313.218 274.126 313.218 271.429C313.213 270.986 313.157 270.566 313.05 270.165ZM308.343 273.151C307.393 273.151 306.621 272.376 306.621 271.424C306.621 270.473 307.393 269.698 308.343 269.698C309.293 269.698 310.061 270.473 310.061 271.424C310.066 272.376 309.293 273.151 308.343 273.151Z" fill="#F4F4F4"/>
<path d="M212.069 240.547H212.059L208.014 236.973C207.8 236.945 207.585 236.931 207.367 236.931C204.676 236.931 202.497 239.114 202.497 241.811C202.497 244.508 204.676 246.691 207.367 246.691C210.058 246.691 212.236 244.508 212.236 241.811C212.232 241.372 212.176 240.948 212.069 240.547ZM207.362 243.533C206.412 243.533 205.639 242.758 205.639 241.806C205.639 240.854 206.412 240.08 207.362 240.08C208.312 240.08 209.084 240.854 209.084 241.806C209.084 242.758 208.312 243.533 207.362 243.533Z" fill="#F4F4F4"/>
<path d="M245.729 240.547H245.72L241.674 236.973C241.46 236.945 241.246 236.931 241.027 236.931C238.336 236.931 236.157 239.114 236.157 241.811C236.157 244.508 238.336 246.691 241.027 246.691C243.718 246.691 245.897 244.508 245.897 241.811C245.892 241.372 245.836 240.948 245.729 240.547ZM241.022 243.533C240.073 243.533 239.3 242.758 239.3 241.806C239.3 240.854 240.073 240.08 241.022 240.08C241.972 240.08 242.745 240.854 242.745 241.806C242.745 242.758 241.972 243.533 241.022 243.533Z" fill="#F4F4F4"/>
<path d="M279.39 240.547H279.38L275.335 236.973C275.12 236.945 274.906 236.931 274.687 236.931C271.996 236.931 269.818 239.114 269.818 241.811C269.818 244.508 271.996 246.691 274.687 246.691C277.374 246.691 279.557 244.508 279.557 241.811C279.553 241.372 279.497 240.948 279.39 240.547ZM274.683 243.533C273.733 243.533 272.96 242.758 272.96 241.806C272.96 240.854 273.733 240.08 274.683 240.08C275.633 240.08 276.401 240.854 276.401 241.806C276.405 242.758 275.633 243.533 274.683 243.533Z" fill="#F4F4F4"/>
<path d="M313.05 240.547H313.041L308.995 236.973C308.781 236.945 308.567 236.931 308.348 236.931C305.657 236.931 303.478 239.114 303.478 241.811C303.478 244.508 305.657 246.691 308.348 246.691C311.034 246.691 313.218 244.508 313.218 241.811C313.213 241.372 313.157 240.948 313.05 240.547ZM308.343 243.533C307.393 243.533 306.621 242.758 306.621 241.806C306.621 240.854 307.393 240.08 308.343 240.08C309.293 240.08 310.061 240.854 310.061 241.806C310.066 242.758 309.293 243.533 308.343 243.533Z" fill="#F4F4F4"/>
</svg>
