<svg width="76" height="71" viewBox="0 0 76 71" fill="none" xmlns="http://www.w3.org/2000/svg">
<path opacity="0.2" d="M25.0828 1.60274C26.0388 1.08796 27.1051 0.830566 28.2818 0.830566C29.6791 0.830566 30.8557 1.19827 31.8117 1.93367C32.8413 2.66907 33.3561 3.66186 33.3561 4.91204C33.3561 6.08868 33.0251 7.19178 32.3633 8.22134C28.4656 12.4131 25.5608 17.3771 23.6488 23.1132C21.7367 28.7758 20.7807 33.6294 20.7807 37.6741C20.7807 38.6302 20.8175 39.292 20.891 39.6597C20.891 39.8803 21.5529 40.248 22.8766 40.7628C26.0388 42.1601 28.723 43.925 30.9292 46.0577C33.209 48.1904 34.3488 51.4261 34.3488 55.765C34.3488 58.5595 33.6134 61.1334 32.1426 63.4867C30.7454 65.84 28.8333 67.6785 26.4065 69.0022C23.9797 70.3259 21.2955 70.9878 18.3539 70.9878C13.5738 70.9878 9.38199 69.3699 5.77853 66.1341C2.2486 62.8248 0.483643 57.4197 0.483643 49.9186C0.483643 43.9618 1.95444 37.6006 4.89605 30.8349C7.83765 24.0692 11.2573 17.9654 15.1549 12.5234C19.1261 7.08147 22.4354 3.44124 25.0828 1.60274ZM66.4491 1.60274C67.4051 1.08796 68.4714 0.830566 69.6481 0.830566C71.0453 0.830566 72.222 1.19827 73.178 1.93367C74.2076 2.66907 74.7223 3.66186 74.7223 4.91204C74.7223 6.08868 74.3914 7.19178 73.7296 8.22134C69.8319 12.4131 66.9271 17.3771 65.0151 23.1132C63.103 28.7758 62.147 33.6294 62.147 37.6741C62.147 38.6302 62.1838 39.292 62.2573 39.6597C62.2573 39.8803 62.9192 40.248 64.2429 40.7628C67.4051 42.1601 70.0893 43.925 72.2955 46.0577C74.5753 48.1904 75.7151 51.4261 75.7151 55.765C75.7151 58.5595 74.9797 61.1334 73.5089 63.4867C72.1117 65.84 70.1996 67.6785 67.7728 69.0022C65.346 70.3259 62.6618 70.9878 59.7202 70.9878C54.9401 70.9878 50.7483 69.3699 47.1448 66.1341C43.6149 62.8248 41.8499 57.4197 41.8499 49.9186C41.8499 43.9618 43.3207 37.6006 46.2623 30.8349C49.2039 24.0692 52.6236 17.9654 56.5212 12.5234C60.4923 7.08147 63.8016 3.44124 66.4491 1.60274Z" fill="#DDDDDD"/>
</svg>
