<svg width="14" height="14" viewBox="0 0 14 14" fill="none" xmlns="http://www.w3.org/2000/svg">
<g clip-path="url(#clip0_531_420)">
<path d="M3.92219 7.70957H5.38111V13.7206C5.38111 13.8393 5.47719 13.9354 5.59578 13.9354H8.06943C8.18801 13.9354 8.2841 13.8393 8.2841 13.7206V7.73789H9.96125C10.0703 7.73789 10.162 7.65599 10.1745 7.54758L10.4292 5.33462C10.4362 5.27374 10.4169 5.21276 10.3762 5.16709C10.3355 5.12137 10.2772 5.0952 10.216 5.0952H8.28418V3.70801C8.28418 3.28984 8.50915 3.07779 8.95291 3.07779C9.01615 3.07779 10.216 3.07779 10.216 3.07779C10.3346 3.07779 10.4307 2.98159 10.4307 2.86295V0.831666C10.4307 0.712987 10.3346 0.616824 10.216 0.616824H8.47528C8.463 0.616223 8.43574 0.615234 8.39555 0.615234C8.09351 0.615234 7.04366 0.674574 6.21436 1.43812C5.2955 2.28425 5.42323 3.29736 5.45375 3.47302V5.09516H3.92219C3.8036 5.09516 3.70752 5.19132 3.70752 5.31V7.49469C3.70752 7.61336 3.8036 7.70957 3.92219 7.70957Z" fill="white"/>
</g>
<defs>
<clipPath id="clip0_531_420">
<rect width="13.3094" height="13.3202" fill="white" transform="translate(0.414062 0.615234)"/>
</clipPath>
</defs>
</svg>
