<svg width="14" height="14" viewBox="0 0 14 14" fill="none" xmlns="http://www.w3.org/2000/svg">
<g clip-path="url(#clip0_531_426)">
<path d="M9.98027 13.5189H4.15742C2.32738 13.5189 0.830078 12.0204 0.830078 10.1889V4.3613C0.830078 2.52977 2.32738 1.03125 4.15742 1.03125H9.98027C11.8103 1.03125 13.3076 2.52977 13.3076 4.3613V10.1889C13.3076 12.0204 11.8103 13.5189 9.98027 13.5189Z" stroke="white" stroke-width="1.5" stroke-miterlimit="10" stroke-linecap="round" stroke-linejoin="round"/>
<path d="M7.06816 10.1883C8.6761 10.1883 9.97959 8.88389 9.97959 7.27482C9.97959 5.66574 8.6761 4.36133 7.06816 4.36133C5.46023 4.36133 4.15674 5.66574 4.15674 7.27482C4.15674 8.88389 5.46023 10.1883 7.06816 10.1883Z" stroke="white" stroke-width="1.5" stroke-miterlimit="10" stroke-linecap="round" stroke-linejoin="round"/>
<path d="M10.3969 3.94414C10.6266 3.94414 10.8128 3.75793 10.8128 3.52822C10.8128 3.29852 10.6266 3.1123 10.3969 3.1123C10.1672 3.1123 9.98096 3.29852 9.98096 3.52822C9.98096 3.75793 10.1672 3.94414 10.3969 3.94414Z" stroke="white" stroke-width="1.5" stroke-miterlimit="10" stroke-linecap="round" stroke-linejoin="round"/>
</g>
<defs>
<clipPath id="clip0_531_426">
<rect width="13.3094" height="13.3202" fill="white" transform="translate(0.414062 0.615234)"/>
</clipPath>
</defs>
</svg>
