<svg width="25" height="25" viewBox="0 0 25 25" fill="none" xmlns="http://www.w3.org/2000/svg">
<g clip-path="url(#clip0_802_23990)">
<path d="M23.8542 14.1289H0.654135C0.432932 14.1289 0.25415 14.3077 0.25415 14.5289V19.3289C0.25415 19.5501 0.432932 19.7289 0.654135 19.7289H23.8541C24.0753 19.7289 24.2541 19.5501 24.2541 19.3289V14.5289C24.2542 14.3077 24.0754 14.1289 23.8542 14.1289ZM23.4541 18.9289H1.05417V14.9289H2.25417L2.25374 15.7289C2.25374 15.9497 2.43253 16.1289 2.65373 16.1289C2.87451 16.1289 3.05371 15.9501 3.05371 15.7289L3.05413 14.9289H4.65412V16.5289C4.65412 16.7501 4.8329 16.9289 5.0541 16.9289C5.27531 16.9289 5.45409 16.7501 5.45409 16.5289V14.9289H7.05407V15.7289C7.05407 15.9501 7.23285 16.1289 7.45406 16.1289C7.67526 16.1289 7.85404 15.9501 7.85404 15.7289V14.9289H9.45403V16.5289C9.45403 16.7501 9.63281 16.9289 9.85401 16.9289C10.0752 16.9289 10.254 16.7501 10.254 16.5289V14.9289H11.854V15.7289C11.854 15.9501 12.0328 16.1289 12.254 16.1289C12.4752 16.1289 12.6539 15.9501 12.6539 15.7289V14.9289H14.2539V16.5289C14.2539 16.7501 14.4327 16.9289 14.6539 16.9289C14.8751 16.9289 15.0539 16.7501 15.0539 16.5289V14.9289H16.6539V15.7289C16.6539 15.9501 16.8327 16.1289 17.0539 16.1289C17.2751 16.1289 17.4539 15.9501 17.4539 15.7289V14.9289H19.0538V16.5289C19.0538 16.7501 19.2326 16.9289 19.4538 16.9289C19.675 16.9289 19.8538 16.7501 19.8538 16.5289V14.9289H21.4546L21.4542 15.7289C21.4542 15.9497 21.6329 16.1289 21.8541 16.1289C22.0749 16.1289 22.2541 15.9501 22.2541 15.7289L22.2546 14.9289H23.4538V18.9289H23.4541Z" fill="#605F65" stroke="#605F65" stroke-width="0.3"/>
<path d="M0.654135 5.3291C0.432932 5.3291 0.25415 5.50788 0.25415 5.72909V12.5291C0.25415 12.7503 0.432932 12.9291 0.654135 12.9291C0.875338 12.9291 1.05412 12.7503 1.05412 12.5291V9.32909V5.72909C1.05417 5.50788 0.875338 5.3291 0.654135 5.3291Z" fill="#605F65" stroke="#605F65" stroke-width="0.3"/>
<path d="M23.8542 5.3291C23.633 5.3291 23.4542 5.50788 23.4542 5.72909V9.32909V12.5291C23.4542 12.7503 23.633 12.9291 23.8542 12.9291C24.0754 12.9291 24.2542 12.7503 24.2542 12.5291V5.72909C24.2542 5.50788 24.0754 5.3291 23.8542 5.3291Z" fill="#605F65" stroke="#605F65" stroke-width="0.3"/>
<path d="M22.5681 9.07321L20.7109 6.67321C20.6105 6.5436 20.4457 6.49682 20.2989 6.55321C20.1521 6.61082 20.0541 6.7612 20.0541 6.92962V8.92963H4.4541V6.92924C4.4541 6.76082 4.35608 6.61044 4.20931 6.55326C4.0625 6.49607 3.89811 6.54327 3.79733 6.67326L1.94014 9.07363C1.88295 9.14765 1.85413 9.23882 1.85413 9.32962C1.85413 9.42041 1.88291 9.51163 1.94014 9.58602L3.79733 11.986C3.86933 12.0788 3.97452 12.1296 4.08252 12.1296C4.12494 12.1296 4.16774 12.1216 4.20894 12.1056C4.35575 12.048 4.45372 11.8976 4.45372 11.7296V9.7296H20.0537V11.7296C20.0537 11.898 20.1517 12.0484 20.2985 12.1056C20.3397 12.1216 20.3825 12.1296 20.4249 12.1296C20.5329 12.1296 20.6381 12.0788 20.7105 11.986L22.5677 9.58602C22.6253 9.51163 22.6541 9.42084 22.6541 9.32962C22.6541 9.2384 22.6253 9.14765 22.5681 9.07321ZM3.71131 10.6248L2.70889 9.32962L3.71131 8.03441V10.6248ZM20.7969 10.6248V8.03441L21.7993 9.32962L20.7969 10.6248Z" fill="#605F65" stroke="#605F65" stroke-width="0.3"/>
</g>
<defs>
<clipPath id="clip0_802_23990">
<rect width="24" height="24" fill="white" transform="translate(0.25415 0.529297)"/>
</clipPath>
</defs>
</svg>
