<svg width="17" height="17" viewBox="0 0 17 17" fill="none" xmlns="http://www.w3.org/2000/svg">
<g clip-path="url(#clip0_303_296)">
<path d="M15.0322 12.0688V14.0688C15.0329 14.2545 14.9949 14.4382 14.9205 14.6084C14.8461 14.7785 14.737 14.9312 14.6002 15.0567C14.4634 15.1822 14.3019 15.2778 14.126 15.3373C13.9501 15.3968 13.7638 15.4188 13.5788 15.4021C11.5274 15.1792 9.55685 14.4782 7.82552 13.3555C6.21473 12.3319 4.84907 10.9663 3.82552 9.35547C2.69883 7.61627 1.99768 5.63613 1.77885 3.57547C1.76219 3.39111 1.7841 3.20531 1.84318 3.02988C1.90227 2.85446 1.99723 2.69326 2.12203 2.55655C2.24682 2.41984 2.39872 2.31061 2.56804 2.23582C2.73737 2.16102 2.92041 2.12231 3.10552 2.12213H5.10552C5.42905 2.11895 5.74271 2.23352 5.98802 2.44449C6.23334 2.65546 6.39357 2.94843 6.43885 3.2688C6.52326 3.90885 6.67982 4.53729 6.90552 5.14214C6.99521 5.38075 7.01462 5.64008 6.96145 5.88939C6.90828 6.1387 6.78476 6.36754 6.60552 6.5488L5.75885 7.39547C6.70789 9.0645 8.08982 10.4464 9.75885 11.3955L10.6055 10.5488C10.7868 10.3696 11.0156 10.246 11.2649 10.1929C11.5142 10.1397 11.7736 10.1591 12.0122 10.2488C12.617 10.4745 13.2455 10.6311 13.8855 10.7155C14.2094 10.7612 14.5051 10.9243 14.7165 11.1738C14.928 11.4233 15.0403 11.7419 15.0322 12.0688Z" stroke="#605F65" stroke-width="1.5" stroke-linecap="round" stroke-linejoin="round"/>
</g>
<defs>
<clipPath id="clip0_303_296">
<rect width="16" height="16" fill="white" transform="translate(0.365234 0.789062)"/>
</clipPath>
</defs>
</svg>
