<svg width="18" height="17" viewBox="0 0 18 17" fill="none" xmlns="http://www.w3.org/2000/svg">
<path d="M17.1539 7.82615C17.1539 7.68436 17.1184 7.55964 17.0298 7.47108C16.9413 7.38252 16.8165 7.34701 16.6747 7.34701H10.3809C10.3637 7.34701 10.3527 7.34482 10.3462 7.34266C10.3402 7.34066 10.3383 7.3388 10.3379 7.33838C10.3375 7.33796 10.3356 7.33606 10.3336 7.33007C10.3314 7.3236 10.3293 7.31259 10.3293 7.29535V0.84985C10.3293 0.708053 10.2937 0.583338 10.2052 0.494779C10.1166 0.40622 9.9919 0.370703 9.8501 0.370703H8.25769C8.11589 0.370703 7.99117 0.40622 7.90262 0.494779C7.81406 0.583338 7.77854 0.708053 7.77854 0.84985V7.29535C7.77854 7.31259 7.77635 7.3236 7.77419 7.33008C7.7722 7.33606 7.77034 7.33796 7.76991 7.33838C7.76949 7.3388 7.76759 7.34066 7.76161 7.34266C7.75514 7.34482 7.74412 7.34701 7.72688 7.34701H1.43304C1.29124 7.34701 1.16653 7.38252 1.07797 7.47108C0.989411 7.55964 0.953894 7.68436 0.953894 7.82615V9.41857C0.953894 9.56037 0.989411 9.68508 1.07797 9.77364C1.16653 9.8622 1.29124 9.89772 1.43304 9.89772H7.72688C7.74412 9.89772 7.75514 9.89991 7.76161 9.90207C7.7676 9.90406 7.76949 9.90592 7.76991 9.90634C7.77034 9.90676 7.7722 9.90866 7.77419 9.91465C7.77635 9.92112 7.77854 9.93213 7.77854 9.94938V16.0916C7.77854 16.2334 7.81406 16.3581 7.90262 16.4466C7.99117 16.5352 8.11589 16.5707 8.25769 16.5707H9.8501C9.9919 16.5707 10.1166 16.5352 10.2052 16.4466C10.2937 16.3581 10.3293 16.2334 10.3293 16.0916V9.94938C10.3293 9.93213 10.3314 9.92112 10.3336 9.91465C10.3356 9.90866 10.3375 9.90677 10.3379 9.90634C10.3383 9.90592 10.3402 9.90406 10.3462 9.90207C10.3527 9.89991 10.3637 9.89772 10.3809 9.89772H16.6747C16.8165 9.89772 16.9413 9.8622 17.0298 9.77364C17.1184 9.68508 17.1539 9.56037 17.1539 9.41857V7.82615Z" fill="black" stroke="black" stroke-width="0.2"/>
</svg>
